<?xml version="1.0" encoding="utf-8"?>
<!-- Generator: Adobe Illustrator 21.0.1, SVG Export Plug-In . SVG Version: 6.00 Build 0)  -->
<svg version="1.1" xmlns="http://www.w3.org/2000/svg" xmlns:xlink="http://www.w3.org/1999/xlink" x="0px" y="0px"
	 viewBox="0 0 1280 1280" style="enable-background:new 0 0 1280 1280;" xml:space="preserve">
<style type="text/css">
	.creative0{fill:#1BC1C1;}
	.creative1{fill:#FFFFFF;}
	.creative2{fill:#FFFFFF;stroke:#1BC1C1;stroke-width:3;stroke-miterlimit:10;}
	.creative3{fill:#FFFFFF;stroke:#1BC1C1;stroke-miterlimit:10;}
	.creative4{fill:#FFFFFF;stroke:#0CBAB5;stroke-miterlimit:10;}
</style>
<g id="Layer_2">
	<path class="creative0" d="M195.6,774.4c-0.7-2.5-1.8-6.1-3-10.6c-3.6-12.9-12.8-45.6-17.1-77.2c-5.2-38.1-2.4-68,0-93.6
		c3-31.7,8.3-56.6,11.8-71c11.4-47.3,26.8-80.9,30.5-88.8c16-34.2,32.4-57.7,44.9-75.3c12.4-17.6,33.9-46,65.2-77
		c17.9-17.8,43-42.5,80.6-66.9c53.6-34.8,101.6-49,135-58.7c33.1-9.5,68-19.6,115.7-20.9c61.4-1.7,107.1,12.1,145.3,23.6
		c63,19,107.1,44,122.5,53.1c45.8,27,80.2,56.4,104.3,80.1c1.3,1,3.3,2.9,4.8,5.9c2.1,4.2,2,8.2,1.8,9.9l-8.1,11.7l-10,12.2
		l-5.2,10.9c1.3,0.9,3.1,2.1,5.2,3.7c17.4,12.8,34.3,30.2,53.2,61.6c11.5,19.1,21.3,39.4,31.8,66.7c10.7,28.1,24.6,64.6,32.3,115.4
		c11.1,73.6,2.3,131.2-0.7,148.9c-1.5,9-8.8,49.6-29.4,100c-26.6,65.2-60.2,108.9-73.2,125c-43.9,54.5-88.5,86-104.3,96.6
		c-15.5,10.5-55.9,36.2-114,55.7c-89.3,29.9-164.7,26.3-191.8,24.1c-26.6-2.1-95.1-9.9-173.1-47.8c-98.9-48.2-154.5-116-170.7-136.9
		c-31.4-40.5-49.7-79.2-56-93c-12-26.3-19.8-50-25-68.7L195.6,774.4z"/>
	<path class="creative1" d="M1000,450.4c3.7-2.8-11.9-28.8-16.4-36.3c-17.9-29.9-39-65.1-81.7-95c-29.5-20.7-56.5-29.6-74.7-35.5
		c-7.9-2.6-15.6-4.7-23-6.5c-8.3-2-12.6,9.5-5,13.4c0.2,0.1,0.4,0.2,0.6,0.3c31.2,16.3,52.4,32.6,74.3,49.6
		c31.2,24.3,56.3,47.5,71.7,62C980,434.1,996.7,452.9,1000,450.4z"/>
	<path class="creative1" d="M316.1,851.1c-3.6,2.8,12.2,28.6,16.8,36.1c18.3,29.7,39.9,64.6,82.9,94c29.8,20.3,56.8,28.9,75.1,34.6
		c7.9,2.5,15.6,4.5,23,6.2c8.3,1.9,12.4-9.6,4.8-13.5c-0.2-0.1-0.4-0.2-0.6-0.3c-31.4-15.9-52.8-31.9-74.9-48.7
		c-31.5-23.9-56.8-46.8-72.5-61.1C336.3,867.1,319.4,848.5,316.1,851.1z"/>
	<path class="creative1" d="M907.3,479.6c2.4-1.8-7.7-18.6-10.5-23.4c-11.5-19.3-25.2-42-52.7-61.3c-19-13.4-36.4-19.1-48.1-22.9
		c-5.1-1.7-10-3-14.8-4.2c-5.3-1.3-5.6,2.1-0.7,4.6c0.1,0.1,2.1,1.7,2.2,1.8c20.1,10.5,33.7,18.6,47.8,29.6
		c20.1,15.7,37,30.4,47,39.8C899.3,464.1,905.2,481.3,907.3,479.6z"/>
	<path class="creative1" d="M396.2,828.2c-2.3,1.9,8.1,18.4,11.1,23.2c12,19,26.1,41.4,54,60.1c19.3,12.9,36.8,18.3,48.6,21.8
		c5.1,1.5,10.1,2.8,14.9,3.9c5.4,1.2,5.6-2.2,0.6-4.7c-0.1-0.1-2.1-1.6-2.3-1.7c-20.3-10-34.1-17.8-48.4-28.5
		c-20.5-15.2-37.7-29.6-47.9-38.7C404.6,843.6,398.4,826.5,396.2,828.2z"/>
</g>
<g id="Layer_3">
	<path class="creative1" d="M608.7,723.7L601,813c-0.7,2.2-1.5,5.8-1,10c0.8,7.7,5.1,12.8,7,15c7.3,8.7,19.2,12.3,33,15
		c19,3.7,39,7.7,66,3c0,0,17.9-3.1,40-15c4.5-2.4,10.6-6.1,13-13c1.1-3.1,1.2-6,1-8l-2.6-96L609,722L608.7,723.7z"/>
	<ellipse class="creative2" cx="683.5" cy="682.5" rx="129.5" ry="50.5"/>
	<ellipse class="creative0" cx="683" cy="672.5" rx="81" ry="31.5"/>
	<polygon class="creative3" points="465.5,376.5 619.5,565.5 616.5,571.5 612,576 607,577 594,560 548,507 447,393 447,390 456,382 
		462,377 	"/>
	<polygon class="creative1" points="609,578 634,606 636,607 638,607 642,605 646,602 646,600 644,596 633,582 623,568 619,565 
		618.6,568.1 617.8,570.5 616.5,572.7 614,576 	"/>
	<polygon class="creative1" points="721,505 726.9,532.8 753.2,543.7 728.6,557.9 726.4,586.2 705.3,567.3 677.6,573.9 689.1,547.9 
		674.3,523.7 702.6,526.6 	"/>
	<polygon class="creative1" points="793,578 791.4,600.3 808.8,614.2 787.2,619.6 779.3,640.5 767.5,621.5 745.2,620.5 759.6,603.4 
		753.7,581.9 774.4,590.3 	"/>
	<polygon class="creative1" points="651,516 652.9,523.6 660.2,526.3 653.6,530.5 653.2,538.3 647.3,533.3 639.7,535.3 642.6,528.1 
		638.3,521.6 646.1,522.1 	"/>
	<polygon class="creative1" points="669,579 674.9,592.4 689.2,595.2 678.3,604.9 680.1,619.4 667.5,612 654.3,618.2 657.4,603.9 
		647.4,593.3 661.9,591.8 	"/>
	<polygon class="creative1" points="578,565 581.7,574.7 591.7,577.1 583.6,583.6 584.4,593.9 575.8,588.3 566.2,592.2 568.9,582.2 
		562.2,574.3 572.6,573.8 	"/>
	<polygon class="creative4" points="622,602 628.6,619.1 646.4,623.4 632.2,634.9 633.6,653.2 618.3,643.3 601.3,650.3 606,632.6 
		594.1,618.6 612.4,617.6 	"/>
</g>
</svg>
