<?xml version="1.0" encoding="utf-8"?>
<!-- Generator: Adobe Illustrator 21.0.1, SVG Export Plug-In . SVG Version: 6.00 Build 0)  -->
<svg version="1.1" id="Layer_2" xmlns="http://www.w3.org/2000/svg" xmlns:xlink="http://www.w3.org/1999/xlink" x="0px" y="0px"
	 viewBox="0 300 1280 1280" style="enable-background:new 0 0 1280 1280;" xml:space="preserve">
<style type="text/css">
	.gulp0{fill:#650F24;}
	.gulp1{fill:#900D11;}
	.gulp2{fill:#E80151;stroke:#D61F3F;stroke-width:9;stroke-miterlimit:10;}
	.gulp3{fill:#FFFFFF;}
	.gulp4{fill:#FFD0A2;}
	.gulp5{fill:#7E0001;}
</style>
<path class="gulp0" d="M328,784.7l-8.8-5c-1.7-1.1-4.2-2.6-7.3-4c-5.2-2.3-9.3-3.1-16-4.3c-8-1.4-12.1-2.1-17.3-1.3
	c-3.9,0.6-7.5,1.2-9.8,4.3c-2.3,3-2,6.9-1.8,9.8c0.2,2.4,0.9,6,3.3,10c1.6,2.8,3.4,4.7,14.3,12.8c7.7,5.7,11.7,8.7,17.3,12
	c4.1,2.5,7.7,4.4,10.5,5.8l15.5-34.8V784.7z"/>
<path class="gulp0" d="M941,835.9c1.3-0.4,3.1-1.1,5.3-2c0.9-0.4,4.4-1.8,6.5-3c2.1-1.2,5.7-3.7,9-9.3c2-3.9,8.6-2.7,12-1.3
	c2.6,1.1,4.3,7.9,10,11.3c8.5,5.1,14.2,10.3,15.8,11.8c7,6.5,11.3,10.6,14,17.8c2.9,7.8,2.2,14.7,1.8,18c-0.5,3.9-1.4,10.7-6.3,17.3
	c-3.4,4.5-7,6.8-12.3,10c-2.6,1.6-9.1,5.3-18.3,7.8c-9,2.4-16.1,2.3-18.3,2.3c-2.2-0.1-50.7-0.9-34.5,0.2c2,0.1,7.8-3.6,8-5.6
	l11.8-26.6L941,835.9z"/>
<path class="gulp1" d="M295.5,470.5L411,343c0.7,1.2,1.7,2.9,3,5c17.1,26.3,45.5,36.8,67.5,43.5c46.1,14.1,81.6,25,135.5,25.5
	c79.3,0.8,136.6-21.5,149-26.5c37.3-15,65.4-33.5,84-47.5l116,127.5c-0.8,1.2-2.1,2.9-3.5,5c-6.9,10-32.7,48.5-42,95
	c-11.5,57.2,5.8,107.6,13.5,127l6.5,16.5c1.9,6.6,4.6,16.3,7.5,28c2.6,10.5,6.3,25.9,8,35c7.8,41.3,0.1,79.5-1.5,87
	c-2,9.5-6.8,28.7-17.5,51c-6.1,12.7-15.6,32-34.5,52c-5.5,5.8-24.2,24.8-53.5,39c-11.6,5.6-24,10.1-44.5,17.5
	c-12.8,4.6-19.4,6.6-32.5,12c-15.6,6.4-26.5,11.8-29,13c-14.7,7.3-25.8,14-31.5,17.5c-7.5,4.7-19.1,11.9-33,23
	c-8.8,7.1-14.4,11.5-21,19c-4.3,4.8-11.1,12.6-17,24.5c-4.8,9.8-7.2,18.7-8.5,25c-0.8-1.4-2-3.4-3.2-6c-3.9-8.1-5.3-14.7-5.8-16.5
	c-2.4-9.4-9.6-17.5-18-27c-9.2-10.4-19.9-19.5-38.5-32c-20.2-13.6-36.8-24.8-61.5-35c-23.3-9.7-28.6-8.1-63-22
	c-14.7-5.9-22-8.9-31.5-14c-11.4-6.1-33.5-18.2-54.5-41.5c-23.4-25.9-33.1-52-38.5-67c-2.5-6.9-9-26.1-12-52
	c-2.6-22.7-1.2-39.8,0-54.5c2.5-29.8,3.8-44.8,12-62c3.5-7.3,8.1-14.9,13.5-29.5c1.2-3.2,4.5-12.5,7.5-25c2.2-9.4,7.1-32.3,6.5-62.5
	c-0.6-28.8-5.8-50.2-7-55c-4.1-16.4-12.1-40.4-28.5-66.5L295.5,470.5z"/>
<path class="gulp2" d="M317,478.7l97-109.6c0.6,1.1-1.3-1.9,0,0c16,24.7,56.5,39.1,77.1,45.4c43.1,13.2,76.4,23.4,126.8,23.9
	c74.2,0.7,127.8-20.1,139.4-24.8c34.9-14,70.6-35.1,88-48.2l102,108c-0.8,1.1,1.4-2,0,0c-6.4,9.4-36.7,65.1-45.4,108.7
	c-10.7,53.6,5.4,100.7,12.6,118.9l6.1,15.4c1.8,6.2,4.3,15.2,7,26.2c2.5,9.8,5.9,24.2,7.5,32.8c7.3,38.7,0.1,74.4-1.4,81.4
	c-1.9,8.9-6.3,26.8-16.4,47.7c-5.7,11.9-14.6,30-32.3,48.7c-5.2,5.4-22.7,23.2-50.1,36.5c-10.8,5.2-22.4,9.4-41.6,16.4
	c-12,4.3-18.1,6.2-30.4,11.2c-14.6,6-24.8,11-27.1,12.2c-13.8,6.8-24.1,13.1-29.5,16.4c-7.1,4.4-17.9,11.1-30.9,21.5
	c-8.3,6.6-13.4,10.8-19.7,17.8c-4,4.5-8.5,6.8-14,17.9c-4.5,9.2-11.6,20.4-12.8,26.3c-0.8-1.3-2.4-10.3-3.5-12.7
	c-3.6-7.6-6.2-12.4-6.2-12.4s-4.7-10.3-12.6-19.2c-8.7-9.7-18.6-18.2-36-29.9c-18.9-12.7-34.5-23.2-57.6-32.8
	c-21.8-9-26.8-7.6-59-20.6c-13.7-5.5-20.6-8.3-29.5-13.1c-10.6-5.7-31.3-17.1-51-38.8c-21.9-24.2-31-48.7-36-62.7
	c-2.3-6.5-8.5-24.4-11.2-48.7c-2.4-21.2-1.2-37.3,0-51c2.4-27.9,3.5-41.9,11.2-58c3.3-6.8,7.6-14,12.6-27.6c1.1-3,4.2-11.7,7-23.4
	c2.1-8.8,6.6-30.3,6.1-58.5c-0.5-26.9-5.4-47-6.6-51.5c-3.9-15.3-11.3-37.8-26.7-62.2L317,478.7z"/>
<g id="g">
	<path class="gulp3" d="M654.1,1017.6c-11.8,1.9-23.6,2.5-35.5,1c-6.8-0.9-10.9-4.1-12.9-11.1c-6.8-23.9-14.2-47.6-21.2-71.4
		c-1-3.5-3-6.8-5.6-9.3c-5.8-5.7-11.3-11.7-17.4-18.1c61,3.4,117.3-9.6,170.8-39.4c-2.3,7.4-4.1,14.3-6.5,21
		c-1.4,4-1.5,7.9-0.8,12.1c4.5,25.6,8.7,51.3,13.2,77c0.9,5.3-0.9,8.8-4.8,11.8c-8.7,6.7-18.8,10.9-29,14.7c-2,0.8-4.7,0.3-5.8,2.8
		l-30.8,7.1C663.1,1014.9,658.8,1017.9,654.1,1017.6z"/>
	<path class="gulp3" d="M662.8,453.6c16.5,8.1,16.5,8.1,7.1,23.9c-11.9,20.1-23.7,40.2-35.7,60.2c-1.9,3.2-2.8,6.3-2.5,10.3
		c0.6,10.8,0.1,21.7-0.8,32.5c-0.5,6.1,1.5,6.4,6.2,5.6c16.9-2.9,33.9-5,51.1-4.8c2.3,0,4.6-0.1,6.8,0.3c3.7,0.7,9,0,10,4.3
		c1.2,4.9-4.4,6.8-7.7,8.9c-4,2.4-8,4.7-12.3,6.4c-47.8,19.4-97.6,31-148.2,39.5c-18.5,3.1-37.1,5.6-55.9,5.2
		c-3.6-0.1-7.3-0.4-10.8-1.3c-5.9-1.5-6.7-4.6-2.1-8.4c3.1-2.6,6.7-4.7,10.4-6.6c19-9.7,39.4-16,59.8-21.8c22-6.3,44-12.4,66.7-16
		c4.1-0.6,5.1-2.5,5.1-6.4c0-14.2,0.4-28.3,0.4-42.5c0-4.3,1.2-7.9,3.4-11.6c15.1-25.5,30-51,44.9-76.6
		C660.2,454.4,661.2,454.1,662.8,453.6z"/>
	<path class="gulp3" d="M724.4,758.8c1.9,9,1.3,13.4,2.1,19.5c1.8,15.7,3.6,31,5.3,46.3c1,9.1,1.8,18.2,3.2,27.2
		c0.7,4.3-0.9,6.8-4.1,9.2c-12.8,9.9-27.1,17-42.2,22.3c-34.7,12.2-70.2,20.5-107.3,19.9c-8.5-0.1-17.2-0.3-25-3.6
		c-9-3.8-7.9-14-10.7-21.5c-6.8-18.2-19.1-55-19.1-55s1.1-5.3,0,0c-14.7-43.2-44.1-129.3-57.8-169.6c82.6-4,161.4-21.8,236.9-54.8
		c1.7,14.7,3.6,31,5.4,47.3c3.5,30.9,7,61.7,10.8,92.6C722.5,742.8,723.7,755.3,724.4,758.8z"/>
	<path class="gulp4" d="M617.6,615.2c-4.1,1.1-7.8,2.2-11.8,1.7c-1.6-0.2-3.4-0.9-3-3c0.6-3.1,2.2-0.5,3.4-0.5
		c7.6-0.1,15.1-1.1,21.2-5.8c1.3-1,1.9-2.7,3.4-1c1.7,1.9,0.3,3.4-1.5,4.3C625.6,612.9,621.6,614.5,617.6,615.2z"/>
</g>
<path class="gulp5" d="M1010.9,855.9c0.7-0.6,0.4-3.2-6.1-13.9l-21.8-60l-15.3-38.5c-1.3-0.9-3.3-2.3-5.8-3.8
	c-3.5-2.1-16.7-10.1-38.5-16c-14.6-4-25.9-5.1-37-6.3c-12.6-1.3-22.2-1.4-28.8-1.5c-26-0.3-45.2,2.2-49.5,2.8
	c-5.4,0.7-12.6,1.8-31.8,6c-26.4,5.7-42.4,9.2-64,15.5c-30,8.8-52.2,17.5-71,25c-11.9,4.7-23.9,9.5-39.5,16.8
	c-8.2,3.8-11.6,5.7-22.8,10.8c-15,6.9-26.4,11.6-29.8,13c-14.2,5.9-23.5,9.7-36.5,14c-13.9,4.6-24.6,7.2-34,9.5
	c-12.5,3.1-23.8,5.8-39.3,8c-2.7,0.4-14.2,2-30,2.8c-17.3,0.9-33,1.7-52.8-1.5c-7.7-1.2-18.7-3.5-31.8-8l-11-4.3l-13.4-7.9l-12-8.3
	l-18.3-15.8l-3.3-10l0.9-8.3l-39.9,96.3c-0.1,0.8-0.2,2,0,3.5c0.8,6.6,6.3,10.9,8.5,12.8c14.4,11.7,11,13.3,26.2,23.8
	c3.6,2.5,17.4,11.6,40.5,20c4.4,1.6,21.3,7.5,47.8,11.8c8.8,1.4,40,6,82.8,3c24.8-1.7,43-5.3,59.3-8.5c38-7.5,66.1-17,86.5-24
	c30.3-10.4,53.8-20.4,82.8-32.8c24.9-10.6,26.9-12.2,47.3-20.5c20.3-8.3,41.7-17.1,70-25.8c48.2-14.8,82.5-19.1,92.8-20.3
	c19.9-2.3,33.1-2.4,45-1.8c19.1,1.1,32.5,1.8,47.5,8.3C993.3,833.8,1008.4,857.9,1010.9,855.9z"/>
<g>
	<path class="gulp3" d="M559.7,857.1c5.5-1.7,11-3.5,16.5-5.2c1.1-0.4,1.8-0.4,2.3,1c2.3,6.8,3.9,13.8,3.2,21
		c-1,12-7.2,20.7-17.8,26.2c-8.9,4.6-18.3,7.2-28.5,5c-12.2-2.6-20.8-10-25.9-21.2c-5-10.9-5.2-22,0.3-32.8
		c5.5-10.8,14.8-16.9,26.4-19.7c11-2.7,21.2-1,30.5,5.5c1.7,1.2,1.6,1.8,0.1,3.1c-3.7,3.2-7.2,6.6-10.8,10c-0.9,0.8-1.4,1-2.5,0.3
		c-7-4.6-14.1-4.3-20.9,0.1c-6.7,4.4-8.4,11.1-7.3,18.6c0.8,5.8,2.8,11.1,6.7,15.5c6.2,7,13.4,7.2,20.5,4.6c4.6-1.7,8.4-4.5,10.6-9
		c1.1-2.2,1.5-4.5,1.4-6.9c0-1.5-0.5-1.7-1.8-1.2c-4.9,1.6-9.8,3-14.7,4.7c-1.6,0.6-2.5,0.4-3-1.4c-1-3.6-2.1-7.1-3.3-10.5
		c-0.5-1.4-0.1-1.9,1.2-2.3C548.7,860.6,554.2,858.8,559.7,857.1z"/>
	<path class="gulp3" d="M750.5,796.3c1,2.5,1.8,4.5,2.5,6.5c2.1,6.2,4.1,12.4,6.2,18.5c0.4,1.2,0.4,1.9-1,2.3c-4.1,1.3-8.1,2.6-12.2,4
		c-1.2,0.4-1.7,0.2-2.2-1c-6.9-20.8-13.8-41.6-20.8-62.5c-0.3-0.9-0.3-1.5,0.8-1.9c4.1-1.3,8.1-2.6,12.2-4.1c1.1-0.4,1.5,0,1.8,1
		c0.6,1.9,1.2,3.7,1.8,5.5c0.6-0.1,0.6-0.5,0.7-0.8c2.6-7.9,8-12.5,16.2-13.7c7.9-1.1,14.4,1.7,19.2,8c5.6,7.3,8.2,15.6,7,24.8
		c-1.4,10.9-10.6,18.4-21.6,18c-3.1-0.1-5.8-1.3-8.4-3.1C752.2,797.5,751.6,797,750.5,796.3z"/>
	<path class="gulp3" d="M663.9,814.7c1.9,5.8,4.8,12.6,6.9,19.8c2.7,9.7-1.2,21.5-11.2,28.2c-7.9,5.3-16.5,8.6-25.9,9.2
		c-10.5,0.7-21.2-2.4-27.2-17.2c-4.9-12.1-9.2-24.4-13.9-36.6c-0.4-1.1-0.4-1.8,0.9-2.2c5.9-2.1,11.8-4.3,17.7-6.6
		c2-0.8,2,0.7,2.5,1.8c3.9,10.3,7.7,20.7,11.5,31c1,2.6,2.2,5.1,4,7.4c3.1,4,7.3,4.9,12.5,2.8c5.3-2.2,7.6-5.5,7.1-10.6
		c-0.2-2.1-0.6-4.2-1.4-6.2c-4-10.7-7.9-21.4-12-32.1c-0.8-2.1-0.5-3,1.7-3.7c5.3-1.8,10.6-3.8,15.8-5.9c2.2-0.9,3.1-0.7,4,1.7
		C658.8,801.5,661.2,807.4,663.9,814.7z"/>
	<path class="gulp3" d="M691.7,811.4c-3.8-10.7-7.6-21.4-11.5-32c-0.6-1.6-0.6-2.4,1.3-3c4.1-1.3,8.1-2.8,12.1-4.3
		c1.2-0.5,1.7-0.2,2.1,1c7.8,21.8,15.5,43.5,23.4,65.3c0.4,1.2,0.1,1.7-1,2.1c-4.1,1.4-8.2,2.9-12.3,4.4c-1.5,0.6-2,0.2-2.5-1.2
		C699.4,832.9,695.6,822.1,691.7,811.4z"/>
	<path class="gulp5" d="M765.3,773.8c2.7,8-0.9,14.2-9,15.5c-4.6,0.8-8.9-1.8-11-6.6c-0.6-1.5-1.2-3-1.4-4.6c-1-6.7,2.1-11,9-12.6
		C758.4,764.3,763.2,767.5,765.3,773.8z"/>
</g>
</svg>
