<?xml version="1.0" encoding="utf-8"?>
<!-- Generator: Adobe Illustrator 21.0.1, SVG Export Plug-In . SVG Version: 6.00 Build 0)  -->
<svg version="1.1" xmlns="http://www.w3.org/2000/svg" xmlns:xlink="http://www.w3.org/1999/xlink" x="0px" y="0px"
	 viewBox="0 0 1280 1010" style="enable-background:new 0 0 1280 1280;" xml:space="preserve">
<style type="text/css">
	.htmlcss0{fill:#025787;}
	.htmlcss1{fill:#016FBA;}
	.htmlcss2{fill:#016FBA;stroke:#2AA9E0;stroke-width:9;stroke-miterlimit:10;}
	.htmlcss3{fill:#2AA9E0;}
	.htmlcss4{fill:#FEFEFE;}
	.htmlcss5{fill:#269DC6;}
	.htmlcss6{fill:#FFFFFF;}
	.htmlcss7{fill:#E44D37;}
	.htmlcss8{fill:#E44D26;}
	.htmlcss9{fill:#E44D26;stroke:#F16529;stroke-width:9;stroke-miterlimit:10;}
	.htmlcss10{fill:#F16529;}
	.htmlcss11{fill:#FF6C39;}
	.htmlcss12{fill:#FAFEFF;}
</style>
<g id="CSS">
	<g id="Armor">
		<path id="L" class="htmlcss0" d="M1148.4,701.8c3.1,1.1,7.4,2.9,12.1,5.8c3.5,2.1,6.5,4,9.7,7.3c3.4,3.6,5.1,7,7.6,12
			c2.4,4.8,3.6,7.2,3.9,10.2c0.6,5.6-1.5,10-2.9,12.8c-1.6,3.4-3.1,6.4-7.8,11.7c-5,5.6-8.5,8.2-11.5,9.8c-3,1.6-6.3,2.2-13.1,3.3
			c-3.5,0.6-8.8,1.4-15.8,1.6c-6.9,0.2-12.1-0.3-17.4-0.8c-4.1-0.4-10.5-1.5-13-1.9L1148.4,701.8z"/>
		<path id="R" class="htmlcss0" d="M696.9,768.9c-3.1,0.2-7.9,0.6-13.7,1.1c-15.6,1.4-16,1.9-20,1.7c-9.1-0.3-15.6-3.3-25.1-7.7
			c-9.5-4.4-14.5-6.7-18.9-12.5c-1.7-2.3-5.7-7.8-5.8-15.7c0-6.9,3-11.8,4.1-13.5c2.5-4,5.9-6.5,12.9-11.6c4.3-3.2,6.9-5,10.8-6.9
			c1.6-0.7,4.4-2,13.3-4.2c4.1-1,9.6-2.3,16.3-3.6L696.9,768.9z"/>
		<path id="_x31_" class="htmlcss1" d="M683.9,301.6c8.8,1.4,21.3,3,36.3,4c19.7,1.3,33.8,0.9,59.9,0c19.3-0.7,39.1-1.4,65.9-3.8
			c15.8-1.4,34.5-3.2,59.4-7.3c22.9-3.8,42.4-8.2,57.4-11.9c9.2-2.3,17.1-4.5,23.1-6.2c1.9,1.7,4.5,4.1,7.7,6.9
			c5.6,4.8,11.1,9.4,19.2,15.7c7.3,5.6,17.5,13.6,31.9,23.6c4.9,3.5,15.9,11.1,30.5,20.3c16.3,10.3,28.6,17.1,42.9,25.1
			c21.3,11.9,37.7,20.2,43.3,23.1c27.4,13.9,21.4,9.5,40.1,19.3c7.7,4,18,9.6,33.1,13.6c4.1,1.1,10.2,3.4,12.6,3.8l-0.9,3.9
			c-0.1,0.3-3.2,14.4-3.3,14.7c-6,26.7-6.1,27.3-6.4,28.5c-4,17.8-8.5,32.7-12.3,45.7c-3.7,12.6-8.1,25.6-16.6,51
			c-10.1,30.1-15.1,45.1-17.8,51.7c-9.3,23.2-18.2,39.7-27,55.9c-3.9,7.3-16,29.4-34.5,57.3c-8.7,13.1-18.7,28.2-33.1,46.3
			c-15.3,19.2-40.3,47.7-76,76.9c-29.5,24.1-54.2,38.8-60,42.3c-33.9,20-63.3,31.3-79.5,36.9c-14.8,5.1-28.4,10.3-39,12.9
			c-2,0.5-3.6,0.4-5.4,0.9c-2.8-1.2-6.5-4-10.9-6.6c-3.7-2.2-8.6-5.4-14.2-10.4c-21.2-18.8-39.9-43-39.9-43
			c-19.1-24.7-28.6-37.1-39.4-54.2c-11.4-18-32.8-52.2-49.6-100.9c-16-46.1-20.3-83.4-23.8-114.7c-4-36.2-4-63.7-3.9-88.6
			c0.1-54,4.7-94.4,6-105c3.7-31.7,10.2-71.2,21.8-115.8L683.9,301.6z"/>
		<path id="_x32__1_" class="htmlcss2" d="M699,322.5c8.2,1.3,19.8,2.8,33.8,3.7c18.4,1.2,31.5,0.8,55.9,0c18-0.6,36.5-1.3,61.5-3.6
			c14.7-1.3,32.2-3,55.5-6.8c21.4-3.5,39.6-7.6,53.5-11.1c8.6-2.2,15.9-4.2,21.5-5.8c1.8,1.6,4.2,3.8,7.2,6.4
			c5.2,4.5,10.4,8.7,17.9,14.6c6.8,5.3,16.3,12.7,29.7,22.1c4.6,3.2,14.9,10.3,28.5,18.9c15.2,9.6,26.7,16,40,23.4
			c19.9,11.1,35.1,18.9,40.4,21.6c25.5,13,19.9,8.9,37.4,18c7.2,3.8,16.7,9,30.9,12.7c3.8,1,9.5,3.2,11.7,3.6l-0.8,3.7
			c-0.1,0.3-3,13.5-3.1,13.8c-5.6,24.9-5.7,25.4-6,26.6c-3.8,16.6-7.9,30.5-11.5,42.7c-3.5,11.8-7.5,23.9-15.5,47.6
			c-9.4,28-14.1,42.1-16.6,48.3c-8.7,21.7-17,37.1-25.2,52.1c-3.7,6.8-15,27.4-32.2,53.5c-8.1,12.2-17.4,26.3-30.9,43.2
			c-14.3,17.9-37.6,44.5-71,71.7c-27.5,22.5-50.5,36.2-56,39.4c-31.7,18.6-59,29.2-74.2,34.4c-13.8,4.8-26.5,9.6-36.4,12.1
			c-1.9,0.5-3.3,0.4-5,0.8c-2.6-1.1-6.1-3.7-10.2-6.1c-3.5-2.1-8-5.1-13.2-9.7C797,896.6,779.6,874,779.6,874
			c-17.8-23.1-26.7-34.6-36.8-50.6c-10.6-16.8-30.6-48.7-46.3-94.2c-14.9-43-19-77.8-22.2-107.1c-3.8-33.8-3.7-59.4-3.6-82.7
			c0.1-50.4,4.4-88.1,5.6-97.9c3.5-29.6,9.5-66.4,20.4-108.1L699,322.5z"/>
		<path id="_x33__1_" class="htmlcss3" d="M712.7,341.6c7.7,1.2,18.6,2.6,31.6,3.5c17.2,1.2,29.5,0.8,52.2,0c16.8-0.6,34.1-1.2,57.4-3.3
			c13.7-1.3,30.1-2.8,51.8-6.4c20-3.3,37-7.1,50-10.4c8.1-2,14.9-3.9,20.1-5.4c1.6,1.5,4,3.6,6.8,6c4.9,4.2,9.7,8.2,16.7,13.7
			c6.3,4.9,15.3,11.9,27.8,20.6c4.3,3,13.9,9.7,26.6,17.7c14.2,9,24.9,14.9,37.4,21.9c18.6,10.4,32.8,17.7,37.8,20.2
			c23.9,12.1,18.6,8.3,34.9,16.8c6.7,3.5,15.7,8.4,28.8,11.9c3.5,0.9,8.9,3,10.9,3.4l-0.8,3.4c-0.1,0.3-2.8,12.6-2.9,12.9
			c-5.2,23.3-5.3,23.8-5.6,24.9c-3.5,15.5-7.4,28.5-10.7,39.9c-3.3,11-7,22.3-14.5,44.5c-8.8,26.2-13.2,39.3-15.5,45.1
			c-8.1,20.2-15.9,34.6-23.5,48.7c-3.4,6.4-14,25.6-30.1,50c-7.6,11.4-16.3,24.6-28.8,40.3c-13.3,16.7-35.2,41.6-66.3,67
			c-25.7,21-47.2,33.8-52.4,36.9c-29.6,17.4-55.2,27.3-69.3,32.2c-12.9,4.5-24.8,9-34,11.3c-1.7,0.4-3.1,0.4-4.7,0.8
			c-2.5-1-5.7-3.5-9.5-5.7c-3.2-1.9-7.5-4.7-12.4-9.1C804.3,878.2,788,857,788,857c-16.6-21.6-24.9-32.3-34.4-47.3
			c-9.9-15.7-28.6-45.5-43.3-88c-13.9-40.2-17.7-72.7-20.8-100.1c-3.5-31.6-3.5-55.5-3.4-77.3c0.1-47.1,4.1-82.3,5.2-91.5
			c3.3-27.7,8.9-62.1,19-101L712.7,341.6z"/>
	</g>
	<g id="_x33_">
		<path id="_x33__5_" class="htmlcss4" d="M806.4,655.4c5.2,18.5,13.1,34.4,27.3,46.3c16.8,14.1,36.3,21.4,58.3,20.5
			c38.1-1.5,61.5-38.4,48-75.2c-8.3-22.6-25.1-36.5-46.4-45.5c-8.9-3.8-18.5-5.3-27.8-7.5c-5.2-1.2-5.2-1.2-1.6-5.5
			c22.9-26.6,45.8-53.2,68.7-79.9c1.3-1.5,2.9-2.7,3.7-5.5c-1.7-0.4-3.4-0.8-5.1-1.1c-28.5-6.4-60.5-13.4-89-19.6
			c-3.9-0.8-9.5-2.3-8.5-6.5c6.1-26.2,12.4-54.6,18.1-80.9c0.8-3.5,5.5-2.5,9.4-1.6c78.4,17.7,160.3,36,238.7,53.6
			c0.8,0.2,1.6,0.4,2.6,0.7c-0.4,2.2-2.1,3.4-3.3,4.8c-32.3,37.6-64.6,75.2-97,112.6c-3,3.4-2.4,5,0.4,7.9
			c24.1,24.5,39.9,53.3,41,88.7c1.8,63.2-36.9,125.5-104.4,144.4c-64.5,18-120.4,0.3-168.7-44.6c-9.4-8.7-17.6-18.6-25.1-29.2
			c-1.3-1.8-2.4-3.3-0.4-5.7C765.4,703.3,785.6,679.7,806.4,655.4z"/>
	</g>
	<g id="Line">
		<path id="_x31__1_" class="htmlcss5" d="M1177.3,752.7l-4.7,7.2l-11.5,9.8c-2.2,0.6-5.2,1.4-8.7,2.2c-2.4,0.5-9.2,2-16.1,2.6
			c-6.1,0.5-12.1,0.4-21.5-0.7c-14.1-1.7-26-4.4-35.6-6.9c-22.9-6-39.8-12.5-43.3-13.8c-16-6.2-26.8-11.6-44-20.2
			c-23.8-11.9-41.7-22.2-48.8-26.4c-25.1-14.7-24.2-16-50.6-32c-16.1-9.7-21.5-12.3-57.7-32.5c-11.9-6.6-22.4-12.6-31.2-17.6
			c-11.2-6.4-23.3-11.1-35.9-14c-0.4-0.1-0.7-0.2-1.1-0.3c-24.7-5.8-28.5-7.5-39.1-9.8c-9.5-2-30.8-6.4-57-3.5
			c-13.8,1.6-24.7,2.9-36.4,10.4c-11.9,7.6-18.5,17.8-21.9,24l2.4,97.3c1.4-2.8,3.8-6.3,8.1-10.4c10.8-10.3,23.2-14.1,31.6-16.7
			c8.2-2.5,14.6-3.4,16.3-3.6c9.1-1.2,19.9-1.3,45.5,4c15.3,3.2,28.8,6,46.7,12.5c17.4,6.3,29,12.5,46.7,21.8
			c20.4,10.8,35.4,20.2,48.3,28.4c25.1,15.8,27.1,18.7,46.7,31.1c7,4.4,30.2,19,61.4,34.4c43.2,21.3,70.6,28.9,78.7,31
			c15.8,4.2,36,8.4,58,3.7c16.3-3.5,23.8-9.7,28-14.4c4.7-5.3,7.2-10.8,8.4-14.6l41.5-88.7L1177.3,752.7z"/>
	</g>
	<g id="word">
		<path id="s_4_" class="htmlcss6" d="M841.4,724.3c8.1,4.6,16.2,9.3,24.5,13.9c5.6,3.2,11.3,6.3,16.8,9.6c5.2,3.1,6.5-1.8,8.4-4.5
			c2.2-3.1,0.1-5.3-2.8-6.9c-13.3-7.4-26.4-15.1-39.7-22.5c-2.9-1.6-4.1-3.4-2.2-6.5c6.7-11.2,13.3-22.4,19.9-33.8
			c2.2-3.9,4.7-4.6,8.5-2.4c15.2,8.8,30.5,17.5,45.7,26.2c5.3,3,10.4,6.1,15.7,9.1c1.8,1.1,3.6,1.9,2.2,4.5
			c-2.7,4.5-5.5,9.1-8.1,13.6c-1.7,2.9-3.7,3.5-6.8,1.8c-13.4-7.7-26.8-15.2-40.3-22.8c-2.2-1.2-4.3-3.3-7-2.1
			c-2.1,0.8-3.2,2.8-3.7,5.1c-0.6,2.7,1.7,3,3.4,4c14.2,8.2,28.4,16.4,42.6,24.6c3.6,2.1,3.5,4.6,1.5,7.8
			c-5.7,9.7-11.4,19.5-16.9,29.4c-3.5,6.3-4.6,7-10.9,3.5c-15.9-9-31.8-18.2-47.7-27.5c-4.4-2.5-8.8-5.1-13.2-7.5
			c-1.4-0.8-3.1-1.6-2.1-3.5c2.2-4.1,4.5-8.2,7.1-12.1C837.5,723.3,839.5,723.2,841.4,724.3z"/>
		<path id="s_1_" class="htmlcss6" d="M918.6,790.1c2.3-4.3,4.1-8.1,6.2-11.6c1.5-2.4,3.7-1.5,5.6-0.5c10.1,5.2,20.1,10.5,30.1,15.8
			c4.1,2.2,8.3,4.3,12.4,6.6c3.6,2,4.6-0.8,5.4-3.2c0.8-2.4,5.7-4.7,0.6-7.5c-9.7-5.4-19.5-10.7-29.3-16c-4.3-2.3-8.7-4.5-13-6.6
			c-3.8-1.8-3.1-4.5-1.7-7.4c4.8-9,9.6-17.9,14.4-26.8c0.1-0.2,0.2-0.3,0.4-0.4c7.7-12.3,7.6-12,20.5-4.8
			c16.9,9.4,34,18.3,51.2,27.2c4,2.1,5.8,4.4,3.4,8.8c-2.4,4.2-4.6,8.7-6.7,13c-1.4,2.8-3.4,2-5.4,0.9c-14.5-7.7-29-15.3-43.4-23
			c-2.7-1.4-5-3.4-7.2,0.8c-2,3.7-0.7,6,2.4,7.7c11.5,6.3,22.9,12.7,34.6,18.5c12.7,6.3,13.1,7,6.2,19.3
			c-4.9,8.7-9.7,17.4-14.2,26.3c-1.5,3-2.9,3.4-6,1.8c-20.6-11-41.4-22-62.1-32.9C920.1,794.6,917.3,793.2,918.6,790.1z"/>
		<path id="c_2_" class="htmlcss6" d="M834.8,674.9c-5.4-2.3-10.8-4.6-16.1-7.1c-8.8-4.1-17.6-8.4-26.4-12.7c-2.7-1.4-4.9-1.6-6.4,1.4
			c-4.2,8.6-8.5,17.1-12.6,25.8c-1.8,3.7,1.5,5,3.8,6.1c8.7,4.3,17.7,8.3,26.5,12.5c4.6,2.2,9.3,4.1,13.8,6.4
			c3.2,1.6,5.5,3.5,2.4,7.7c-2,2.5-2.7,6-4.1,9c-1.6,3.3-3.7,3.9-7.1,2.2c-20.8-9.9-41.6-19.9-62.5-29.4c-4.6-2.1-3.9-4.7-2.5-8
			c5.5-11.9,11.2-23.6,16.7-35.5c4.3-9.1,8.9-18.2,12.9-27.6c2-4.5,3.8-5.3,8.3-3.1c20.3,9.6,40.8,18.8,61.1,28.3
			c4.5,2,6.2,4.7,2.9,9.6c-2.5,3.7-4,8-6,12C838.6,674.6,837.2,675.7,834.8,674.9z"/>
	</g>
</g>
<g id="html">
	<g id="armor">
		<path id="L_1_" class="htmlcss7" d="M716.5,586.1c3.8-0.4,9.1-0.7,15.4-0.1c4.7,0.4,8.7,0.8,13.7,2.6c5.4,2,8.8,4.6,13.9,8.5
			c4.9,3.7,7.4,5.6,9.2,8.5c3.4,5.4,3.5,11,3.5,14.6c0,4.4,0.1,8.1-2.1,15.9c-2.3,8.3-4.6,12.7-6.9,15.9c-2.2,3.1-5.4,5.4-11.8,10
			c-3.3,2.4-8.3,5.9-15.5,9.6c-6.9,3.7-12.5,5.8-18.3,7.9c-4.4,1.7-11.6,3.7-14.3,4.6L716.5,586.1z"/>
		<path id="R_1_" class="htmlcss7" d="M286,882.8c-3.1,1.8-7.8,4.5-13.5,8c-15.3,9.2-15.5,10-19.7,11.8c-9.5,4.2-17.7,4.5-29.7,4.8
			c-12,0.3-18.3,0.5-25.7-3.3c-2.9-1.5-9.8-5.1-13.9-13.3c-3.5-7-2.9-13.6-2.6-16c0.5-5.3,2.8-9.7,7.4-18.4
			c2.9-5.4,4.5-8.6,7.7-12.5c1.2-1.5,3.5-4.2,11.6-11.1c3.7-3.1,8.7-7.2,14.9-11.9L286,882.8z"/>
		<path id="_x31__3_" class="htmlcss8" d="M37,408.8c9.8-3.1,23.4-7.7,39.3-14.2c21-8.6,35.2-16.1,61.5-30.2
			c19.5-10.4,39.5-21.1,65.8-37.1c15.5-9.4,33.9-20.7,57.4-37.5c21.7-15.5,39.5-29.8,53-41.2c8.3-7,15.3-13.2,20.6-18
			c2.8,0.8,6.7,1.9,11.4,3.2c8.2,2.2,16.1,4,27.6,6.4c10.3,2.1,24.9,5.2,44.7,8.3c6.8,1.1,22,3.3,41.6,5.4c22,2.3,38,3.2,56.7,4.2
			c27.9,1.5,48.9,1.8,56.2,1.9c35.1,0.5,26.8-1,50.9-0.4c10,0.3,23.3,0.8,40.9-2.7c4.7-0.9,12.2-1.6,14.8-2.4l1.1,4.5
			c0.1,0.3,4,16.5,4,16.8c7.3,30.4,7.5,31.1,7.8,32.5c4.8,20.4,7.8,37.9,10.4,53.2c2.5,14.9,4.6,30.4,8.7,60.8
			c4.8,36,7.2,54,7.8,62.2c2.1,28.6,1.3,50,0.5,71.1c-0.4,9.5-1.7,38.3-6.6,76.3c-2.3,17.8-5,38.5-10.7,64.2
			c-6.1,27.4-17.4,69.4-39.4,117.4c-18.2,39.7-36.1,67.2-40.4,73.8c-24.8,37.7-49.3,64.1-63.1,78c-12.6,12.7-24.1,24.9-33.6,33
			c-1.8,1.5-3.4,2.2-5.1,3.6c-3.5,0.2-8.7-0.8-14.5-1.3c-4.9-0.4-11.6-1.3-19.8-3.5c-31.3-8.6-62.7-24.1-62.7-24.1
			c-32.1-15.8-48.1-23.7-67.9-35.9c-20.8-12.7-60-37.1-101.9-78.7c-39.7-39.4-63-75.5-82.4-106c-22.4-35.2-36.2-63.5-48.7-89.1
			C96,607.8,80.3,563.9,76.2,552.4c-12.1-34.5-25.4-78.3-36-130.1L37,408.8z"/>
		<path id="_x32__2_" class="htmlcss9" d="M63,422.7c9.1-2.8,21.8-7.1,36.7-13.2c19.6-8,32.8-15,57.4-28.2c18.2-9.7,36.9-19.7,61.4-34.7
			c14.4-8.8,31.6-19.3,53.6-35c20.2-14.4,36.9-27.8,49.4-38.4c7.8-6.6,14.3-12.3,19.2-16.8c2.6,0.8,6.3,1.8,10.7,3
			c7.6,2,15.1,3.8,25.8,6c9.6,2,23.2,4.8,41.7,7.7c6.4,1,20.5,3.1,38.8,5.1c20.5,2.2,35.5,3,53,3.9c26,1.4,45.7,1.7,52.5,1.8
			c32.8,0.4,25-0.9,47.5-0.3c9.3,0.2,21.7,0.8,38.1-2.5c4.4-0.9,11.4-1.5,13.9-2.2l1,4.2c0.1,0.3,3.7,15.4,3.8,15.7
			c6.8,28.4,7,29,7.3,30.3c4.5,19,7.3,35.4,9.7,49.7c2.4,13.9,4.3,28.3,8.1,56.7c4.5,33.6,6.7,50.4,7.3,58c2,26.7,1.2,46.7,0.4,66.3
			c-0.3,8.9-1.6,35.8-6.1,71.2c-2.2,16.7-4.7,35.9-10,59.9c-5.6,25.6-16.3,64.7-36.8,109.6c-16.9,37-33.7,62.7-37.7,68.8
			c-23.2,35.1-46,59.8-58.9,72.8c-11.8,11.9-22.4,23.3-31.4,30.8c-1.7,1.4-3.2,2.1-4.7,3.3c-3.3,0.2-8.1-0.7-13.6-1.2
			c-4.6-0.4-10.8-1.2-18.5-3.3c-29.2-8-58.5-22.5-58.5-22.5c-29.9-14.8-44.9-22.1-63.4-33.5c-19.4-11.9-56-34.6-95.1-73.5
			c-37-36.7-58.8-70.4-76.9-98.9c-20.9-32.8-33.8-59.2-45.4-83.2c-25.3-51.8-39.9-92.8-43.7-103.5c-11.3-32.2-23.7-73.1-33.6-121.4
			L63,422.7z"/>
		<path id="_x33__4_" class="htmlcss10" d="M86.8,435.4c8.5-2.7,20.4-6.7,34.3-12.4c18.3-7.5,30.7-14.1,53.7-26.3
			c17-9.1,34.5-18.4,57.4-32.4c13.5-8.2,29.6-18.1,50.1-32.7c18.9-13.5,34.5-26,46.2-35.9c7.3-6.1,13.4-11.5,18-15.7
			c2.4,0.7,5.9,1.7,10,2.8c7.1,1.9,14.1,3.5,24.1,5.6c9,1.9,21.7,4.5,39,7.2c6,0.9,19.2,2.9,36.3,4.7c19.2,2,33.2,2.8,49.5,3.6
			c24.3,1.3,42.7,1.6,49,1.7c30.7,0.4,23.4-0.9,44.4-0.3c8.7,0.2,20.3,0.7,35.6-2.4c4.1-0.8,10.6-1.4,12.9-2.1l0.9,3.9
			c0.1,0.3,3.4,14.4,3.5,14.7c6.4,26.5,6.5,27.1,6.8,28.4c4.2,17.8,6.8,33,9.1,46.4c2.2,13,4,26.5,7.6,53
			c4.2,31.4,6.3,47.1,6.8,54.2c1.8,24.9,1.1,43.6,0.4,62c-0.3,8.3-1.5,33.4-5.7,66.5c-2,15.6-4.3,33.5-9.3,56
			c-5.3,23.9-15.2,60.5-34.4,102.4c-15.8,34.6-31.5,58.6-35.2,64.3c-21.6,32.8-43,55.9-55,68c-11,11.1-21,21.8-29.3,28.8
			c-1.6,1.3-3,2-4.4,3.1c-3.1,0.2-7.6-0.7-12.7-1.1c-4.3-0.3-10.1-1.1-17.3-3.1c-27.3-7.5-54.7-21-54.7-21
			c-28-13.8-41.9-20.7-59.2-31.3c-18.1-11.1-52.3-32.4-88.9-68.7c-34.6-34.3-54.9-65.8-71.8-92.4c-19.5-30.7-31.5-55.3-42.5-77.7
			c-23.6-48.5-37.3-86.7-40.8-96.7c-10.6-30.1-22.2-68.3-31.4-113.5L86.8,435.4z"/>
	</g>
	<g id="_x35__3_">
		<polygon id="_x35__1_" class="htmlcss6" points="566.5,346.6 177,440.9 251.7,672.5 529,611.7 539.3,709.5 459.9,754.8 367.1,752.2 
			342.8,692.5 267.8,709.8 309,829.3 479.7,837.2 631.1,752 586.4,512 309.1,572.9 284.3,498.1 584,429.1 		"/>
	</g>
	<path id="Line_1_" class="htmlcss11" d="M771.8,623.8l-1.2,9.8l-6.9,15.9c-1.9,1.7-4.6,4-7.9,6.6c-2.2,1.7-8.5,6.7-15.2,10.8
		c-6,3.6-12.2,6.5-22.5,10.1c-15.4,5.4-29,8.6-40.1,10.8c-26.6,5.4-47.2,7.2-51.5,7.6c-19.6,1.7-33.3,1.6-55.4,1.4
		c-30.5-0.2-54.1-1.8-63.5-2.6c-33.2-2.5-32.9-4.3-68.2-7.4c-21.4-1.9-28.3-1.8-75.8-4.3c-15.5-0.8-29.4-1.6-41-2.3
		c-14.8-0.9-29.5,0.4-43.9,3.7c-0.4,0.1-0.8,0.2-1.3,0.3c-28.3,6.5-33.1,6.6-45.1,9.6c-10.7,2.7-34.9,8.9-60.4,25.2
		c-13.4,8.6-23.9,15.4-32.2,29.1c-8.3,13.8-10.1,27.6-10.4,35.7l51.6,98.9c0-3.5,0.7-8.4,3-14.7c5.9-16,16.7-26.2,24.1-33.1
		c7.2-6.7,13.4-10.8,14.9-11.9c8.7-5.8,19.8-11.4,48.9-18.8c17.4-4.4,32.6-8.3,54.4-10.7c21-2.3,36.1-1.8,59-1.1
		c26.5,0.8,46.6,2.9,64,4.8c33.8,3.6,37.3,5.5,63.7,8.4c9.4,1,40.6,4.3,80.5,4.4c55.2,0.1,87.1-5.9,96.6-7.8
		c18.3-3.7,41.3-9.6,61.5-25.4c15-11.8,19.6-22,21.5-28.9c2.2-7.8,1.9-14.8,1.3-19.3l-2-112.2L771.8,623.8z"/>
	<g id="word_1_">
		<path id="l" class="htmlcss12" d="M649.4,798.4c-1,4.5-2.5,5.7-5.5,5.5c-21.6-1.5-43.1-3.1-64.6-4.5c-3.6-0.2-3.5-2.6-3.4-5.1
			c0.5-10.9,1-21.8,1.7-32.7c1.1-16.1,2.7-32.2,3.5-48.3c0.3-5.5,2.3-6.7,7.3-6c5.6,0.8,11.2,1.4,16.9,1.4c5.3,0,6.5,2,6.1,7.2
			c-1.3,16.3-2,32.7-3.4,49c-0.5,5.1,2,6.1,6,6.3c10.5,0.6,21,1.3,31.4,1.7c3.2,0.1,5.2,1,5.1,4.4
			C650.2,785,649.7,792.6,649.4,798.4z"/>
		<path id="m" class="htmlcss12" d="M486.2,748.4c-0.9,12.2-1.8,22.5-2.2,32.9c-0.4,10.1-1.2,11.1-10.9,10.3c-5-0.4-10-0.9-15-1.2
			c-3-0.2-4.3-1.5-4.1-4.7c1.4-17.6,2.7-35.3,4.1-52.8c0.8-9.8,1.7-19.5,2.3-29.3c0.3-3.8,1.7-5.2,5.8-4.7c6.7,0.8,13.5,1,20.3,1.2
			c3.9,0.2,6.4,1.7,8.1,5.3c3.7,7.9,7.8,15.7,11.8,23.4c2.6,4.9,4.5,4.9,8.1,0c5.1-7.1,10.3-14,15.2-21.3c1.5-2.3,3.2-3.3,5.8-3.1
			c7.4,0.6,14.8,1,22.2,1.5c4,0.3,5.7,1.8,5.3,6.2c-1.5,16.5-2.4,33-3.7,49.5c-0.8,10.3-2,20.4-2.5,30.6c-0.2,3.9-1.6,5.8-5.4,5.5
			c-6.8-0.4-13.5-0.8-20.3-1.4c-3.2-0.3-4.9-1.9-4.5-5.8c1.1-10,1.9-20,2.7-30c0.2-2.4,0.9-5.4-1.7-6.4c-2.8-1.1-3.1,2.3-4.3,3.9
			c-4.9,6.5-9.7,13-14.4,19.4c-2.7,3.6-4.5,1.2-5.9-1.2c-4-7.1-7.9-14.1-11.5-21.4C490.2,752.8,488.8,751.2,486.2,748.4z"/>
		<path id="t" class="htmlcss12" d="M438.5,696.5c3.7,0.8,4.3,2.4,4.1,4.7c-0.6,7.2-1.1,14.4-1.5,21.6c-0.2,3.1-1.6,4.2-4.6,3.9
			c-5.2-0.5-10.4-0.7-15.6-1.1c-4.4-0.4-6.9,0.6-7.2,5.8c-0.8,16.6-2.2,33.1-3,49.6c-0.2,4.8-1.4,6.1-6.2,5.5
			c-6.3-0.8-12.6-0.8-19-1c-4.6-0.1-5.8-2.1-5.5-6.7c1.2-16.8,1.9-33.5,3.1-50.3c0.4-4.5-1.3-5.8-5.5-5.7
			c-5.4,0.1-10.9-0.3-16.4-0.5c-3-0.1-5-1.3-4.7-4.8c0.6-7,1-13.9,1.5-20.9c0.2-3.5,1.8-5.3,5.3-5c24.4,1.6,48.7,3.2,73.1,4.8
			C437.6,696.4,438.7,696.5,438.5,696.5z"/>
		<path id="h" class="htmlcss12" d="M279.8,788.5c-5.5-1.4-10.9,0.6-16.3,0.9c-4.7,0.3-6.7-1.6-7.1-6.2c-2.3-26.1-4.8-52.2-7.3-78.2
			c-0.3-3.8,0.2-5.7,4.6-5.9c5.8-0.2,11.8-0.7,17.5-1.9c5-1.1,6.4,1.2,7,5.1c0.7,6.3,1.3,12.6,1.6,19c0.1,4.1,2,5.8,5.6,5.5
			c6.7-0.4,13.5-0.9,20.2-1.7c3.8-0.5,5.7-3.1,4-7.2c1.1-6.2-0.9-12.1-1.2-18.2c-0.2-3.7,0.7-5.5,4.1-5.9c6.3-0.7,12.5-1.4,18.8-1.8
			c3.9-0.2,5.6,1.5,5.9,5.8c2.3,25.8,4.8,51.6,7.4,77.4c0.4,4.6-0.5,6.8-5.6,7c-6,0.2-12.2,1.2-18.2,2.1c-3.1,0.4-4.4-0.9-4.6-3.9
			c-0.7-6.9-1.7-13.9-2.1-20.8c-0.3-4.3-2-5.9-6.1-5.5c-6.3,0.5-12.6,1-18.9,1.4c-4.2,0.3-5.7,2.8-5.4,6.6
			c0.5,5.9,0.4,11.9,1.7,17.6C286.7,785.3,284.5,787.4,279.8,788.5z"/>
	</g>
</g>
</svg>
