<?xml version="1.0" encoding="utf-8"?>
<!-- Generator: Adobe Illustrator 21.0.1, SVG Export Plug-In . SVG Version: 6.00 Build 0)  -->
<svg version="1.1" xmlns="http://www.w3.org/2000/svg" xmlns:xlink="http://www.w3.org/1999/xlink" x="0px" y="0px"
	 viewBox="0 300 1280 1280" style="enable-background:new 0 0 1280 1280;" xml:space="preserve">
<style type="text/css">
	.less0{fill:#787CA0;}
	.less1{fill:#6666CC;}
	.less2{fill:#9999FF;stroke:#CCD0FF;stroke-width:9;stroke-miterlimit:10;}
	.less3{fill:#FFFFFF;}
	.less4{fill:#B6BEFF;}
	.less5{fill:#FEFEFE;}
</style>
<g id="Layer_1">
	<g id="Layer_2">
		<path class="less0" d="M328,784.7l-8.8-5c-1.7-1.1-4.2-2.6-7.3-4c-5.2-2.3-9.3-3.1-16-4.3c-8-1.4-12.1-2.1-17.3-1.3
			c-3.9,0.6-7.5,1.2-9.8,4.3c-2.3,3-2,6.9-1.8,9.8c0.2,2.4,0.9,6,3.3,10c1.6,2.8,3.4,4.7,14.3,12.8c7.7,5.7,11.7,8.7,17.3,12
			c4.1,2.5,7.7,4.4,10.5,5.8l15.5-34.8L328,784.7L328,784.7z"/>
		<path class="less0" d="M941,835.9c1.3-0.4,3.1-1.1,5.3-2c0.9-0.4,4.4-1.8,6.5-3s5.7-3.7,9-9.3c2-3.9,8.6-2.7,12-1.3
			c2.6,1.1,4.3,7.9,10,11.3c8.5,5.1,14.2,10.3,15.8,11.8c7,6.5,11.3,10.6,14,17.8c2.9,7.8,2.2,14.7,1.8,18
			c-0.5,3.9-1.4,10.7-6.3,17.3c-3.4,4.5-7,6.8-12.3,10c-2.6,1.6-9.1,5.3-18.3,7.8c-9,2.4-16.1,2.3-18.3,2.3
			c-2.2-0.1-50.7-0.9-34.5,0.2c2,0.1,7.8-3.6,8-5.6l11.8-26.6L941,835.9z"/>
		<path class="less1" d="M295.5,470.5L411,343c0.7,1.2,1.7,2.9,3,5c17.1,26.3,45.5,36.8,67.5,43.5c46.1,14.1,81.6,25,135.5,25.5
			c79.3,0.8,136.6-21.5,149-26.5c37.3-15,65.4-33.5,84-47.5l116,127.5c-0.8,1.2-2.1,2.9-3.5,5c-6.9,10-32.7,48.5-42,95
			c-11.5,57.2,5.8,107.6,13.5,127l6.5,16.5c1.9,6.6,4.6,16.3,7.5,28c2.6,10.5,6.3,25.9,8,35c7.8,41.3,0.1,79.5-1.5,87
			c-2,9.5-6.8,28.7-17.5,51c-6.1,12.7-15.6,32-34.5,52c-5.5,5.8-24.2,24.8-53.5,39c-11.6,5.6-24,10.1-44.5,17.5
			c-12.8,4.6-19.4,6.6-32.5,12c-15.6,6.4-26.5,11.8-29,13c-14.7,7.3-25.8,14-31.5,17.5c-7.5,4.7-19.1,11.9-33,23
			c-8.8,7.1-14.4,11.5-21,19c-4.3,4.8-11.1,12.6-17,24.5c-4.8,9.8-7.2,18.7-8.5,25c-0.8-1.4-2-3.4-3.2-6c-3.9-8.1-5.3-14.7-5.8-16.5
			c-2.4-9.4-9.6-17.5-18-27c-9.2-10.4-19.9-19.5-38.5-32c-20.2-13.6-36.8-24.8-61.5-35c-23.3-9.7-28.6-8.1-63-22
			c-14.7-5.9-22-8.9-31.5-14c-11.4-6.1-33.5-18.2-54.5-41.5c-23.4-25.9-33.1-52-38.5-67c-2.5-6.9-9-26.1-12-52
			c-2.6-22.7-1.2-39.8,0-54.5c2.5-29.8,3.8-44.8,12-62c3.5-7.3,8.1-14.9,13.5-29.5c1.2-3.2,4.5-12.5,7.5-25
			c2.2-9.4,7.1-32.3,6.5-62.5c-0.6-28.8-5.8-50.2-7-55c-4.1-16.4-12.1-40.4-28.5-66.5L295.5,470.5z"/>
		<path class="less2" d="M317,478.7l97-109.6c0.6,1.1-1.3-1.9,0,0c16,24.7,56.5,39.1,77.1,45.4c43.1,13.2,76.4,23.4,126.8,23.9
			c74.2,0.7,127.8-20.1,139.4-24.8c34.9-14,70.6-35.1,88-48.2l102,108c-0.8,1.1,1.4-2,0,0c-6.4,9.4-36.7,65.1-45.4,108.7
			c-10.7,53.6,5.4,100.7,12.6,118.9l6.1,15.4c1.8,6.2,4.3,15.2,7,26.2c2.5,9.8,5.9,24.2,7.5,32.8c7.3,38.7,0.1,74.4-1.4,81.4
			c-1.9,8.9-6.3,26.8-16.4,47.7c-5.7,11.9-14.6,30-32.3,48.7c-5.2,5.4-22.7,23.2-50.1,36.5c-10.8,5.2-22.4,9.4-41.6,16.4
			c-12,4.3-18.1,6.2-30.4,11.2c-14.6,6-24.8,11-27.1,12.2c-13.8,6.8-24.1,13.1-29.5,16.4c-7.1,4.4-17.9,11.1-30.9,21.5
			c-8.3,6.6-13.4,10.8-19.7,17.8c-4,4.5-8.5,6.8-14,17.9c-4.5,9.2-11.6,20.4-12.8,26.3c-0.8-1.3-2.4-10.3-3.5-12.7
			c-3.6-7.6-6.2-12.4-6.2-12.4s-4.7-10.3-12.6-19.2c-8.7-9.7-18.6-18.2-36-29.9c-18.9-12.7-34.5-23.2-57.6-32.8
			c-21.8-9-26.8-7.6-59-20.6c-13.7-5.5-20.6-8.3-29.5-13.1c-10.6-5.7-31.3-17.1-51-38.8c-21.9-24.2-31-48.7-36-62.7
			c-2.3-6.5-8.5-24.4-11.2-48.7c-2.4-21.2-1.2-37.3,0-51c2.4-27.9,3.5-41.9,11.2-58c3.3-6.8,7.6-14,12.6-27.6c1.1-3,4.2-11.7,7-23.4
			c2.1-8.8,6.6-30.3,6.1-58.5c-0.5-26.9-5.4-47-6.6-51.5c-3.9-15.3-11.3-37.8-26.7-62.2L317,478.7z"/>
		<circle class="less3" cx="545.7" cy="735.2" r="22.6"/>
		<path class="less3" d="M489.3,472.2c0,8.2,0,16.3,0,24.5c-2.5-0.1-6-0.2-10.4,0c-6,0.2-9.1,0.3-12.2,1.4c-1.7,0.6-6.1,2.3-9.9,6.1
			c-3.1,3.1-5.5,7.4-7.1,16c-1.9,10.1-1.2,18.3-0.5,25.4c2.6,25.2,5.3,29.3,5.2,45.2c0,1.1-0.1,9.3-2.4,19.8
			c-2.2,10.6-4.7,14.2-5.6,15.5c-1,1.4-4.7,6.3-11.3,9.4c-6.4,3-11.7,2.4-11.8,3.8c-0.1,1.3,4.9,1.7,10.4,4.7c6,3.3,9.1,8,11.8,11.8
			c2.2,3.3,6.6,10.4,8.5,22.6c1,6.6,0.8,11.2-2.4,35.3c-2.4,18.4-3.5,24.6-3.3,35.3c0.2,13.6,2.1,18.5,4.2,22.1
			c5.5,9.3,14.4,13,17.4,14.1c8.6,3.2,16.1,2.1,19.3,1.4v23.1h-4.7c-4.1,0.6-10,1-16.9,0c-12.6-1.7-21.3-6.9-23.1-8
			c-14-8.6-20.3-21.4-22.6-26.8l-3.3-11.3v-20.2l3.3-27.3l3.8-27.8c0-2,0-5-0.5-8.5c-1-7.3-2.3-17.2-9.4-23.5
			c-8.7-7.7-21.2-5.6-23.5-5.2v-22.6c1.7,0.2,4.1,0.3,7.1,0c8.3-0.9,16.9-4.8,21.6-10.4c2.9-3.4,5.6-8.7,4.2-30.1
			c-1.4-21.9-4.7-25.1-6.1-44.7c-1-14.2-1.7-24.7,2.8-37.2c1.8-5.1,5.4-14.6,14.1-22.6c16.2-14.9,37.9-13.2,42.8-12.7L489.3,472.2z"
			/>
		<path class="less3" d="M767.6,807.4c0.2-8.2,0.4-16.3,0.6-24.5c2.5,0.2,6,0.3,10.3,0.3c6-0.1,9.1-0.1,12.3-1.1
			c1.7-0.5,6.2-2.1,10-5.9c3.1-3,5.6-7.3,7.5-15.8c2.1-10,1.7-18.2,1.1-25.4c-2-25.3-4.6-29.5-4-45.3c0-1.1,0.4-9.3,2.9-19.7
			c2.5-10.5,5.1-14.1,6.1-15.4c1-1.3,4.8-6.2,11.5-9.1c6.5-2.8,11.7-2.1,11.9-3.5c0.1-1.3-4.9-1.8-10.2-5
			c-5.9-3.5-8.9-8.2-11.5-12.1c-2.2-3.3-6.3-10.6-7.9-22.8c-0.9-6.6-0.5-11.2,3.3-35.2c2.9-18.3,4.1-24.5,4.2-35.2
			c0.2-13.6-1.6-18.6-3.7-22.2c-5.2-9.4-14.1-13.4-17-14.6c-8.5-3.4-16-2.5-19.2-1.9l0.6-23l4.7,0.1c4.1-0.5,10-0.7,16.9,0.4
			c12.6,2.1,21.1,7.4,22.8,8.6c13.8,9,19.7,21.9,21.9,27.4l3,11.4l-0.5,20.2l-4,27.2l-4.5,27.7c-0.1,2-0.1,5,0.2,8.5
			c0.8,7.3,1.8,17.3,8.8,23.8c8.5,7.9,21,6.2,23.4,5.8l-0.6,22.6c-1.7-0.2-4.1-0.4-7.1-0.2c-8.3,0.6-17,4.4-21.9,9.8
			c-3,3.3-5.8,8.6-5,30c0.8,22,4,25.2,4.9,44.8c0.7,14.3,1,24.7-3.8,37.1c-2,5-5.7,14.4-14.7,22.2c-16.6,14.4-38.3,12.2-43.1,11.6
			L767.6,807.4z"/>
		<circle class="less3" cx="726.4" cy="735.2" r="22.6"/>
		<circle class="less3" cx="634.6" cy="735.2" r="22.6"/>
		<path class="less4" d="M1010.9,855.9c0.7-0.6,0.4-3.2-6.1-13.9L983,782l-15.3-38.5c-1.3-0.9-3.3-2.3-5.8-3.8
			c-3.5-2.1-16.7-10.1-38.5-16c-14.6-4-25.9-5.1-37-6.3c-12.6-1.3-22.2-1.4-28.8-1.5c-26-0.3-45.2,2.2-49.5,2.8
			c-5.4,0.7-12.6,1.8-31.8,6c-26.4,5.7-42.4,9.2-64,15.5c-30,8.8-52.2,17.5-71,25c-11.9,4.7-23.9,9.5-39.5,16.8
			c-8.2,3.8-11.6,5.7-22.8,10.8c-15,6.9-26.4,11.6-29.8,13c-14.2,5.9-23.5,9.7-36.5,14c-13.9,4.6-24.6,7.2-34,9.5
			c-12.5,3.1-23.8,5.8-39.3,8c-2.7,0.4-14.2,2-30,2.8c-17.3,0.9-33,1.7-52.8-1.5c-7.7-1.2-18.7-3.5-31.8-8l-11-4.3l-13.4-7.9
			l-12-8.3l-18.3-15.8l-3.3-10l0.9-8.3l-39.9,96.3c-0.1,0.8-0.2,2,0,3.5c0.8,6.6,6.3,10.9,8.5,12.8c14.4,11.7,11,13.3,26.2,23.8
			c3.6,2.5,17.4,11.6,40.5,20c4.4,1.6,21.3,7.5,47.8,11.8c8.8,1.4,40,6,82.8,3c24.8-1.7,43-5.3,59.3-8.5c38-7.5,66.1-17,86.5-24
			c30.3-10.4,53.8-20.4,82.8-32.8c24.9-10.6,26.9-12.2,47.3-20.5c20.3-8.3,41.7-17.1,70-25.8c48.2-14.8,82.5-19.1,92.8-20.3
			c19.9-2.3,33.1-2.4,45-1.8c19.1,1.1,32.5,1.8,47.5,8.3C993.3,833.8,1008.4,857.9,1010.9,855.9z"/>
		<g id="Layer_1_1_">
			<g>
				<path class="less5" d="M740.4,834.1c-4.4,1.1-9.1,2.3-13.5,3.4c-1.2,0.3-2.2,0.6-3.4,0.9c-6.5,1.1-10.5-1.3-12.6-7.5
					c-0.8-2.2-1.3-4.1-1.9-6.3c-0.2-0.7,0-1,0.7-1.5c2.8-1.5,5.8-3,8.5-4.8c0.9-0.5,1.2-0.6,1.5,0.7c0.6,2.2,1.1,4.4,1.7,6.9
					c0.2,0.7,0.6,1.2,1.5,0.9c10.1-2.6,20.2-5.1,30-7.6c1-0.2,1.2-0.6,0.9-1.5c-0.8-3.2-1.7-6.6-2.5-9.8c-0.2-1-0.8-1.1-1.5-0.9
					c-9.3,2.4-18.4,4.7-27.8,7c-1.5,0.4-3,0.5-4.8,0.7c-4.4,0.3-7.8-1.7-9.6-5.7c-2.5-5.7-3.9-11.3-4.4-17.5
					c-0.4-4.9,1.8-8.3,6.6-10.1c1.2-0.6,2.2-0.8,3.4-1.1c8.9-2.2,18-4.6,26.8-6.8c1.5-0.4,3.3-0.6,4.8-0.7c4.4-0.1,7.5,1.8,9.6,5.7
					c1.1,2.3,1.7,4.8,2.4,7.3c0.2,0.7,0,1-0.7,1.2c-2.7,1.7-5.5,3.2-8.2,4.9c-0.9,0.5-1,0.2-1.2-0.5c-0.5-2-1-3.9-1.6-6.1
					c-0.2-1-0.6-1.2-1.5-0.9c-9.3,2.4-18.9,4.8-28.3,7.2c-1,0.2-1.2,0.6-0.9,1.5c0.7,2.7,1.4,5.4,2.1,8.1c0.3,1.2,0.7,1.7,1.9,1.3
					c9.3-2.4,18.4-4.7,27.8-7c1.7-0.4,3.3-0.6,5-0.8c3.9-0.2,6.7,1.7,8.6,4.9c0.9,1.4,1.5,3,1.9,4.5c1.4,4.6,2.9,9.2,3.3,14.1
					c0.4,5.7-1.4,8.7-6.7,10.9c-3.3,1.4-6.8,2-10.3,2.9C745.6,832.8,743.1,833.4,740.4,834.1z"/>
				<path class="less5" d="M675.8,851.9c-4.3,1.5-8.4,2.9-12.7,4.4c-1.4,0.5-2.5,0.9-3.9,1.1c-5.4,1.1-8.8-0.5-11.3-5.4
					c-1.2-2.1-1.8-4.4-2.6-6.7c-0.2-0.7,0.1-1.1,0.6-1.2c2.5-1.6,5.2-3.3,7.6-5.2c0.8-0.5,1.1-0.4,1.4,0.5c0.7,2,1.4,4.1,2.2,6.3
					c0.3,0.9,0.6,1.1,1.5,0.7c9.3-3.2,18.3-6.4,27.6-9.6c0.9-0.3,1-0.8,0.7-1.5c-1-2.9-2.1-5.9-3.1-8.8c-0.3-0.9-0.6-1.1-1.5-0.7
					c-8.6,3-17,5.9-25.6,8.9c-1.6,0.6-3,0.8-4.7,1.1c-3.9,0.6-6.7-1-8.9-4.3c-2.4-4-3.7-8.4-5.2-12.7c-0.5-1.4-0.6-2.6-0.9-4
					c-0.4-4.7,1.2-7.5,5.2-9.7c1.1-0.6,2.2-1,3.3-1.4c8.1-2.8,16.5-5.8,24.6-8.6c0.9-0.3,1.8-0.6,2.8-0.7c5.7-1.2,9.6,0.5,11.9,5.7
					c0.8,1.5,1.3,3.1,2,4.9c0.2,0.7,0.1,1-0.5,1.4c-2.4,1.9-4.9,3.5-7.3,5.3c-0.6,0.5-0.9,0.3-1.1-0.4c-0.6-1.8-1.3-3.6-2-5.7
					c-0.3-0.9-0.6-1.1-1.5-0.7c-8.6,3-17.2,6-26,9.1c-0.9,0.3-1.1,0.6-0.7,1.5c0.9,2.5,1.7,5,2.6,7.5c0.4,1.1,0.8,1.5,1.9,1.1
					c8.1-2.8,16.3-5.7,24.4-8.5c1.4-0.5,2.7-0.9,4.1-1.2c5-1,8.6,0.6,10.9,5.1c2.5,5,4.3,10.2,5.5,15.6c1.1,5.2-0.6,8.3-5.3,11
					c-2,0.9-4,1.6-6,2.4C682.8,849.4,679.1,850.7,675.8,851.9z"/>
				<path class="less5" d="M615.1,849.6c-5,1.6-10,3.2-15,4.8c-1,0.3-1.2,0.7-0.6,1.6c3.3,5,7.7,6.9,13.7,5.8c5.7-1,10.6-4,15.1-7.1
					c0.9-0.6,1.4-0.7,1.8,0.5c1.1,2.4,2.3,4.5,3.6,6.8c0.2,0.7,0.4,1.2-0.3,1.7c-6.7,4.1-13.5,7.7-21.7,8.9
					c-11.1,1.6-21.4-4.1-25.7-14.6c-2.6-6.3-3.3-12.7-1.3-19.4c3-8.7,9.1-13.7,18-16c11-2.7,20.7,1.9,25.5,12.5
					c1.1,2.7,2,5.4,2.7,8.2c0.3,1-0.1,1.4-1.1,1.7C625.1,846.4,620.1,848,615.1,849.6z"/>
				<path class="less4" d="M607.4,843.5c-3.2,1-6.2,2-9.5,3.1c-1,0.3-1.3,0.2-1.4-0.9c-1-7.4,3.5-13,11.1-13.5
					c4.3-0.3,9.3,3.3,10.3,7.2c0.2,0.7-0.3,0.7-0.8,0.8C613.9,841.4,610.6,842.5,607.4,843.5z"/>
				<path class="less3" d="M577.1,874.4c0.1,0.3,0.1,0.7,0.2,1c0.8,2.6,1.7,5.4,2.6,8c0.4,1.1,0.3,1.3-0.9,1.7
					c-18.2,5.9-36.3,11.5-54.3,17.5c-2.2,0.8-2.2,0.8-3-1.5c-6.3-19.7-12.6-39.3-18.9-59c-0.4-1.4-0.4-2,1.3-2.3
					c2.8-0.7,5.4-1.7,8.1-2.7c0.8-0.3,1.2-0.1,1.5,0.7c5.4,16.8,10.6,33.4,16.1,50.2c0.4,1.1,0.8,1.4,1.9,1
					c14.7-4.8,29.6-9.6,44.4-14.3C576.5,874.5,576.9,874.2,577.1,874.4z"/>
			</g>
		</g>
	</g>
</g>
<g id="Layer_2_1_">
</g>
</svg>
