<?xml version="1.0" encoding="utf-8"?>
<!-- Generator: Adobe Illustrator 21.0.1, SVG Export Plug-In . SVG Version: 6.00 Build 0)  -->
<svg version="1.1" id="Layer_1" xmlns="http://www.w3.org/2000/svg" xmlns:xlink="http://www.w3.org/1999/xlink" x="0px" y="0px"
	 viewBox="0 0 1280 1280" style="enable-background:new 0 0 1280 1280;" xml:space="preserve">
<g>
	<path class="mail0" d="M1060.9,630.2c5.3,236.4-180,417.3-392.3,429.7c-119.4,7-224.6-29.1-312.7-110.1
		c-87.7-80.7-133.8-182.1-136.1-301.1c-4.4-234.1,178.3-421,405-429.1C864.5,211.1,1056.1,400.4,1060.9,630.2z"/>
	<path class="mail1" d="M823.8,639.2c0,38.5,0.2,77-0.1,115.5c-0.2,30.1-14.4,52-41,65.5c-8.5,4.3-18.1,6.5-28,6.5
		c-76.8,0-153.6,0.1-230.4-0.1c-27.6-0.1-53.8-17.8-64-44.4c-3.4-8.8-5.2-17.8-5.2-27.2c0-76.3,0.1-152.6,0-228.9
		c0-27.7,11.3-49.1,34.7-63.9c9.2-5.8,19.5-9.4,30.6-9.4c79.3-0.1,158.6-0.5,237.9,0.2c23.2,0.2,41.2,12.4,54,31.8
		c8.4,12.7,11.6,26.9,11.6,42.1C823.7,564.3,823.8,601.8,823.8,639.2z"/>
</g>
<path class="mail0" d="M754.7,657.9c-3.4,9.5-7.3,18.7-13.7,26.7c-10.3,12.9-23.4,21.1-39.9,23.5c-7.9,1.1-15.5,0.7-22.9-2.2
	c-8.9-2.2-12.3-9.4-15.2-17c-0.7-1.7-0.7-3.6-1.7-5.7c-2.3,1.9-3.7,4.3-5.4,6.5c-9.9,12.7-23.1,19.5-39,20.2
	c-9.8,0.4-19.1-2.5-26.7-9.4c-10.5-9.6-14.5-22-15.6-35.8c-0.7-15.3,1.5-30.2,7.9-44.2c12.5-27.5,33.4-44,63.3-49
	c6.8-1.2,13.6-0.8,20.4-0.9c8.7,1.1,17.4,2.1,25.7,5c10.2,3.6,10.4,3.7,9,14.5c-3.6,22.8-7,45.7-10.4,68.5
	c-0.7,4.4-0.6,8.9,0.2,13.4c2.2,9.8,8.2,12.8,17.3,8.3c9.9-4.9,14.9-13.9,18.8-23.7c3.1-7.8,4.7-15.9,5.3-24.3
	c1.9-21-0.8-41.2-11-60c-8.6-16.2-22.3-26.3-39-32.8c-33.2-10.7-64.2-6.5-92,15c-23,17.8-34.8,42.3-39.6,70.5
	c-2,11.8-3.1,23.7-1.6,35.7c1.3,17.1,5.4,33.4,14.5,48.2c8.8,14.4,21,24.8,36.6,31.1c2.7,1.1,5.4,2.4,7.8,4.1c28,8,55,5.2,81.2-7.1
	c2.9,6.1,3.6,12.9,5.9,19.1c0.9,2.3-1,2.9-2.5,3.5c-13.6,6-27.8,9.8-42.6,11.2c-10,1-19.9,1.1-29.9,0.7c-6.3-0.3-12.6-1.8-18.7-3.4
	c-1.8-0.5-4.1,0.4-5.5-1.4c-23.3-6.4-41.1-20.3-55-39.7c-2.5-3.5-5-7.1-7.1-10.9c-11.9-22-15.8-45.6-15.1-70.3
	c1.4-22.7,6.7-44.5,16.8-65c1.2-2.4,8.6-13.2,4.6-6.2c6.8-14.1,17.4-24.3,28.7-34.2c5.7-5,12.2-9.1,18.4-13.5
	c-5.1,3.7,3.1-3.3,5.2-4.4c14.9-7.7,30.7-12.3,47.5-13.2c1.3-0.1,2.6-0.5,3.9-0.7c12.6-1.2,24.9,0.4,37.2,2.9
	c11.8,3.1,22.8,7.9,33.1,14.4c4.2,2.6,8.4,5.3,11.1,9.7c17.3,15.4,27.4,35,32.9,57.2c1,8.5,2.2,17,2.2,25.7
	C760.2,632.1,758.4,645.1,754.7,657.9z"/>
<path class="mail1" d="M629.1,678.2c-8.1,0-13-3.7-15.5-10.4c-7.1-18.9,2.7-55.6,29.3-64.6c6-2,12.1-1.9,18.2-1
	c2.1,0.3,3.4,1.1,2.9,3.6c-2.7,15.8-3.2,32-8.5,47.3c-3,8.6-7.8,16.1-15.5,21.5C636.6,676.9,632.8,678.5,629.1,678.2z"/>
</svg>
