<?xml version="1.0" encoding="utf-8"?>
<!-- Generator: Adobe Illustrator 21.0.1, SVG Export Plug-In . SVG Version: 6.00 Build 0)  -->
<svg version="1.1" id="Layer_1" xmlns="http://www.w3.org/2000/svg" xmlns:xlink="http://www.w3.org/1999/xlink" x="0px" y="0px"
	 viewBox="0 0 1280 1280" style="enable-background:new 0 0 1280 1280;" xml:space="preserve">
<style type="text/css">
	.money0{fill:#1BC1C1;}
	.money1{fill:#FFFFFF;}
	.money2{fill:#FFFFFF;stroke:#1BC1C1;stroke-width:7;stroke-miterlimit:10;}
</style>
<g id="Layer_1_1_">
	<g id="Layer_2">
		<path class="money0" d="M1119,651c0-2.6,0-6.4,0-11c-0.1-13.5-0.4-47.5-5-79c-5.6-38.1-16.6-66.1-26-90c-11.7-29.7-23.7-52.2-31-65
			c-24.1-42.4-48.2-70.4-54-77c-24.9-28.5-47.1-46.5-64-60c-16.8-13.5-45.4-34.8-84-56c-22.2-12.2-53.1-28.9-96-42
			c-61.1-18.6-111.3-19-146-19c-34.4,0-70.8,0-117,12c-59.4,15.4-99.6,41.4-133,63c-55.3,35.7-90.7,72-103,85
			c-36.5,38.6-61.4,76.5-78,106c-0.9,1.3-2.4,3.7-3,7c-0.9,4.7,0.4,8.4,1,10l11,9l13,9l8,9c-1,1.2-2.4,2.9-4,5
			c-13.2,17.1-24.5,38.5-34,74c-5.7,21.5-9.6,43.8-12,73c-2.5,30-5.7,69,1,120c9.7,73.9,34.2,126.9,42,143c4,8.2,22.2,45.3,56,88
			c43.7,55.3,88,88.1,105,100c57.3,40.3,108.9,58.2,127,64c17.8,5.8,63.8,19.4,125,22c94.1,4,165.5-20.4,191-30
			c25-9.4,88.6-35.8,153-94c81.7-73.8,116.2-154.4,126-179c18.9-47.7,25.8-90,28-105c4.2-28.7,5.2-53.6,5-73L1119,651z"/>
		<path class="money1" d="M277,501c-4-2.4,8.4-30,12-38c14.3-31.9,31.2-69.3,70-104c26.9-24,52.6-36,70-44c7.6-3.5,14.9-6.5,22-9.1
			c8-3,13.6,8,6.5,12.8c-0.2,0.1-0.4,0.3-0.6,0.4c-29.1,19.8-48.2,38.5-68,58c-28.2,27.8-50.3,53.8-64,70
			C295,482.4,280.6,503.1,277,501z"/>
		<path class="money1" d="M1003.2,819.6c3.9,2.4-8.8,29.9-12.5,37.8c-14.7,31.7-32,68.9-71.3,103.1c-27.2,23.7-53.1,35.4-70.5,43.1
			c-7.6,3.4-15,6.3-22.1,8.9c-8,2.9-13.5-8.1-6.4-12.8c0.2-0.1,0.4-0.3,0.6-0.4c29.3-19.4,48.7-37.9,68.7-57.1
			c28.5-27.4,51-53.2,64.9-69.2C985,837.9,999.6,817.4,1003.2,819.6z"/>
		<path class="money1" d="M372.5,519.2c-2.6-1.5,5.4-19.3,7.7-24.5c9.2-20.5,20.1-44.7,45.1-67c17.3-15.5,33.9-23.2,45.1-28.4
			c4.9-2.2,9.6-4.2,14.2-5.9c5.2-1.9,5.8,1.4,1.3,4.5c-0.1,0.1-1.9,1.9-2,2c-18.7,12.8-31.2,22.4-44,35c-18.2,17.9-33.2,34.6-42,45
			C378.6,502.8,374.8,520.6,372.5,519.2z"/>
		<path class="money1" d="M920.9,806.3c2.5,1.6-5.9,19.2-8.3,24.3c-9.7,20.3-21.1,44.2-46.6,66c-17.7,15.1-34.4,22.4-45.8,27.3
			c-4.9,2.1-9.7,4-14.3,5.6c-5.2,1.8-5.8-1.6-1.2-4.6c0.1-0.1,1.9-1.9,2-2c19-12.3,31.7-21.7,44.8-34c18.6-17.5,33.9-33.8,43-44
			C914.4,822.5,918.6,804.8,920.9,806.3z"/>
	</g>
</g>
<g>
	<path class="money1" d="M562.6,619.8c23.8,0.4,48.4,4.3,71.2,16.3c10.3,5.4,19.5,12.2,26,22.1c9.2,14,8.1,30.3-2.8,43.3
		c-10.2,12.2-23.5,19.6-38.2,24.8c-27.5,9.8-55.7,11.7-84.4,7.7c-19-2.7-37.1-8.1-53.4-18.4c-8.5-5.4-15.9-11.9-20.7-20.9
		c-7.4-13.6-5.4-28.6,4.8-40.7c10.4-12.2,23.9-19.5,38.6-24.8C522.2,622.5,541.4,619.9,562.6,619.8z"/>
	<path class="money1" d="M695.8,587.7c-23.1-0.2-44.9-3.6-65.5-12.6c-13.1-5.7-25-13.1-33.2-25.3c-9.6-14.2-8.6-30.5,2.5-43.8
		c10.5-12.6,24.4-20,39.5-25.2c27.3-9.4,55.4-11.2,83.9-7.1c18.5,2.7,36.2,8,52.1,18c8.7,5.4,16.3,12.1,21.2,21.3
		c7.3,13.7,5.3,28.6-4.9,40.6c-10,11.7-22.9,18.9-37,24.2C735.3,584.9,715.4,587.7,695.8,587.7z"/>
	<path class="money1" d="M665.8,742.4c-0.3,10.3,1.8,20.7-3,30.5c-4.9,10.1-12.7,17.4-21.9,23.3c-16.7,10.7-35.3,16.1-54.7,18.7
		c-27.8,3.6-55.2,1.9-81.8-7.4c-15.1-5.3-29-12.7-39.4-25.3c-5.7-6.9-9.1-14.7-9.1-23.7c0-5.5,0-11,0.2-16.6
		c6,20.5,21.7,31.1,39.7,39c26,11.4,53.5,14.1,81.5,11.8c19.7-1.6,38.6-6.1,56.2-15.3c10.8-5.7,20.4-12.8,27.1-23.4
		C662.9,750.4,664.2,746.4,665.8,742.4z"/>
	<path class="money1" d="M665.9,702c0.3,13.3,1.5,26.7-7.6,38.1c-6.7,8.5-15,14.9-24.5,19.8c-18,9.4-37.4,14-57.5,15.6
		c-21.3,1.7-42.3,0.2-62.9-5.6c-15.9-4.5-30.9-11-43.2-22.4c-9.5-8.9-15.1-19.5-14.4-32.9c0.2-4.3,0-8.6,0.5-13.1
		c0.8,2.4,1.5,4.8,2.5,7.1c6,13.4,17,21.7,29.5,28.3c17.5,9.2,36.3,13.7,55.9,15.3c22,1.9,43.7,0.4,64.9-5.6
		c15.6-4.4,30.2-10.9,42.3-22c6.4-5.9,11.3-12.7,13.7-21.2C665.1,702.9,665,702.2,665.9,702z"/>
	<path class="money1" d="M590.5,553.8c6.4,20,21.8,30.6,39.5,38.4c26.7,11.7,54.8,14.5,83.6,11.9c19.2-1.8,37.7-6.2,54.8-15.3
		c12.6-6.7,23.6-15.1,29.6-28.7c0.9-2,1.5-4.2,2.3-6.5c4.6,18.7-2.5,37.5-18.4,49.7c-15.4,11.8-33.1,18-51.8,21.5
		c-25.3,4.8-50.5,4.2-75.6-1.5c-1.7-0.4-3.2-0.9-4.7-1.8c-10-6.2-20.8-10.8-32.1-14c-8-2.3-13.2-8.3-18.2-14.3
		c-6.2-7.4-9.3-16.1-8.9-25.9C590.6,562.9,590.5,558.4,590.5,553.8z"/>
	<path class="money1" d="M675.3,644.4c4.6,0.3,8.7,0.7,12.9,0.9c25.2,0.8,49.7-2.4,73-12.6c13.5-5.9,25.7-13.7,33.9-26.5
		c2.4-3.7,3.9-7.8,5.2-12.6c4.4,23.5-4.1,41.8-24.6,54.6c-16.6,10.4-34.9,15.8-54.1,18.5c-10.9,1.5-21.9,2.2-33,1.7
		c-2.3-0.1-3.4-0.6-3.9-3c-1.3-6.5-4.1-12.5-7.7-18.1C676.4,646.5,675.9,645.6,675.3,644.4z"/>
	<path class="money1" d="M800.2,633.7c4.2,24-4,41.9-24.6,54.8c-16.5,10.4-34.7,15.8-53.7,18.5c-10.6,1.5-21.3,2.1-32,1.8
		c-2.6-0.1-3.7-0.7-3.6-3.7c0.2-5.4,0.6-10.9-0.8-16.3c-0.7-2.8,0.9-3.4,3.4-3.3c21.9,0.8,43.4-1.9,64.1-9.3
		c14.5-5.2,27.9-12.4,38.1-24.3C795.5,646.9,798.6,641,800.2,633.7z"/>
	<path class="money1" d="M800.2,674.1c4.2,24-4.1,42-24.6,54.8c-16.3,10.2-34.2,15.6-53.1,18.4c-11,1.6-22,2.2-33,1.9
		c-2.6-0.1-3.2-0.8-3.2-3.3c0-5.6,0.6-11.1-0.9-16.7c-0.7-2.7,0.8-3.4,3.4-3.3c21.9,0.7,43.4-1.8,64.1-9.3
		c14.5-5.2,27.9-12.4,38.1-24.3C795.5,687.2,798.6,681.4,800.2,674.1z"/>
</g>
<g>
	<path class="money2" d="M623.9,752.1c-0.1-0.9-1.1-0.8-1.6-1c-2.4-0.9-4.7-1.9-6.8-3.2c-3.7-2.3-6.7-5.2-9.5-8.5c-0.8-1-1.4-2-2.4-2.8
		c-0.1-0.1-0.2-0.3-0.4-0.2s-0.2,0.2-0.2,0.4c0,0.8,0,1.7,0,2.5c-0.2,0.6,0,1.3-0.1,2c0,1.6-0.1,3.3-0.1,4.9c-0.2,0.6,0,1.2-0.1,1.8
		c0,0.8-0.1,1.6-0.1,2.4c-0.2,0.7,0.1,1.4-0.2,2.1c-9.3,0-18.6,0-27.9,0c-0.4-0.4-0.3-0.9-0.3-1.4c0-13,0-26,0-39
		c0-7.6,0-15.2,0-22.8c0-1.6,0.3-1.9,1.9-1.9c8.4,0,16.9,0,25.3,0c0.5,0,1-0.1,1.3,0.3c0.3,1.7,0.7,3.4,0.9,5.1
		c0.3,2.1,0.8,4.1,1.3,6.1c1.2,4.6,3.1,9,5.6,13.1c0.8,1.3,1.8,2.6,2.8,3.8c1.5,2.1,3.5,3.7,5.5,5.3c3.9,3.1,8.3,5.1,13,6.6
		c1.5,0.4,3,0.6,4.6,0.8c1.3,0.2,2.6,0.5,3.9,0.4c3.3-0.2,6.6-0.4,9.7-1.5c3.4-1.2,6.6-3,9.3-5.5c1.8-1.8,3.5-3.6,4.6-5.9
		c1.2-2.5,2.3-5,2.3-7.8c0-0.6,0.2-1.3,0.2-1.9c0.2-4.8-0.6-9.4-2.8-13.6c-0.6-1.1-1.1-2.3-2-3.3c-1.7-2.5-4-4.5-6.6-6
		c-1.6-0.9-3-2-4.7-2.7c-3.5-1.6-7-3.3-10.7-4.6c-1.1-0.4-2.1-0.8-3.1-1.2c-2.9-1.1-5.9-2.2-8.8-3.4c-5-2-10.2-3.6-15.1-5.9
		c-5.8-2.6-11.5-5.2-16.8-8.8c-4.8-3.3-9-7.1-12.6-11.8c-1.4-1.8-2.7-3.7-3.6-5.8c-0.5-0.7-0.8-1.5-1.1-2.2l0,0
		c-2-3.9-2.8-8.2-3.4-12.5c-0.2-1.2-0.3-2.3-0.3-3.5c-0.1-1.9-0.2-3.8-0.1-5.8c0.2-3.3,0.5-6.6,1.2-9.8c0.9-4.5,2.3-8.8,4.4-12.9
		c2-3.9,4.5-7.5,7.4-10.8c3.4-3.9,7.2-7.3,11.9-9.7c3.4-1.8,6.9-3.4,10.5-4.6c3.1-1,6.3-1.6,9.5-2.1c1.1-0.2,2.1-0.4,3.2-0.5
		c1.2-0.2,1.4-0.3,1.4-1.6c0-7.7,0-15.4,0-23.1c0-2.1,0.1-2.2,2.2-2.2c8.4,0,16.8,0,25.2,0c0.5,0,1-0.1,1.4,0.3c0,6.3,0,12.7,0,19
		c0,3.3,0,6.6,0,9.9c0,0.4-0.1,0.8,0.4,1.1c0.5,0.5,1.2,0.9,1.8,1.2c3.1,1.4,5.9,3.1,8.4,5.5c1.1,1.1,2.2,2.3,3.2,3.5
		c0.6,0.8,1.2,1.5,1.8,2.3c0.3,0.2,0.4,0,0.5-0.3s0.2-0.7,0.2-1c0-3.1,0.2-6.1,0.4-9.2c0.1-1.4,0.4-1.7,1.7-1.7c4.7,0,9.4,0,14.1,0
		c3.5,0,7.1,0,10.6,0c0.5,0,1-0.1,1.4,0.3c0,0.5,0,1.1,0,1.6c0,19.6,0,39.1,0,58.7c0,1.4,0.2,1.2-1.2,1.2c-8.5,0-16.9,0-25.4,0
		c-0.4,0-0.8,0-1.2,0c-0.4-0.4-0.3-0.9-0.4-1.4c-0.4-2.5-0.9-4.9-1.6-7.4c-1.3-4.6-2.9-9.1-5.3-13.3c-1.5-2.6-3.3-5.1-5.4-7.2
		c-0.2-0.2-0.4-0.5-0.7-0.6c-2-1.5-4-3-6.2-4.2c-1.9-1-3.9-1.7-5.9-2.3c-1.8-0.6-3.7-0.8-5.6-1.3c-0.2-0.1-0.4-0.1-0.6-0.1
		c-3.3-0.2-6.6-0.2-9.9,0.4c-2.5,0.4-4.8,1.3-7.1,2.5c-3.2,1.7-5.8,4.1-7.8,7c-1.9,2.8-2.9,5.9-3.1,9.3c-0.4,4.8,1.2,9.1,3.9,12.9
		c0.1,0.1,0.2,0.2,0.3,0.3c0.8,1.2,1.9,2,2.9,3c3.5,3.4,7.9,5.6,12.2,7.7c3.9,1.9,7.9,3.7,12,5.2c6,2.2,11.9,4.7,17.9,7.1
		c6.3,2.5,12.4,5.5,18.2,9c4.2,2.4,7.8,5.5,11.2,8.9c0.2,0.2,0.3,0.3,0.4,0.6c2,1.9,3.5,4.2,4.8,6.6c0.1,0.2,0.2,0.4,0.4,0.6
		c0.8,1.8,1.8,3.6,2.6,5.4c1.8,4.5,3.1,9.1,3.8,13.9c0.7,4.4,0.8,8.8,0.6,13.3c-0.1,2.6-0.7,5.1-1.2,7.6c-0.6,2.7-1.4,5.4-2.3,8
		c-0.9,2.7-2.2,5.3-3.6,7.8c-2.8,5.1-6.4,9.6-10.7,13.4c-2.9,2.6-6.3,4.6-9.8,6.4c-2.6,1.3-5.2,2.3-7.8,3.3c-1.9,0.7-4,1.1-6,1.5
		c-1.3,0.3-2.7,0.6-4,0.8c-0.7,0.2-1.5,0.2-2.2,0.3s-0.7,0.5-0.7,1c0,5.2,0,10.4,0,15.6c0,3.4,0,6.8,0,10.2c0,0.5,0,0.8-0.7,0.8
		c-9.2,0-18.4,0-27.6,0c-0.1,0-0.2,0-0.4,0c-0.5-0.3-0.3-0.8-0.3-1.3c0-9.3,0-18.6,0-27.8C624.2,753,624.2,752.5,623.9,752.1z"/>
</g>
</svg>
