<?xml version="1.0" encoding="utf-8"?>
<!-- Generator: Adobe Illustrator 21.0.1, SVG Export Plug-In . SVG Version: 6.00 Build 0)  -->
<svg version="1.1" id="MS" xmlns="http://www.w3.org/2000/svg" xmlns:xlink="http://www.w3.org/1999/xlink" x="0px" y="0px"
	 viewBox="0 0 1280 1280" style="enable-background:new 0 0 1280 1280;" xml:space="preserve">
<style type="text/css">
	.mysql0{fill:#3829A7;}
	.mysql1{fill:#6B7CC2;}
	.mysql2{fill:#6B7CC2;stroke:#91E1E7;stroke-width:9;stroke-miterlimit:10;}
	.mysql3{fill:#91E1E7;}
	.mysql4{fill:#EBF7F4;}
	.mysql5{fill:#9DF2F4;}
	.mysql6{fill:#FFFFFF;}
</style>
<g id="Armor">
	<path id="L" class="mysql0" d="M910.4,566.4c3.7-0.4,9-0.8,15.2-0.3c4.7,0.4,8.6,0.7,13.6,2.5c5.3,1.9,8.7,4.5,13.8,8.3
		c4.9,3.7,7.3,5.5,9.1,8.3c3.4,5.3,3.5,10.9,3.6,14.4c0.1,4.3,0.1,8-1.9,15.8c-2.2,8.2-4.4,12.6-6.7,15.8c-2.2,3.1-5.3,5.4-11.6,10
		c-3.3,2.4-8.2,5.9-15.2,9.7c-6.8,3.7-12.4,5.8-18,8c-4.4,1.7-11.4,3.8-14.1,4.7L910.4,566.4z"/>
	<path id="R" class="mysql0" d="M487.1,863.5c-3.1,1.8-7.7,4.6-13.3,8c-15.1,9.3-15.3,10-19.4,11.9c-9.4,4.3-17.5,4.6-29.3,5
		c-11.8,0.4-18.1,0.6-25.4-3.1c-2.9-1.4-9.8-5-13.8-13c-3.5-6.9-3-13.4-2.8-15.8c0.5-5.3,2.7-9.6,7.2-18.3c2.8-5.4,4.4-8.5,7.5-12.4
		c1.2-1.5,3.4-4.2,11.4-11.1c3.6-3.1,8.6-7.2,14.7-11.9L487.1,863.5z"/>
	<path id="_x31_" class="mysql1" d="M236.9,396.9c9.6-3.1,23.1-7.8,38.7-14.4c20.6-8.7,34.6-16.2,60.6-30.4
		c19.2-10.4,38.9-21.2,64.8-37.3c15.2-9.5,33.3-20.8,56.5-37.6c21.3-15.5,38.8-29.8,52-41.2c8.2-7,15-13.2,20.2-18
		c2.8,0.8,6.7,1.9,11.3,3.1c8.1,2.1,16,3.8,27.4,6.1c10.2,2,24.6,4.9,44.3,7.8c6.8,1,21.8,3.1,41.2,5c21.7,2.1,37.6,2.8,56.2,3.6
		c27.6,1.2,48.4,1.4,55.6,1.4c34.8,0.2,26.5-1.2,50.3-0.8c9.9,0.2,23.1,0.6,40.4-3c4.7-1,12.1-1.7,14.7-2.5l1.1,4.4
		c0.1,0.3,4.1,16.3,4.1,16.6c7.5,30,7.7,30.7,8,32.1c4.9,20.1,8,37.4,10.7,52.6c2.6,14.7,4.8,30,9.1,60c5.1,35.5,7.6,53.3,8.3,61.4
		c2.3,28.2,1.7,49.5,1.1,70.3c-0.3,9.4-1.3,37.9-5.9,75.5c-2.1,17.7-4.6,38.1-10,63.6c-5.8,27.2-16.7,68.8-38,116.4
		c-17.6,39.4-35.1,66.8-39.3,73.3c-24.2,37.5-48.2,63.8-61.8,77.7c-12.4,12.7-23.6,24.9-32.9,32.9c-1.8,1.5-3.4,2.3-5,3.6
		c-3.5,0.2-8.6-0.7-14.4-1.1c-4.9-0.3-11.4-1.2-19.6-3.3c-31-8.2-62.2-23.3-62.2-23.3c-31.8-15.4-47.8-23.1-67.5-34.9
		c-20.6-12.4-59.6-36.2-101.5-77c-39.6-38.6-62.9-74.1-82.4-104.1c-22.4-34.6-36.3-62.5-48.9-87.7c-27.2-54.7-43.1-98-47.2-109.3
		c-12.3-34-25.8-77.2-36.7-128.4L236.9,396.9z"/>
	<path id="_x32__1_" class="mysql2" d="M262.7,410.4c9-2.9,21.5-7.2,36.2-13.4c19.3-8.1,32.3-15.2,56.6-28.4
		c17.9-9.7,36.3-19.8,60.4-34.8c14.2-8.8,31.1-19.4,52.7-35.1c19.9-14.4,36.2-27.8,48.6-38.4c7.6-6.6,14-12.3,18.9-16.8
		c2.6,0.7,6.2,1.7,10.6,2.8c7.6,1.9,14.9,3.6,25.6,5.7c9.5,1.9,23,4.6,41.3,7.3c6.3,0.9,20.3,2.9,38.5,4.7c20.3,2,35.1,2.6,52.4,3.4
		c25.7,1.1,45.2,1.3,51.9,1.3c32.4,0.2,24.7-1.1,47-0.7c9.2,0.2,21.5,0.6,37.7-2.8c4.3-0.9,11.3-1.6,13.7-2.3l1,4.1
		c0.1,0.3,3.8,15.2,3.9,15.5c7,28,7.1,28.7,7.5,30c4.6,18.8,7.5,34.9,10,49.1c2.4,13.7,4.5,28,8.5,56c4.7,33.2,7.1,49.8,7.7,57.3
		c2.2,26.3,1.6,46.2,1,65.6c-0.3,8.8-1.2,35.4-5.5,70.5c-2,16.5-4.3,35.5-9.3,59.4c-5.4,25.4-15.5,64.2-35.5,108.7
		c-16.4,36.7-32.8,62.3-36.7,68.4c-22.6,35-45,59.5-57.6,72.5c-11.5,11.9-22,23.2-30.7,30.7c-1.6,1.4-3.1,2.1-4.6,3.4
		c-3.2,0.2-8-0.7-13.4-1c-4.5-0.3-10.7-1.1-18.3-3.1c-29-7.7-58.1-21.7-58.1-21.7c-29.7-14.3-44.6-21.5-63-32.6
		c-19.3-11.6-55.7-33.8-94.7-71.8c-36.9-36-58.7-69.2-76.9-97.1c-20.9-32.3-33.9-58.3-45.6-81.9c-25.4-51.1-40.2-91.4-44.1-102
		c-11.5-31.7-24.1-72.1-34.2-119.8L262.7,410.4z"/>
	<path id="_x33__1_" class="mysql3" d="M286.4,422.7c8.4-2.7,20.1-6.8,33.8-12.5c18-7.6,30.2-14.2,52.9-26.5
		c16.7-9.1,33.9-18.5,56.5-32.5c13.3-8.3,29.1-18.1,49.2-32.8c18.6-13.5,33.9-26,45.4-35.9c7.1-6.1,13.1-11.5,17.6-15.7
		c2.4,0.7,5.8,1.6,9.9,2.7c7.1,1.8,14,3.4,23.9,5.3c8.9,1.8,21.5,4.3,38.6,6.8c5.9,0.9,19,2.7,35.9,4.4c19,1.8,32.8,2.5,49,3.2
		c24.1,1.1,42.2,1.2,48.5,1.2c30.3,0.2,23.1-1.1,43.9-0.7c8.6,0.2,20.1,0.5,35.2-2.6c4.1-0.8,10.5-1.5,12.8-2.2l1,3.9
		c0.1,0.3,3.5,14.2,3.6,14.5c6.5,26.2,6.7,26.8,7,28c4.3,17.5,7,32.6,9.4,45.8c2.3,12.8,4.2,26.2,7.9,52.4c4.4,31,6.6,46.5,7.2,53.6
		c2,24.6,1.5,43.2,0.9,61.3c-0.3,8.2-1.2,33.1-5.1,65.9c-1.9,15.4-4,33.2-8.7,55.5c-5,23.7-14.5,60-33.1,101.5
		c-15.4,34.3-30.6,58.2-34.3,63.9c-21.1,32.7-42,55.6-53.9,67.8c-10.8,11.1-20.6,21.7-28.7,28.7c-1.5,1.3-2.9,2-4.3,3.1
		c-3,0.2-7.5-0.6-12.5-1c-4.3-0.3-10-1-17.1-2.9c-27.1-7.2-54.3-20.3-54.3-20.3c-27.8-13.4-41.7-20.1-58.8-30.4
		c-18-10.8-52-31.6-88.5-67.1c-34.5-33.7-54.9-64.6-71.8-90.8c-19.6-30.2-31.7-54.5-42.6-76.5c-23.8-47.7-37.6-85.5-41.2-95.3
		c-10.7-29.7-22.5-67.4-32-112L286.4,422.7z"/>
</g>
<g id="_x33_">
	<path class="mysql4" d="M559,647.3c-0.3,0.7,0,1.4-0.3,2.1c1.1,5.6,2.7,10.9,3.6,15.9c1.1,4.2,2.2,8.4,3.4,12.6c0.7,3,1.1,5.6,1,8.2
		c0.5,11.1-7.4,16.9-14.3,17.1c-2.9-0.2-5.4-0.5-8-1.4c-3.9-1.1-7.2-3.7-10.8-5.6c-8.1-6-15.7-13.6-21.9-21.7
		c-7.8-10.8-14.6-22.1-19.5-34c-6.7-15.2-11.4-31.3-12.8-47.4c-0.4-3.9-1.5-8-2.4-11.7c-1.1-4.2-1.5-8-1-12.3c0-1.4-0.2-1.9-1.1-2.8
		c-1.2-1.5-2.6-2.2-4-3c-4.1-1.6-8.2-4.7-11.7-7.9c-9.5-8.1-18.4-17.2-26.4-27.2c-4.7-6.1-10-11.9-14.9-18.6
		c-2.1-2.4-3.6-4.6-5.2-7.2c-2.8-4.1-6.1-8.2-10.2-11.2c-2.4-1.7-5-4-7.4-5.6c-5.7-4.3-12-8.5-18.2-12.6c-4.6-2.8-8.6-5.8-13-9.4
		c-3.3-2.7-6.2-5.5-8.8-9.1c-5.9-7.6-8.2-16-6.5-24.6c0.7-6.9,4.4-11.7,9.3-15.1c4.9-3.3,10.3-4.2,16.2-5.2c7.6-1.1,15.8-0.4,23.8,1
		c3.1,0.7,6.3,1.5,9.7,1.4c4.8,0.7,10.2,2.5,14.5,4.8c2,0.6,3.3,1.3,5.3,1.9c1.5,0.8,3.1,0.7,4.6,0.1c4.4-1.8,8.6-2.8,13.3-4
		c3-1.2,6.6-2,10.1-2.1c7.1-0.9,14.7-1.9,22.2-1.7c3.4,0,7.1,0.4,10.7,1c20.6,4.3,41.4,10.5,61.7,18.3
		c25.3,10.4,49.4,24.6,71.4,42.3c3.3,2.7,6.7,5.3,10.1,7.9c7.4,5.6,13.6,12.5,19.8,19.3c16.6,19.9,34.2,38,52.1,55.4
		c3.8,3.8,7.6,7.6,11.5,11.3c3.1,3.4,6,6.2,9.8,8.7c2.4,1.7,4.6,2.8,7.2,2.4c9.7,0.1,20.2,1.8,30.1,2.5c3.7,0.5,7.3,1.1,11.1,2.2
		c19.8,5.3,38.7,12.3,57.7,19.9c2.2,1.1,4.4,2.2,6.5,3.4c4.6,2.8,8.1,6,12.7,8.8c0.7,0.4,0.9,1,1.2,1.5c0.5,1.2,0.7,1.7-0.3,2.1
		c0,0,0,0-0.5,0.2c-4.2,3.7-8.4,7.4-13.4,10.7c-2.7,1.7-5.9,3.8-8.7,5.5c-6.2,3.1-11.9,7.4-17,11.5c-3.4,2.7-6.4,5.2-10.6,7.6
		c1.2,1.5,2.1,2.4,3.8,3.8c2.4,1.7,4.6,2.8,6.7,3.9c3.3,1.3,6.8,2.6,9.9,3.3c3.9,1.1,7.5,1.6,11.4,2.7c15.5,3,30.2,9.7,44.1,18.7
		c4.6,2.8,9.1,5.6,14,7.7c2.2,1.1,4.6,2.8,6.7,5.3c1.2,1.5,2.9,2.8,3.8,3.8c0.2,0.6,0.7,0.4,0.5,1.2c-1.7,0-3.1-0.7-5-1.2
		c-14.7-6.7-29.9-11.9-45.7-12.8c-3.7-0.5-7.1-0.4-10.7-1c-7.3-1.1-14.8-2.7-22-5.1c-3.3-1.3-6.1-2.2-9.4-3.5
		c-6.1-2.2-11.8-5.2-17.3-8.9c-4-3-8.1-6-11.7-10.6c-0.9-1-1.9-1.9-2.6-2.2c-0.9-1-1.2-1.5-1.1-2.8c0-1.4,0.6-2.9,1.3-3.8
		c0.8-1,1.5-2,2.5-2.4c2.2-1.5,3.7-3.5,5.7-5.6c5.7-5.6,12.2-10.9,19.1-15c7.4-4.4,15.3-7.5,23.1-10.7c1-0.4,1.5-0.6,2.4-1
		c0-1.4-0.7-1.7-0.9-2.3c-1.7-1.3-3.1-2-5.3-3.2c-2.9-1.5-6.1-2.2-9.2-2.9c-6.8-1.3-12.8-3.5-19.4-5.5c-6.5-2-13.5-3.8-20.1-5.8
		c-4.4-0.9-8.7-1.8-13.4-1.9c-9.3-0.3-18.5-0.5-28,0c-3.4,0-6.3-0.1-9.3-0.3c-2.9-0.2-5.8-1.7-8.2-3.3c-5.7-4.3-11-8.9-16-14.1
		c-4-4.4-8.1-8.7-12.2-13c-10-10.6-20.5-21-30.5-31.6c-6.7-6.6-12.8-13.4-18.5-20.5c-2.6-3.6-5.7-7-9.1-9.6
		c-35-33-74.2-56.5-117.8-68.1c-12.8-3.5-26.4-5.9-39.8-6.5c-3.4,0-6.3-0.1-9.7-0.1c-3.4,0-6.1,0.5-9,1.6c-3.4,1.4-7.1,2.2-10.5,3.6
		c-1,0.4-2.4,1-3.7,0.8c-2.7,0.4-5.9,1-8.1,2.6c-1.5,0.6-2.7,0.4-4.4,0.4c-2-0.6-3.9-1.1-6.1-2.2c-5.5-2.4-11.4-4.1-16.9-5.1
		c-8.7-1.8-17-2.4-25.8-2.9c-2.9-0.2-5.6,0.3-8.3,0.7s-4.7,1.2-6.6,3.3c-2.3,2.9-2.4,7-1,10.3c0.7,1.7,2.1,3.8,3.8,5.1
		c2.9,2.8,5.7,5.7,9.1,8.3c2.4,1.7,4.3,3.6,6.4,4.7c6.2,4.1,12,8.5,17.8,12.8c8.8,6.4,17.2,14.4,24.3,23.4
		c5.9,7.6,12.1,15.7,18,23.3c5.7,7,11.4,14,18.3,19.9c5.3,4.5,10.3,8.5,16.5,11.3c2.6,0.9,5,2.6,7.2,5.1c1.9,1.9,2.8,4.1,3.8,6.5
		c1.4,3.4,1.5,6.7,1.7,9.9c0.4,5.1,1.3,10.1,1.6,15.3c0.5,9.7,2.5,18.9,5.7,28.3c2.1,6.5,4.8,13.3,7.4,19.6
		c5.6,12.4,12.1,24.4,20.9,34.7c3.1,3.4,6,6.2,8.5,9.9c1.9,1.9,3.8,3.8,6,4.9c2.4,1.7,5,2.6,7.2,2.4c0.5-0.2,1.2,0.1,1.7,0
		c1-0.4,1.3-1.1,0.8-2.3s-0.4-2.5-0.9-3.6c-2.1-6.5-4.3-13.6-5.9-20.2c-2.1-6.5-3.1-13.4-4-19.7c-0.6-4.4-0.6-8.4,0.5-12.9
		c1.3-5.2,1.9-10.7,3.3-16c0.3-0.7,0.8-1,1.5-0.6c1.5,0.8,2.4,1.7,2.9,2.8c4.5,6.8,10.2,12.5,15.4,18.4c5.2,5.9,10.9,11.5,17.1,17
		c14.6,13.4,29.6,26.6,45,37.7c7.2,5.1,14.1,9.6,21.9,13.1c1.5,0.8,2.9,1.5,4.6,1.4c1.5,0.8,3.3,1.3,4.6,2.8
		c-2.7,0.4-4.8-0.7-6.8-1.3c-2.6-0.9-5.5-2.4-7.7-3.5c-5-2.6-9.9-4.7-14.7-6.7c-12.1-4.4-23.6-10.4-34.9-17.1
		c-6-3.6-11.3-8.1-16.3-13.4c-4.7-4.7-9.3-8.9-13.6-13.8C560.6,648.6,560.2,647.4,559,647.3z"/>
	<path class="mysql4" d="M474.4,487.3c-2.6-2.2-4.7-4.7-6.9-7.2c-3.3-3.9-7.4-7-11.7-9.2c-2.9-1.5-4.8-3.4-7.2-5.1
		c3-2.6,5.7-4.3,9.1-5.7c0.5-0.2,1.2,0.1,1.7,0c1.2,0.1,2,0.6,3.3,1.3c3.1,0.7,6.1,2.2,8.4,5.3c3.1,2,3.8,5.1,4.7,8.8
		C477,479.6,476.9,483.7,474.4,487.3z"/>
</g>
<g id="Line">
	<path id="_x31__1_" class="mysql5" d="M965.4,603.3l-1.1,9.7l-6.7,15.7c-1.9,1.7-4.5,4-7.8,6.6c-2.2,1.7-8.3,6.6-15,10.7
		c-5.9,3.6-12.1,6.5-22.2,10.2c-15.2,5.4-28.6,8.6-39.6,10.9c-26.2,5.5-46.6,7.5-50.9,7.9c-19.3,1.8-33,1.8-54.8,1.8
		c-30.2,0-53.5-1.5-62.8-2.1c-32.9-2.3-32.6-4-67.5-6.8c-21.2-1.7-28-1.6-75-3.8c-15.4-0.7-29-1.4-40.5-2c-14.6-0.8-29.2,0.6-43.4,4
		c-0.4,0.1-0.8,0.2-1.2,0.3c-28,6.6-32.7,6.8-44.6,9.8c-10.6,2.7-34.4,9-59.6,25.3c-13.2,8.6-23.6,15.4-31.6,29
		c-8.2,13.7-9.8,27.4-10.1,35.4l51.6,97.5c0-3.5,0.6-8.3,2.9-14.6c5.8-15.9,16.3-26,23.6-32.8c7.1-6.6,13.2-10.8,14.7-11.9
		c8.6-5.8,19.5-11.4,48.2-18.9c17.2-4.5,32.2-8.4,53.7-10.9c20.8-2.4,35.7-2,58.4-1.5c26.2,0.6,46.1,2.6,63.3,4.3
		c33.4,3.4,36.9,5.2,63.1,7.9c9.3,1,40.2,4,79.7,3.8c54.6-0.2,86.1-6.4,95.5-8.3c18.1-3.7,40.8-9.7,60.7-25.5
		c14.8-11.7,19.2-21.9,21.1-28.7c2.1-7.8,1.8-14.6,1.2-19.1L966,596.1L965.4,603.3z"/>
</g>
<g id="word">
	<path class="mysql6" d="M797,748.4c-0.4,0.2-0.6,0.5-0.3,0.9c-3.5,6.3-4.7,12.2,1.6,17.3c1.6,1.3,3,3.4,1.6,5.8c-1.2,2-3.3,1.1-5,1
		c-8,0-15.2-0.8-20.1-9.2c-2-3.3-6.9-2.5-11-2.1c-9.9,1.1-19.8,1.4-29.2-2.8c-9.6-4.4-13-10.4-12.9-21.8c0.2-12.2,2.8-24.2,2.5-36.4
		c0-1.4,0.6-2.7,2-3.3c7.7-11.5,19.1-11,30-10.4c9.7,0.5,19.5-0.3,29.1,2.2c4,3.7,9.6,5.6,12.3,10.9c0.4,0.1,0.9,0.3,1.3,0.4
		c1.6,1.5,2.5,3.5,2.3,5.9C800.4,720.6,801.4,734.7,797,748.4z"/>
	<path class="mysql6" d="M578.6,760.1c-1.5-0.2-3.1-0.1-4.5-0.6c-2.1-0.8-6.6,3.2-5.8-3.8c0.7-5.8,3.6-5.1,7.4-5.1
		c10.9-0.1,21.9-0.2,32.9-0.6c2.6-0.1,6.4,0.3,6-4.6c-0.4-5.1-3.5-3.8-6.8-3.9c-10.8-0.6-22,2.4-32.3-2.7c-3.8-1.9-7.2-4.1-7-9.6
		c0.3-7.2,0-14.6-0.6-21.8c-0.6-7.7,5.5-5,8.8-5.6c4.3-0.7,4.4,2.9,4.3,6.2c-0.2,6.7-0.3,13.3-0.2,20c0.1,2.4,0.8,4.6,3.9,5.1
		c9.2,1.5,18.5,0.5,27.7,0.1c3.3-0.1,2.3-2.7,2.2-4.9c-0.1-7.9,0-15.9,0.2-23.9c0-0.8-1.1-1.8,0.4-2.7c3.5-2.1,7.1,0,10.8-0.5
		c2.4-0.4,1.1,3.8,1.2,5.4c0.5,13.7,1,27.5,0.2,41.1c-0.3,4.5-4.7,8.6-10,9.8c-4.5,1-9,1.7-13.5,2.4
		C595.5,759.4,587.1,759,578.6,760.1z"/>
	<path class="mysql6" d="M489.9,722.7c0.8,11.7,1.3,21.7,2.4,31.6c1.1,9.7,0.5,10.8-8.8,11.4c-4.7,0.4-9.4,0.7-14,1.1
		c-2.8,0.2-4.2-0.9-4.4-3.8c-1.1-16.9-2.3-33.9-3.4-50.9c-0.6-9.4-1.1-18.9-1.8-28.3c-0.3-3.7,0.8-5.2,4.8-5.4
		c6.3-0.2,12.5-1,18.8-1.8c3.6-0.5,6.1,0.7,8.2,3.9c4.5,7,9.3,13.7,14,20.5c3,4.3,4.9,4,7.4-1.2c3.7-7.5,7.6-14.9,11.1-22.5
		c1.1-2.4,2.5-3.6,5-3.8c6.9-0.5,13.8-1.2,20.7-1.9c3.7-0.3,5.5,0.9,5.7,5.2c0.9,15.9,2.2,31.8,3.3,47.7c0.6,9.8,0.9,19.7,1.9,29.5
		c0.4,3.8-0.6,5.7-4.2,6.1c-6.3,0.6-12.6,1.3-18.9,1.6c-3,0.1-4.8-1.1-4.9-4.8c-0.3-9.6-1-19.3-1.5-28.9c-0.1-2.3,0.1-5.3-2.5-5.8
		c-2.7-0.6-2.5,2.6-3.5,4.3c-3.6,6.8-7.2,13.7-10.7,20.6c-2,3.8-4,1.8-5.6-0.3c-4.6-6.1-9.1-12.3-13.5-18.6
		C494.4,726.2,492.7,724.9,489.9,722.7z"/>
	<path class="mysql6" d="M635.6,751.9c0.3-4.5,0.4-8.3,0.9-12.1c0.3-2.7,2.6-2.7,4.7-2.5c10.5,0.7,21,1.4,31.5,2.2
		c4.3,0.3,8.7,0.6,13.1,1c3.8,0.4,3.6-2.4,3.4-4.7c-0.2-2.4,3.1-6.2-2.3-6.7c-10.3-0.9-20.6-1.8-30.9-2.6c-4.5-0.4-9.1-0.6-13.6-0.7
		c-3.9-0.1-4.4-2.7-4.2-5.6c0.7-9.4,1.5-18.8,2.2-28.2c0-0.2,0.1-0.3,0.1-0.5c2-13.4,2-13,15.6-11.7c17.9,1.7,35.8,2.8,53.7,4
		c4.1,0.3,6.6,1.5,6.2,6.2c-0.4,4.5-0.6,9-0.9,13.6c-0.1,2.9-2.1,3-4.2,2.8c-15.2-1.1-30.4-2.2-45.5-3.3c-2.9-0.2-5.5-1-5.8,3.3
		c-0.3,3.9,1.6,5.4,4.9,5.6c12.1,1,24.2,2.2,36.3,2.8c13.2,0.7,13.7,1.1,12.5,14.1c-0.9,9.2-1.7,18.4-2.3,27.7
		c-0.2,3.1-1.2,4-4.4,3.7c-21.7-1.7-43.4-3.2-65.1-4.7C638.7,755.1,635.8,755,635.6,751.9z"/>
	<path class="mysql6" d="M871.5,764.5c-0.7,3.7-1.9,4.9-4.4,4.8c-18-0.7-36-1.5-54-2.2c-3-0.1-3-2.2-3-4.1c0.2-9.1,0.3-18.2,0.6-27.2
		c0.5-13.4,1.4-26.9,1.7-40.3c0.1-4.6,1.7-5.7,5.9-5.2c4.7,0.6,9.4,0.9,14.2,0.7c4.5-0.1,5.5,1.5,5.3,5.8
		c-0.7,13.6-0.8,27.2-1.5,40.8c-0.2,4.3,1.8,5,5.1,5.1c8.7,0.2,17.4,0.6,26.2,0.6c2.7,0,4.3,0.6,4.3,3.5
		C871.8,753.2,871.6,759.6,871.5,764.5z"/>
	
		<ellipse transform="matrix(0.955 -0.2966 0.2966 0.955 -180.9645 258.5746)" class="mysql5" cx="761.7" cy="725.7" rx="19.5" ry="19.5"/>
</g>
</svg>
