<?xml version="1.0" encoding="utf-8"?>
<!-- Generator: Adobe Illustrator 21.0.1, SVG Export Plug-In . SVG Version: 6.00 Build 0)  -->
<svg version="1.1" id="Php" xmlns="http://www.w3.org/2000/svg" xmlns:xlink="http://www.w3.org/1999/xlink" x="0px" y="0px"
	 viewBox="0 0 1280 1280" style="enable-background:new 0 0 1280 1280;" xml:space="preserve">
<style type="text/css">
	.php0{fill:#286F93;}
	.php1{fill:#37B3E2;}
	.php2{fill:#37B3E2;stroke:#ADF0F7;stroke-width:9;stroke-miterlimit:10;}
	.php3{fill:#ADF0F7;}
	.php4{fill:#246D92;}
	.php5{fill:#287DBA;}
	.php6{fill:#DCDEF2;}
	.php7{fill:#F6F8F7;}
	.php8{fill:#E5E3ED;}
	.php9{fill:#9AD5D8;}
	.php10{fill:#FFFFFF;}
</style>
<g id="Armor">
	<path id="L" class="php0" d="M899.4,753.4c3.5,1.3,8.4,3.3,13.7,6.6c4,2.4,7.4,4.5,11,8.3c3.9,4.1,5.8,7.9,8.6,13.6
		c2.7,5.5,4.1,8.2,4.4,11.5c0.7,6.3-1.7,11.3-3.2,14.5c-1.9,3.9-3.5,7.2-8.8,13.2c-5.7,6.3-9.6,9.3-13,11.1s-7.2,2.4-14.9,3.7
		c-4,0.6-9.9,1.6-17.9,1.8c-7.8,0.2-13.7-0.3-19.7-0.9c-4.7-0.4-11.9-1.7-14.7-2.1L899.4,753.4z"/>
	<path id="R" class="php0" d="M388,829.4c-3.5,0.2-8.9,0.6-15.5,1.2c-17.6,1.5-18.1,2.1-22.6,1.9c-10.3-0.4-17.6-3.7-28.4-8.7
		c-10.8-4.9-16.5-7.6-21.4-14.1c-1.9-2.6-6.5-8.9-6.5-17.8c0-7.8,3.4-13.4,4.6-15.3c2.8-4.5,6.7-7.3,14.6-13.1
		c4.9-3.6,7.8-5.7,12.3-7.8c1.8-0.8,5-2.2,15.1-4.8c4.6-1.2,10.9-2.6,18.4-4.1L388,829.4z"/>
	<path id="_x31_" class="php1" d="M373.3,300.1c10,1.5,24.1,3.4,41.1,4.5c22.3,1.5,38.3,1,67.8,0c21.8-0.7,44.3-1.5,74.6-4.3
		c17.9-1.6,39.1-3.6,67.3-8.3c26-4.3,48.1-9.3,65-13.5c10.5-2.6,19.4-5.1,26.1-7c2.1,1.9,5.1,4.7,8.8,7.8
		c6.3,5.5,12.6,10.6,21.7,17.7c8.2,6.4,19.8,15.4,36.1,26.8c5.6,3.9,18.1,12.5,34.6,22.9c18.5,11.6,32.4,19.4,48.6,28.4
		c24.1,13.5,42.7,22.9,49.1,26.2c31,15.7,24.2,10.8,45.4,21.9c8.7,4.6,20.3,10.9,37.5,15.4c4.6,1.2,11.6,3.9,14.2,4.4l-1,4.5
		c-0.1,0.3-3.7,16.4-3.7,16.7c-6.8,30.2-6.9,30.9-7.2,32.3c-4.6,20.2-9.6,37-13.9,51.8c-4.2,14.3-9.1,29-18.8,57.7
		c-11.4,34-17.1,51.1-20.1,58.6c-10.6,26.3-20.7,45-30.5,63.3c-4.5,8.3-18.2,33.3-39.1,64.9c-9.8,14.8-21.2,32-37.5,52.4
		c-17.3,21.7-45.7,54-86.1,87.1c-33.4,27.3-61.3,44-68,47.9c-38.4,22.6-71.7,35.4-90,41.8c-16.7,5.8-32.2,11.7-44.2,14.6
		c-2.3,0.6-4,0.5-6.1,1c-3.2-1.3-7.4-4.5-12.4-7.4c-4.2-2.5-9.7-6.2-16.1-11.8c-24.1-21.3-45.2-48.7-45.2-48.7
		c-21.6-28-32.4-42-44.7-61.4c-12.9-20.4-37.1-59.1-56.2-114.3c-18.1-52.2-23-94.5-27-130c-4.6-41-4.5-72.1-4.4-100.3
		c0.2-61.1,5.4-106.9,6.8-118.9c4.2-35.9,11.6-80.6,24.7-131.2L373.3,300.1z"/>
	<path id="_x32__1_" class="php2" d="M390.4,323.8c9.3,1.4,22.5,3.2,38.3,4.2c20.9,1.4,35.7,0.9,63.3,0c20.4-0.7,41.3-1.4,69.6-4
		c16.7-1.5,36.5-3.4,62.8-7.7c24.2-4,44.8-8.6,60.6-12.6c9.8-2.4,18.1-4.7,24.4-6.5c2,1.8,4.8,4.3,8.2,7.3
		c5.9,5.1,11.7,9.9,20.3,16.5c7.7,6,18.5,14.4,33.7,25c5.2,3.7,16.9,11.7,32.3,21.4c17.3,10.9,30.2,18.1,45.3,26.5
		c22.5,12.6,39.8,21.4,45.8,24.4c28.9,14.7,22.6,10.1,42.3,20.4c8.1,4.3,19,10.2,35,14.4c4.3,1.1,10.8,3.6,13.3,4.1l-0.9,4.2
		c-0.1,0.3-3.4,15.3-3.5,15.6c-6.3,28.2-6.5,28.8-6.7,30.1c-4.3,18.8-8.9,34.6-13,48.3c-4,13.3-8.5,27-17.5,53.9
		c-10.6,31.8-16,47.7-18.8,54.7c-9.9,24.5-19.3,42-28.5,59.1c-4.2,7.7-17,31.1-36.5,60.5c-9.2,13.8-19.8,29.8-34.9,48.9
		c-16.2,20.3-42.6,50.4-80.4,81.3c-31.2,25.5-57.2,41-63.5,44.7c-35.9,21.1-66.9,33-84,39c-15.6,5.4-30.1,10.9-41.2,13.7
		c-2.1,0.5-3.8,0.5-5.7,0.9c-3-1.2-6.9-4.2-11.5-6.9c-3.9-2.3-9.1-5.8-15-11c-22.5-19.8-42.2-45.4-42.2-45.4
		c-20.1-26.1-30.2-39.2-41.7-57.3c-12-19-34.6-55.1-52.5-106.6c-16.9-48.7-21.5-88.1-25.2-121.3c-4.3-38.2-4.2-67.3-4.1-93.6
		c0.2-57,5-99.8,6.3-110.9c4-33.5,10.8-75.2,23.1-122.4L390.4,323.8z"/>
	<path id="_x33__1_" class="php3" d="M406,345.4c8.7,1.3,21,3,35.8,3.9c19.5,1.3,33.4,0.9,59.1,0c19-0.6,38.6-1.3,65.1-3.8
		c15.6-1.4,34.1-3.2,58.7-7.2c22.7-3.8,41.9-8.1,56.7-11.8c9.1-2.3,16.9-4.4,22.8-6.1c1.9,1.7,4.5,4.1,7.6,6.8
		c5.5,4.8,11,9.3,19,15.5c7.2,5.6,17.3,13.4,31.5,23.4c4.9,3.4,15.8,10.9,30.2,20c16.1,10.1,28.2,16.9,42.4,24.8
		c21,11.7,37.2,20,42.8,22.8c27,13.7,21.1,9.4,39.6,19.1c7.6,4,17.7,9.5,32.7,13.4c4,1.1,10.1,3.4,12.4,3.8l-0.9,3.9
		c-0.1,0.3-3.2,14.3-3.3,14.6c-5.9,26.3-6,26.9-6.3,28.1c-4,17.6-8.3,32.3-12.2,45.2c-3.7,12.5-8,25.3-16.4,50.4
		c-10,29.7-14.9,44.5-17.6,51.1c-9.2,22.9-18,39.2-26.6,55.2c-3.9,7.2-15.9,29.1-34.1,56.6c-8.6,12.9-18.5,27.9-32.7,45.7
		c-15.1,18.9-39.9,47.1-75.1,75.9c-29.1,23.8-53.5,38.3-59.3,41.8c-33.5,19.7-62.5,30.9-78.5,36.4c-14.6,5.1-28.1,10.2-38.5,12.8
		c-2,0.5-3.5,0.4-5.3,0.9c-2.8-1.2-6.4-3.9-10.8-6.5c-3.7-2.2-8.5-5.4-14-10.3c-21-18.5-39.4-42.5-39.4-42.5
		c-18.8-24.4-28.2-36.6-39-53.6c-11.2-17.7-32.4-51.5-49-99.7c-15.8-45.5-20.1-82.4-23.5-113.3c-4-35.7-3.9-62.9-3.8-87.5
		c0.1-53.3,4.7-93.3,5.9-103.7c3.7-31.3,10.1-70.3,21.6-114.4L406,345.4z"/>
</g>
<g id="_x33_">
	<path id="elephant_2_" class="php4" d="M852.4,562.6c0.8,6.6,1.6,13.1,1,19.5c-1,26.5-7.6,50.3-25.4,71.7c-4.1,5.4-6.7,9.5-8.6,15
		c-13,31.1-26.8,63.6-38.4,94.8c-7.9,22.2-24.9,27.2-42.6,24.7c-20.6-2.6-39.3-10.2-55.9-24c-2.8-1.7-5.4-4.1-6.6-6.3
		c-3.7-6.8-10.5-11.1-16.6-14.5c-4.1-2.5-7.3-6.5-10.6-9.6c-8.4-10.1-10.1-22.5-4.6-34.9c3.9-11.2,9.2-21.4,13.1-32.5
		c1.7-2.8,1-3.5-1.8-4.5c-2.8-1.7-5.6-2-7.5-4.3c-2.8-1.7-3.4-1.8-4.4,1c-5.5,12.5-9.6,25-14.9,36.7c-1.8,4.1-3.7,9-5.5,13.1
		c-5.4,11.7-13.8,17.4-27,19c-10.9,1.1-22.1-1.3-31.9-4.5c-15.3-5-29.8-11.4-40.9-23.3c-3.9-4-7.7-9.3-9.4-14.6
		c-0.5-2.2-2.6-3.1-3.9-4.7c-5.5-2.7-9.5-6.7-12.8-9.8c-10.5-11.1-12.9-23.5-7.3-37.3c11-25.5,20.8-51.9,31-76.9
		c1.8-3.4,1.2-4.9-3.1-6c-13.1-5.5-23.4-3.6-32.4,8.5c-5,6.7-8.6,15-12.8,21.8c-9.7,19.2-20.2,38.3-29.2,58.3
		c-4.5,8.9-11.3,12.6-20.5,11.7c-11.5-0.4-21.1-4.9-29.7-12.2c-7.3-6.5-8.7-14.4-6.4-23.6c23.4-57.4,46.6-113.4,69.4-170.9
		c3.8-9.7,9.7-19.2,16.3-28.6c14.8-20.2,34.9-26.9,57.8-26.1c9.4,0.2,19.3,1.8,29.1,3.5c2.1,0.2,3.5,1,5.8-0.9
		c8.3-3.6,16.4-6.3,25.9-8.4c16.2-3.5,29.4,0.7,41.1,14c2,1.6,2.6,2.4,4.1,2.5c23.1-0.7,39.1,11.6,45.7,33.8c0.5,2.2,2.6,3.1,3.9,4
		c26.4,9.7,52,20,78.4,30.4c17.3,7.4,32.2,16,45.5,28c13.3,11.3,23.6,24.5,30.6,40.9c0.5,2.2,2.6,3.1,3.9,4
		c11.2,3.9,20.7,9.2,31.1,13c2.1,0.2,3.5,1,5.1-0.3c5.3-3.1,11.2-4.7,17.8-5.5s13.6,0.6,18.1,6c3.3,3.2,4.3,7.6,2.5,11.7
		c-1.6,2-0.3,2.8,1.1,3c2.8,1.7,3.9,4,5.9,5.6c3.7,6.8,1.7,11.7-5.7,14.6c-0.7,0-2.2,0.5-2.9,0.5c-3.5-1-5.8,0.9-7.6,5
		c-1.2,4.9-7.8,6.4-13.4,5.2c-4.9-1.2-9-3-12.3-6.2c-5.9-5.6-10.4-11.8-12.6-19.2c-0.6-0.8-0.5-2.2-1.3-2.3
		C866.3,567.5,860.1,564.8,852.4,562.6z"/>
	<path id="claw1_2_" class="php5" d="M541.7,702.8c-6.4-0.6-11.8-4-13.4-10.6c-0.6-0.8-0.5-2.9-1-4.4c-1.8-4.5-1.2-10.2,1.3-13.5
		c4.5-9.7,11-18.4,19.6-25.4c3.1-2.6,7-5.1,11.2-4c4.2,1.2,4.4,6.9,5.5,10.6c0.6,0.8,0.5,2.9,0.3,5.1c0.5,2.9-1.2,5.6-4.2,6.8
		c-9.9,5.5-15.1,14.4-18.8,24.1C541.4,697,542.6,700.1,541.7,702.8z"/>
	<path id="claw2_2_" class="php5" d="M554.7,708.4c-5.1,0.3-7-2.1-9.5-6c-3.3-3.2-3.6-8.3-1.7-11.7c3.7-8.2,8.6-15,16.3-20
		c4.6-3.1,8.1-2.1,9.7,3.8c1.3,8.7,1.2,17.3-3.1,25.5C563.7,704.9,559.6,709.6,554.7,708.4z"/>
	<path id="claw3_2_" class="php5" d="M494.2,635.1c3.7-8.2,8.7-15.7,15.6-20.8c1.6-2,3.2-3.3,5.9-1.6c2.8,0.3,2.6,3.1,3.1,5.3
		s0.5,2.9,0.3,5.1c0.5,2.9,0.3,5.1-4.2,6.8c-5.9,1.6-10.1,7.7-13.5,13.8c-1.7,2.8-4.2,6.1-3.7,9c0,0.7-0.2,2.1-1.6,2
		c-0.7,0-2-1.6-1.3-2.3C491,645.6,491.5,639.9,494.2,635.1z"/>
	<path id="claw4_2_" class="php5" d="M517.5,653.8c-1.8,3.4-3.5,6.1-6.6,8.7c-5.3,3.1-10.2,1.2-11.8-4c-0.5-2.2-1-5.1,0.6-6.4
		c2.1-7,7.8-13.6,13.3-18.9c3.2-3.3,6-3.1,6.3,2C520.2,641.1,519.5,647.5,517.5,653.8z"/>
	<path id="ear_2_" class="php5" d="M628.6,398.4c-8.7,1.3-18.3,3.3-26.9,3.2c-5.1,0.3-9.7-3-14.6-5c-2.1-0.2-3.4-1.8-6.3-2
		C600.2,387.1,617.5,385.8,628.6,398.4z"/>
	<path id="flare_2_" class="php6" d="M479.7,445.4l-1.7,2.8l-13.4,27.5l-11.2,27.6L439,533.5l-16,33.7l-2.7,6.2l-5.7,6.7l-3.1,2.6
		l14.9-36.7l9.7-19.2l9.3-22.2l15.1-37.3l7.2-15.1C469.4,448.1,474.7,445,479.7,445.4L479.7,445.4z"/>
	<path id="claw5_2_" class="php5" d="M529.6,655c3.1-2.6,7-5.1,10.6-5.5c0.7,0,2.9-0.5,3.5,1c0.6,0.8-1.6,2-1.7,2.8
		c-4.8,4.6-8.9,10.6-13,16c-2.7,5.5-4.5,10.4-5.1,16.1c0.5,2.9-1,3.5-3,1.1c-7-9.3-6.5-15,0.8-23.6C524,660.9,527.2,658.3,529.6,655
		z"/>
	<path id="eye_2_" class="php7" d="M539.7,465.4c1.1,3,1,5.1-0.8,8.6c-0.5-2.9-0.3-5.1-0.9-5.8c-0.5-2.2-2.6-3.1-3.9-4.7
		c-2.8-1.7-5.6-1.2-6.6,0.8c-2.4,2.6,2.6,3.1,1.6,5.1c-1.6,2-5.8,0.1-5.4,3.8c0.3,3.6,3.1,6,6.5,7.1c-1.6,2-2.2,0.5-3,1.1
		c-5.8,0.1-9.9-1.7-12.3-6.9c-1-4.4-0.6-7.9,3.2-11.2C524.8,455.4,535.3,457.9,539.7,465.4z"/>
	<path id="eye1_2_" class="php8" d="M536.7,473.1c0,0.7-1.6,2-2.3,1.3c-2-1.6-1.1-3-1-4.4c0.2-1.5,1.6-2,2.3-1.3
		C537.8,469.6,537.6,471.8,536.7,473.1z"/>
	<path class="php5" d="M654.3,712.1c3.5-6.9,6.9-12.3,11.6-16.1c0.8-0.6,2.4-2.6,5.1-1.6c2.1,0.2,1.3,2.3,1.8,4.5
		c0.6,7.9,0,15.1-3.6,22.7c-1.7,2.8-2.5,4.1-4.9,6c-5.3,3.1-10.7-0.3-10.8-6.8C652.5,716.2,652.7,713.3,654.3,712.1z"/>
	<path class="php5" d="M650.2,718.1c-6-4.9-5.5-9.9-3.7-14c3.2-11.2,9.7-19.2,19.1-26.9c3.2-3.3,5.9-1.6,7,2.1
		c0.5,2.2,0.3,3.6,0.9,5.8c0.5,2.9,0.1,5.8-4.2,6.8c-6,3.1-10.1,8.4-13.5,13.8C651.6,709.6,649.9,713,650.2,718.1z"/>
	<polygon class="php5" points="714.3,731.3 711.2,733.2 709.7,734.5 708.8,735.8 707.3,736.5 706.5,737.8 705.6,739.1 704.1,740.4 
		703.3,741.8 702.4,743.2 700.7,745.8 699.8,748 698.9,750 697.9,752.1 697.1,753.4 697.1,754.2 696.9,755.6 696.9,756.2 696.8,757 
		697.4,758.5 697.2,759.9 697.8,761.5 699.1,763 699.7,763.8 701.1,764.6 702.4,766.1 703.8,766.3 705.1,767.1 708,767.4 
		709.4,767.5 710.9,767 711.7,766.3 714,765.1 714.8,764.4 716.3,763.1 717.2,761.1 718.8,759.8 719.7,757.7 719.8,756.3 
		720.8,754.2 720.9,752.8 721.1,750.6 722,748.6 722.2,747.2 722.2,746.5 722.4,745 722.4,744.3 722.7,741.5 722.1,740 722.3,737.9 
		721.7,736.4 721.1,734.9 720.6,733.3 720,731.8 719.3,731.1 718,729.5 717.4,729.5 715.9,729.3 715.1,730 	"/>
	<polygon class="php5" points="717.7,725.2 717.2,723 717.4,720.9 717.5,720.1 717.6,718.7 717.1,716.5 717.3,715.1 716,712.8 
		716.1,712.1 715.5,710.6 714.9,709.2 713.7,707.6 712.3,706.7 710.9,706.6 708.6,707.1 707.2,707.7 706.4,708.3 704.1,709.6 
		702.5,710.8 701.8,711.4 699.5,713.4 697.9,714.7 696.2,716.7 695.4,718.1 693.1,720 691.4,722 690.5,724 688.1,726.7 687.2,728.8 
		685.6,730.8 684.6,733.5 683.7,735.7 682.8,737.7 682.5,740.6 682.2,744.1 682,746.2 681.8,747.7 682.3,749.9 682.9,751.4 
		684.2,753 685.6,753.8 686.2,754.5 687.6,755.4 689,756.3 691.1,756.5 692.5,756.6 694,756 694.3,753.2 695.2,751.1 696.1,749 
		697,747 698,744.9 699.5,742.9 700.5,740.1 701.3,738.8 703,737.5 704.5,735.5 705.4,734.1 707,732.8 709.3,731.6 710.1,730.2 
		711.6,728.9 713.1,729.1 713.9,728.5 714.6,727.8 716.1,727.2 717.6,726.6 	"/>
	<polygon class="php5" points="678.2,748 678.3,747.3 678.5,745.2 678.7,743.1 679.5,741.7 679.7,740.3 680.6,738.3 681.5,736.2 
		681.7,734 683.3,732 684.2,729.9 685.1,728.6 686,726.5 687.6,725.2 688.4,723.9 690,721.9 690.9,719.8 692.4,719.2 692.5,718.5 
		694.1,716.5 695.7,715.2 696.5,714.5 697.4,713.2 698.1,712.5 697.4,711.7 696.1,710.9 695.4,710.9 694.6,710.8 692.5,710.6 
		690.3,711.8 688.8,712.4 686.5,713.6 685,714.9 682.6,716.9 681,718.9 679.4,720.1 677.2,721.3 675.4,724.1 673.9,725.4 
		673.7,726.8 672.1,728.8 672.1,729.5 671.1,732.3 671,733 670.9,734.4 670.7,735.9 670.5,738 670.4,739.4 671,740.2 670.9,741.7 
		671.6,742.4 672.2,743.2 673.4,745.5 674,747 675.3,748.5 676.6,750.1 	"/>
	<path class="php5" d="M714,765.1c-3.1,2.6-4.5,2.5-4.5,2.5l-3.6-0.4l-3.5-1l-2.1-0.9l-2.1-0.9l-1.3-2.3L714,765.1z"/>
</g>
<g id="Line">
	<path id="_x31__1_" class="php9" d="M932.2,811.1l-5.4,8.1l-13,11.1c-2.5,0.7-5.8,1.6-9.9,2.4c-2.7,0.6-10.4,2.2-18.2,2.9
		c-6.9,0.6-13.7,0.4-24.4-0.8c-16-1.9-29.4-5.1-40.3-8c-25.9-6.9-45-14.2-49.1-15.8c-18.1-7-30.3-13.2-49.8-23
		c-27-13.6-47.2-25.3-55.2-30c-28.4-16.8-27.3-18.2-57.3-36.4c-18.2-11-24.3-14-65.3-37c-13.4-7.5-25.3-14.3-35.3-20
		c-12.7-7.2-26.4-12.6-40.6-15.9c-0.4-0.1-0.8-0.2-1.2-0.3c-28-6.6-32.2-8.6-44.2-11.2c-10.7-2.3-34.8-7.4-64.6-4.1
		c-15.7,1.7-28,3.2-41.2,11.7c-13.5,8.6-21,20.1-24.9,27.1l2.5,110.3c1.5-3.1,4.3-7.1,9.1-11.7c12.3-11.6,26.3-15.9,35.8-18.8
		c9.3-2.8,16.6-3.8,18.5-4c10.3-1.3,22.6-1.5,51.6,4.7c17.4,3.7,32.6,6.9,52.9,14.3c19.6,7.2,32.9,14.2,52.9,24.8
		c23.1,12.3,40.1,23,54.7,32.3c28.4,18,30.7,21.2,52.8,35.3c7.9,5,34.1,21.6,69.5,39.1c48.9,24.3,79.8,32.9,89.1,35.4
		c17.8,4.8,40.8,9.6,65.7,4.3c18.4-3.9,27-10.9,31.7-16.2c5.4-6,8.1-12.3,9.6-16.5L936,804.8L932.2,811.1z"/>
</g>
<g id="word">
	<path class="php10" d="M578.8,713.3c3.6,2.8,6,5.5,7.5,8.9c1.3,2.9,1.8,5.9,1.5,9.1c-0.4,4.5-2.1,8.5-4.6,12.2
		c-1.8,2.7-3.8,5.4-6.1,7.6c-2.8,2.6-5.8,4.9-9.3,6.7c-2.2,1.1-4.4,2-6.8,2.7c-1.9,0.5-3.9,1-5.9,1.2c-1.9,0.2-3.8,0.2-5.7,0
		c-1.5-0.2-3.1-0.6-4.5-1.1c-1.6-0.5-3.3-1.2-4.9-1.8c-1.9-0.8-3.9-1.7-5.8-2.7c-2.1-1.1-4.2-2.3-6.3-3.4c-1.4-0.8-2.9-1.6-4.3-2.5
		c-0.9-0.5-1.3-0.5-1.9,0.2c-1.2,1.5-2.5,3.1-3.8,4.5c-2.1,2.4-4.1,4.8-6.1,7.2c-1,1.2-1.9,2.3-2.9,3.5c-0.3,0.4-0.6,0.4-1.1,0.2
		c-2.1-1.2-4.2-2.3-6.2-3.4c-1.8-1-3.5-1.9-5.2-2.9c-0.5-0.3-1.1-0.6-1.6-1c0.4-0.5,0.8-0.9,1.2-1.4c1.5-1.9,3.1-3.7,4.7-5.5
		c2.5-2.9,4.9-6,7.4-8.9c1.5-1.7,2.9-3.4,4.4-5.1c2.1-2.4,4-4.8,6.1-7.2c1.7-2,3.4-4,5.2-6c1.9-2.2,3.7-4.4,5.5-6.6
		c1.4-1.7,2.9-3.3,4.3-5.1c1.5-1.7,2.8-3.4,4.3-5.1c1.2-1.5,2.5-2.9,3.8-4.3c1.2-1.4,2.3-2.8,3.5-4.2c0.8-1,1.8-2.1,2.5-3.1
		c0.2-0.3,0.5-0.2,0.7-0.1c3.8,2.2,7.6,4.2,11.5,6.3s7.7,4.3,11.6,6.4C574.2,710.3,577,711.8,578.8,713.3z"/>
	<path class="php10" d="M655.8,807.9c1.5-2,3.1-3.9,4.7-5.8c1.2-1.4,2.3-2.8,3.5-4.2c1.2-1.3,2.2-2.9,3.4-4.2
		c1.2-1.4,2.3-2.8,3.5-4.2c1.3-1.5,2.5-3.1,3.8-4.7c1.2-1.4,2.2-2.8,3.3-4.2c0.4-0.5,0.8-0.5,1.3-0.2c4.6,2.5,9.3,5,14,7.4
		c3.3,1.7,6.5,3.5,9.8,5.2c2,1,3.9,2.1,5.7,3.4c3.4,2.5,6.2,5.6,7.7,9.5c0.6,1.8,1,3.6,1.1,5.5c0.1,2.1-0.2,4.2-0.7,6.2
		c-0.5,1.9-1.4,3.8-2.4,5.6c-1.2,2.3-2.7,4.3-4.2,6.3c-1.5,1.9-3.2,3.6-5.1,5.2c-1.8,1.5-3.6,2.8-5.6,4.1c-1.3,0.8-2.7,1.4-4.1,2
		c-2.9,1.2-5.9,2.1-9.1,2.5c-2.5,0.3-4.9,0.2-7.4-0.3c-2.4-0.6-4.9-1.4-7.3-2.4c-2.8-1.1-5.5-2.6-8.2-4c-2.1-1-4.1-2.2-6.1-3.3
		c-0.7-0.3-1.4-0.6-2-1c-0.4-0.3-0.7,0.2-0.8,0.3c-1.6,1.9-3.1,3.8-4.6,5.7c-1.7,2.1-3.5,4.2-5.2,6.3c-0.9,1.1-1.8,2.3-2.8,3.3
		c-0.2,0.2-0.3,0.2-0.5,0.1c-1.5-0.8-2.9-1.5-4.4-2.3c-1.8-0.9-3.5-1.8-5.3-2.8c-1-0.5-2-1.1-3-1.5c-0.4-0.2-0.2-0.5,0-0.7
		c1.3-1.6,2.6-3.2,4-4.8c1.1-1.3,2.2-2.7,3.3-4.1c1.2-1.5,2.4-2.9,3.6-4.4c1.9-2.4,3.8-4.7,5.7-7c1.6-2,3.2-4,4.9-6
		c1.8-2.2,3.5-4.5,5.2-6.8C655.6,807.8,655.7,807.9,655.8,807.9z"/>
	<path class="php10" d="M591.6,821.1c1.2-1.4,2.3-2.5,3.4-3.8c1.1-1.3,2.1-2.6,3.2-3.9c1.2-1.5,2.5-3,3.8-4.5s2.6-3,3.9-4.4
		c1-1.1,1.9-2.3,2.9-3.4c1.4-1.5,2.7-3.1,4-4.6c1.2-1.5,2.5-2.9,3.7-4.3c1-1.2,1.8-2.5,2.6-3.9c1-1.8,0.7-4.7-0.8-6.2
		c-1.9-1.8-4.1-3.1-6.4-4.4c-1.8-1-3.4-2.2-5.2-3.2c-1.2-0.6-2.3-1.3-3.5-1.9c-0.4-0.3-0.8-0.1-1.2,0.4c-1.4,1.4-2.6,3-3.9,4.4
		c-1.3,1.5-2.5,2.9-3.7,4.4c-1.3,1.5-2.6,3-3.9,4.5c-0.9,1-1.7,2.1-2.6,3.1c-1.7,1.9-3.4,3.9-5.1,5.8c-1.4,1.7-2.9,3.5-4.3,5.1
		c-1.3,1.5-2.6,3-3.9,4.5c-1.3,1.4-2.5,2.8-3.6,4.3c-0.2,0.3-0.3,0.2-0.6,0.1c-3.6-2-7.2-4.1-10.9-6.1c-0.8-0.5-1.6-0.9-2.4-1.4
		c-0.4-0.3-0.4-0.5-0.1-0.9c1.4-1.7,2.8-3.3,4.3-5c1.3-1.5,2.6-2.9,3.9-4.4c1.3-1.5,2.6-3.1,4-4.6c1.3-1.4,2.4-2.9,3.6-4.3
		c1.3-1.5,2.6-3,4-4.5c1-1.2,2-2.5,3-3.6c1.6-1.7,3.1-3.6,4.6-5.3c1.1-1.2,2-2.5,3.1-3.7c1.4-1.7,3-3.3,4.4-5
		c1.3-1.5,2.5-3.1,3.8-4.5c1.4-1.5,2.7-3.3,4.1-4.8c1.6-1.7,3-3.5,4.7-5.3c2-2.1,3.7-4.4,5.6-6.4c0.7-0.8,1.4-1.7,2.1-2.5
		c0.2-0.3,0.4-0.3,0.7-0.1c2.6,1.5,5.2,2.9,7.8,4.4c1.7,1,3.4,1.9,5.1,2.9c0.4,0.3,0.9,0.5,0.2,1.2c-1.9,2-3.5,4.2-5.3,6.2
		c-1.4,1.7-2.9,3.2-4.4,4.9c-1.4,1.7-2.9,3.3-4.3,5c-0.5,0.6,0.3,0.8,0.6,0.8c1,0.5,2,1.1,3,1.7c1.8,1,3.6,2,5.5,3
		c2.1,1.3,4.2,2.4,6.2,3.8c2.5,1.7,4.8,3.5,6.8,5.8c1.4,1.5,2.6,3.2,3.3,5.1c0.6,1.7,1.1,3.6,0.7,5.5c-0.3,1.7-0.9,3.3-1.6,4.9
		c-1,2.1-2.2,3.8-3.6,5.6c-1,1.3-2,2.4-3,3.7c-1.5,1.8-3.1,3.5-4.6,5.3c-2,2.4-4.2,4.8-6.3,7.3c-1.6,1.9-3.2,3.8-4.8,5.7
		c-1.1,1.3-2.3,2.5-3.3,3.8c-1.2,1.5-2.7,2.8-3.7,4.4c-0.2,0.3-0.6,0.6-0.8,0.9c-0.3,0.3-0.7,0.2-1.1,0c-2.5-1.5-5-2.8-7.5-4.3
		C595.7,823.4,593.7,822.3,591.6,821.1z"/>
	<path class="php9" d="M535.5,738.6c1-1.2,2-2.3,3-3.5c1.4-1.7,2.7-3.4,4.2-5.1c1.3-1.5,2.5-3,3.8-4.6c1.7-2.1,3.5-4.3,5.3-6.4
		c1.3-1.6,2.6-3.1,3.9-4.7c0.3-0.4,0.6-0.3,0.8-0.2c2.4,1.2,4.9,2.4,7.2,3.8c2.1,1.3,4.2,2.6,6,4.3c1,0.9,2,1.7,2.8,2.8
		c1.1,1.6,1,3.2,0.5,4.8c-1,3.4-3.2,6.2-5.5,8.9c-1.5,1.7-3,3.2-4.7,4.5c-1.8,1.4-3.8,2.5-6.1,2.9c-1.5,0.3-3.1-0.1-4.6-0.4
		c-2.5-0.6-4.9-1.5-7.2-2.5s-4.7-2.1-6.9-3.5C537,739.4,536.2,739.1,535.5,738.6z"/>
	<path class="php9" d="M665.6,820.8c0.9-1.2,1.8-2.3,2.7-3.5c1.2-1.7,2.5-3.4,3.8-5.1c1.2-1.5,2.3-3,3.4-4.6c1.6-2.1,3.2-4.3,4.8-6.4
		c1.2-1.6,2.4-3.1,3.5-4.7c0.3-0.4,0.5-0.4,0.8-0.2c2.4,1.1,4.8,2.1,7.1,3.3c2.1,1.1,4.1,2.3,5.9,3.8c1,0.8,2,1.5,2.8,2.6
		c1.1,1.5,1.1,3,0.7,4.6c-0.8,3.3-2.7,6.1-4.8,8.8c-1.3,1.7-2.7,3.3-4.3,4.6c-1.7,1.4-3.6,2.6-5.7,3.1c-1.5,0.3-3,0.1-4.5-0.2
		c-2.4-0.5-4.8-1.2-7.1-2.1c-2.3-0.9-4.6-1.8-6.8-3C667,821.5,666.3,821.3,665.6,820.8z"/>
</g>
</svg>
