<?xml version="1.0" encoding="utf-8"?>
<!-- Generator: Adobe Illustrator 21.0.1, SVG Export Plug-In . SVG Version: 6.00 Build 0)  -->
<svg version="1.1" id="Layer_2" xmlns="http://www.w3.org/2000/svg" xmlns:xlink="http://www.w3.org/1999/xlink" x="0px" y="0px"
	 viewBox="0 300 1280 1280" style="enable-background:new 0 0 1280 1280;" xml:space="preserve">
<style type="text/css">
	.pug0{fill:#735337;}
	.pug1{fill:#CA9249;}
	.pug2{fill:#FCFAB8;stroke:#F9F7CD;stroke-width:9;stroke-miterlimit:10;}
	.pug3{fill:#FBD5A0;}
	.pug4{fill:#F7BD89;}
	.pug5{fill:#050202;}
	.pug6{fill:#4D4D4D;}
	.pug7{fill:#FFFFFF;}
	.pug8{fill:#808080;}
	.pug9{fill:#F7D474;}
</style>
<path class="pug0" d="M328,784.7l-8.8-5c-1.7-1.1-4.2-2.6-7.3-4c-5.2-2.3-9.3-3.1-16-4.3c-8-1.4-12.1-2.1-17.3-1.3
	c-3.9,0.6-7.5,1.2-9.8,4.3c-2.3,3-2,6.9-1.8,9.8c0.2,2.4,0.9,6,3.3,10c1.6,2.8,3.4,4.7,14.3,12.8c7.7,5.7,11.7,8.7,17.3,12
	c4.1,2.5,7.7,4.4,10.5,5.8l15.5-34.8V784.7z"/>
<path class="pug0" d="M941,835.9c1.3-0.4,3.1-1.1,5.3-2c0.9-0.4,4.4-1.8,6.5-3c2.1-1.2,5.7-3.7,9-9.3c2-3.9,8.6-2.7,12-1.3
	c2.6,1.1,4.3,7.9,10,11.3c8.5,5.1,14.2,10.3,15.8,11.8c7,6.5,11.3,10.6,14,17.8c2.9,7.8,2.2,14.7,1.8,18c-0.5,3.9-1.4,10.7-6.3,17.3
	c-3.4,4.5-7,6.8-12.3,10c-2.6,1.6-9.1,5.3-18.3,7.8c-9,2.4-16.1,2.3-18.3,2.3c-2.2-0.1-50.7-0.9-34.5,0.2c2,0.1,7.8-3.6,8-5.6
	l11.8-26.6L941,835.9z"/>
<path class="pug1" d="M295.5,470.5L411,343c0.7,1.2,1.7,2.9,3,5c17.1,26.3,45.5,36.8,67.5,43.5c46.1,14.1,81.6,25,135.5,25.5
	c79.3,0.8,136.6-21.5,149-26.5c37.3-15,65.4-33.5,84-47.5l116,127.5c-0.8,1.2-2.1,2.9-3.5,5c-6.9,10-32.7,48.5-42,95
	c-11.5,57.2,5.8,107.6,13.5,127l6.5,16.5c1.9,6.6,4.6,16.3,7.5,28c2.6,10.5,6.3,25.9,8,35c7.8,41.3,0.1,79.5-1.5,87
	c-2,9.5-6.8,28.7-17.5,51c-6.1,12.7-15.6,32-34.5,52c-5.5,5.8-24.2,24.8-53.5,39c-11.6,5.6-24,10.1-44.5,17.5
	c-12.8,4.6-19.4,6.6-32.5,12c-15.6,6.4-26.5,11.8-29,13c-14.7,7.3-25.8,14-31.5,17.5c-7.5,4.7-19.1,11.9-33,23
	c-8.8,7.1-14.4,11.5-21,19c-4.3,4.8-11.1,12.6-17,24.5c-4.8,9.8-7.2,18.7-8.5,25c-0.8-1.4-2-3.4-3.2-6c-3.9-8.1-5.3-14.7-5.8-16.5
	c-2.4-9.4-9.6-17.5-18-27c-9.2-10.4-19.9-19.5-38.5-32c-20.2-13.6-36.8-24.8-61.5-35c-23.3-9.7-28.6-8.1-63-22
	c-14.7-5.9-22-8.9-31.5-14c-11.4-6.1-33.5-18.2-54.5-41.5c-23.4-25.9-33.1-52-38.5-67c-2.5-6.9-9-26.1-12-52
	c-2.6-22.7-1.2-39.8,0-54.5c2.5-29.8,3.8-44.8,12-62c3.5-7.3,8.1-14.9,13.5-29.5c1.2-3.2,4.5-12.5,7.5-25c2.2-9.4,7.1-32.3,6.5-62.5
	c-0.6-28.8-5.8-50.2-7-55c-4.1-16.4-12.1-40.4-28.5-66.5L295.5,470.5z"/>
<path class="pug2" d="M317,478.7l97-109.6c0.6,1.1-1.3-1.9,0,0c16,24.7,56.5,39.1,77.1,45.4c43.1,13.2,76.4,23.4,126.8,23.9
	c74.2,0.7,127.8-20.1,139.4-24.8c34.9-14,70.6-35.1,88-48.2l102,108c-0.8,1.1,1.4-2,0,0c-6.4,9.4-36.7,65.1-45.4,108.7
	c-10.7,53.6,5.4,100.7,12.6,118.9l6.1,15.4c1.8,6.2,4.3,15.2,7,26.2c2.5,9.8,5.9,24.2,7.5,32.8c7.3,38.7,0.1,74.4-1.4,81.4
	c-1.9,8.9-6.3,26.8-16.4,47.7c-5.7,11.9-14.6,30-32.3,48.7c-5.2,5.4-22.7,23.2-50.1,36.5c-10.8,5.2-22.4,9.4-41.6,16.4
	c-12,4.3-18.1,6.2-30.4,11.2c-14.6,6-24.8,11-27.1,12.2c-13.8,6.8-24.1,13.1-29.5,16.4c-7.1,4.4-17.9,11.1-30.9,21.5
	c-8.3,6.6-13.4,10.8-19.7,17.8c-4,4.5-8.5,6.8-14,17.9c-4.5,9.2-11.6,20.4-12.8,26.3c-0.8-1.3-2.4-10.3-3.5-12.7
	c-3.6-7.6-6.2-12.4-6.2-12.4s-4.7-10.3-12.6-19.2c-8.7-9.7-18.6-18.2-36-29.9c-18.9-12.7-34.5-23.2-57.6-32.8
	c-21.8-9-26.8-7.6-59-20.6c-13.7-5.5-20.6-8.3-29.5-13.1c-10.6-5.7-31.3-17.1-51-38.8c-21.9-24.2-31-48.7-36-62.7
	c-2.3-6.5-8.5-24.4-11.2-48.7c-2.4-21.2-1.2-37.3,0-51c2.4-27.9,3.5-41.9,11.2-58c3.3-6.8,7.6-14,12.6-27.6c1.1-3,4.2-11.7,7-23.4
	c2.1-8.8,6.6-30.3,6.1-58.5c-0.5-26.9-5.4-47-6.6-51.5c-3.9-15.3-11.3-37.8-26.7-62.2L317,478.7z"/>
<g id="Layer_5">
	<g>
		<path class="pug3" d="M547.2,497.1c10.9-6.2,22.9-9,34.8-11.6c16.4-3.5,33.2-5.7,50-4.9c25.7,1.3,50.9,5.1,74.3,16.4
			c-0.3,3.6-3.9,3.2-5.8,4.8c-1.9,1.6-4.1,2.9-6.1,5.2c6.2,2.2,12.9,2.6,18.5,5.8c9,5.5,18.8,9.4,27.5,15.7
			c29.9,21.6,47.8,50.7,55.5,86.5c2,9.6,3.8,19.3,3.8,29.1c0,1.3-0.1,2.9,0.6,4.1c4.3,6.1,1.9,11.9-0.1,18
			c-6.7,19.7-17.8,36.5-33.8,50.1c-6.4,5.4-13.5,9.6-21.9,10.7c-11,1.3-16.7-3.6-17.4-14.6c-0.4-6.4,0.7-12.5,1.4-18.7
			c2.5-22.2-5.8-39.1-24.3-50.9c-9.7-6.1-19.9-11.7-31.6-13.5c-9.1-2.8-18-6.5-27.5-8c-19-2.8-37.7-1.7-55.9,5.2
			c-1.9,0.7-3.6,1.4-5.7,1.6c-20.7,4.3-38.8,13.3-51.9,30.7c-8.8,12-8.3,25.8-7,39.6c0.4,4.6,0.7,9.4,0.6,14.1
			c-0.4,11-7.2,16.2-18.1,14.1c-9.4-1.9-17-7-23.9-13.2c-15.7-14.2-25.8-31.9-31.9-52c-1.2-3.9-1.4-7.7,0.6-11.9
			c3.2-6.8,2.2-14.6,3-22c4.3-31.9,17-60,39.1-83.2c10.6-11.2,23.2-19.9,37.1-26.8c2.3-1.2,4.6-2.2,6.7-3.8
			c6.1-3.9,13.3-4.3,20.3-6.8c-1.2-3-3.9-3.8-6.1-5.4C550.3,500.3,547.4,500.1,547.2,497.1z"/>
		<path d="M547.2,497.1c4.8,3.3,10.9,5.1,14.5,10.9c-7.8,2-15.5,3.2-22.6,6.5c-16.7,7.4-33,15.4-47.1,27.2
			c-25.5,21.6-38.5,49.1-39.6,82.6c-0.1,5.7,0.1,11.3-0.1,17.1c0,2,0.3,4.8-2.2,5.7c-3,1-3.9-1.9-5.1-3.8
			c-12-12.6-24.1-25.1-39.4-34.1c-10.7-6.4-14.1-17.4-16.1-28.8c-4.1-23,5.2-41.3,21-57.1c10-10,22.2-16.8,35.5-21.2
			c26.4-8.6,53.3-12.8,81-9.6C534.1,493.2,540.6,495.5,547.2,497.1z"/>
		<path d="M712.2,513.8c-6.5-2.6-13.5-3.9-20.7-5.7c3.5-5.9,9.7-7.8,14.8-11.2c39.6-11.6,77.7-5.5,114.2,11c22,10,37.4,27,42.8,51.3
			c3,13.9,0.6,27.2-6.2,39.7c-2.3,4.2-5.4,7.7-9.6,10c-15.4,8.6-27.1,21-39,33.6c-0.9,2.5-2.2,4.6-4.9,3.9c-2.6-0.7-2.2-3.5-2.2-5.5
			c0-11.9-0.1-23.8-2.5-35.6c-6.5-32.2-24.3-56.2-51.6-73.9C736.2,524.3,724,519.4,712.2,513.8z"/>
		<path class="pug4" d="M712.2,513.8c18.8,5.5,35.6,14.8,50.7,27.4c15.4,12.9,26.4,28.7,33,47.7c6.5,18.5,7.7,37.8,6.5,57.4
			c3,0.1,3.9-2.6,6.1-3.3c-1,20.1-8.1,38.1-19.6,54.5c-14.2,20.3-32.6,35.9-54.3,47.5c-4.6,2.5-6.5,5.2-6.1,10.4
			c0.3,3.3,1.2,7.1-0.7,10.3c-2.5-2-1.4-5.1-1.9-7.7c-0.3-2,1.2-4.3-1.4-5.8c-2.3,0-4.6,2.6-7,0c-0.7-2.2,0-4.3,0.6-6.4
			c3-11.6,3.8-23.6,4.2-35.5c0.3-7.4,0.1-14.9,0.6-22.3c0.6-8.4-2.6-16.1-7.5-23c-9.9-13.6-22.3-24.1-37-32.2
			c-2.2-1.2-4.9-1.9-5.5-4.9c4.8-0.9,8.8,1.7,12.9,3.5c15.1,6.4,29.7,13.8,38.1,28.8c5.5,9.9,8.3,20.4,6.2,32
			c-1,6.1-1.4,12.5-1.4,18.7c-0.1,12,7,17.4,18.4,14.1c7.5-2.2,14.2-6.1,20.3-11.4c16.2-14.5,26.8-32.5,33.2-53.2
			c1-3.5,2.2-6.8-1.2-9.7c-1.6-1.4-1.2-3.6-1.2-5.5c-1.9-42-16.2-78.5-48.1-107.1c-8.4-7.5-18.1-13.6-28.4-18.5
			C718.4,517.8,714.6,517,712.2,513.8z"/>
		<path class="pug4" d="M445.1,643c2,0.6,2.8,3.3,5.8,3.2c-2.8-34.5,3.6-66.4,27-93c16.5-18.8,37.2-31.4,61.2-38.8
			c-4.2,3.9-9.7,5.7-14.6,8.6c-28.4,16.4-48,40.1-59.4,70.7c-5.8,15.2-8.8,31-9.7,47.4c-0.1,3.9,0.3,8.6-3.5,11.9
			c-1.6,1.3-0.1,4.2,0.4,6.1c7.4,24.9,20.1,46.2,42.2,60.9c4.9,3.3,10.4,5.4,16.5,5.5c8.4,0.1,12.6-3.9,12.9-12.3
			c0.4-10.6-1.7-21-1.3-31.6c0.6-10.9,4.5-20,11.6-28.1c12-14.2,28.3-21,45.5-26.2c1-0.3,2.3-0.1,3.5-0.3c-0.9,3.5-4.1,3.9-6.5,5.2
			c-15.7,8.4-28.8,19.4-38.8,34.1c-5.9,8.7-8.4,18.3-6.7,29c1.4,9.7,0,19.4,1.2,29.3c1,8.4,1.7,16.7,4.1,24.8c0.3,1,0.3,1.9,0,2.9
			c-4.6,3-7.5-1.3-11-2.8c-0.4-0.4-0.9-0.9-1.2-1.3c-11.6-7.2-23.3-14.2-33.8-23.2c-23.5-20.4-40.1-44.8-44.2-76.4
			C445.7,646.5,445.4,644.8,445.1,643z"/>
		<path d="M535.8,752.6c-4.6-13.3-5.5-27.2-5.9-41.2c-0.1-6.7-0.4-13.3-1-20c-0.9-10.9,2.6-20.4,9-29c10.7-14.5,24.5-25.2,40.6-33.2
			c1.6-0.7,3-1.6,4.6-2.5c17-6.5,34.5-10,52.7-8.6c13,1,25.2,5.1,37.2,9.7c14.3,7.7,27.7,16.8,38.5,29.3
			c9.7,11.3,14.5,23.6,12.9,38.8c-1.7,15.5-0.1,31.3-3.8,46.8c-0.9,3.5-2,6.7-3,10.1c0.4,6.1-4.2,8.6-8.4,10.7
			c-4.8,2.6-10.1,4.2-15.7,4.6c-5.2,0.3-10,1.6-14.8,3.6c-8.3,3.5-16.8,5.1-25.8,4.9c-18-0.4-35.9-0.1-53.9,0
			c-4.8,0-9.4-0.1-13.9-1.6c-11.3-3.6-22.8-6.7-34.5-8.8C543.6,764.9,536.7,761.4,535.8,752.6z"/>
		<path d="M721.7,638.1c-8.8-18-4.8-35.1,10.4-43.9c17.7-10.1,40.1-0.4,44.9,19.4c0.4,1.9,0.7,3.8,1.2,5.8
			c1.7,13.5-5.5,25.4-18.8,31.2c-12.2,5.2-26.1,2-34.6-8.1C723.6,641.2,722.4,639.7,721.7,638.1z"/>
		<path d="M475.7,616.1c3.2-12.2,10-21.2,22.5-24.6c12.2-3.5,24.9,1,32.5,10.9c7.7,10.1,8.4,23.5,1.6,34.6c-0.9,1.3-1.6,2.6-2.5,3.9
			c-8.3,10.6-19,14.6-31.7,11c-12.6-3.6-20.9-12.2-23.2-25.5C474.2,622.7,474.4,619.4,475.7,616.1z"/>
		<path class="pug4" d="M692.9,626.4c-43.9-27.1-88.4-27.2-132.9,0.4c3.8-9.4,40.7-29.1,57.4-30.9C649.4,592.5,683,613.3,692.9,626.4
			z"/>
		<path class="pug4" d="M677.1,603c-33.5-20.4-67-20.7-100.6,0C597.8,573,656.2,573,677.1,603z"/>
		<path class="pug4" d="M573.3,501.5c35.4-18.3,70.7-18.4,106.2-0.1C644.2,490.1,608.7,490,573.3,501.5z"/>
		<path class="pug5" d="M475.7,616.1c0,18.8,8.1,30.9,23.6,34.5c12,2.9,21.9-1.3,30.4-9.7c-8.6,14.9-22.9,18.8-38.1,12.9
			c-14.5-5.5-22-22-17.4-35.4C474.5,617.5,475.2,616.8,475.7,616.1z"/>
		<path class="pug5" d="M721.7,638.1c8.4,10.1,18.8,15.4,32,12.6c14.6-3,23-14.1,24.5-31.2c5.1,16.4-6.7,33.9-24.1,36.4
			c-11.9,1.7-22-1.7-29.4-11.6C723.2,642.5,721.7,640.7,721.7,638.1z"/>
		<path class="pug6" d="M665.4,739.8c-12.9-0.1-25.5-3-38.5-2.9c-12.8,0.1-25.2,2.9-38.1,3.8c0.4-1.9,1.9-1.9,3-2.2
			c9.9-3.2,19.7-6.4,29.6-9.3c2.6-0.7,2.8-2.2,2.8-4.3c0-18.3-0.1-36.5,0-54.6c0-3.8-1.6-4.5-4.8-4.8c-7.4-0.9-13.9-4.1-18.8-9.9
			c-4.9-5.8-3.9-12.3,2.8-16.4c8.1-4.9,17.1-5.4,26.1-5.1c5.9,0.1,12,0.7,17.7,3.5c10.6,5.1,11.6,14.5,2.2,21.4
			c-4.8,3.6-10.1,5.9-16.2,6.4c-3.2,0.3-4.5,1.6-4.5,4.8c0.1,18,0.1,36.1,0,54.1c0,3.2,1.4,4.2,4.3,4.9
			C644,731.9,654.2,736.9,665.4,739.8z"/>
		<path class="pug7" d="M754.9,614.9c-4.5-0.1-7.7-3.6-7.5-8.1s3.6-7.7,8.1-7.5c4.5,0.1,7.7,3.6,7.5,8.1
			C762.7,611.9,759.4,615.1,754.9,614.9z"/>
		<path class="pug7" d="M521.9,607.2c0,4.5-3.3,7.8-7.8,7.7c-4.3,0-7.8-3.5-7.8-7.8c0-4.3,3.5-7.7,8-7.7
			C518.6,599.4,521.9,602.7,521.9,607.2z"/>
		<path class="pug8" d="M626.4,645.5c-2.8-0.4-6.8-0.4-6.4-4.1c0.4-3.8,4.6-3.2,7.7-3.2c2.6,0,6.1,0,5.9,3
			C633.3,644.8,629.8,645.8,626.4,645.5z"/>
	</g>
</g>
<path class="pug9" d="M1010.9,855.9c0.7-0.6,0.4-3.2-6.1-13.9l-21.8-60l-15.3-38.5c-1.3-0.9-3.3-2.3-5.8-3.8
	c-3.5-2.1-16.7-10.1-38.5-16c-14.6-4-25.9-5.1-37-6.3c-12.6-1.3-22.2-1.4-28.8-1.5c-26-0.3-45.2,2.2-49.5,2.8
	c-5.4,0.7-12.6,1.8-31.8,6c-26.4,5.7-42.4,9.2-64,15.5c-30,8.8-52.2,17.5-71,25c-11.9,4.7-23.9,9.5-39.5,16.8
	c-8.2,3.8-11.6,5.7-22.8,10.8c-15,6.9-26.4,11.6-29.8,13c-14.2,5.9-23.5,9.7-36.5,14c-13.9,4.6-24.6,7.2-34,9.5
	c-12.5,3.1-23.8,5.8-39.3,8c-2.7,0.4-14.2,2-30,2.8c-17.3,0.9-33,1.7-52.8-1.5c-7.7-1.2-18.7-3.5-31.8-8l-11-4.3l-13.4-7.9l-12-8.3
	l-18.3-15.8l-3.3-10l0.9-8.3l-39.9,96.3c-0.1,0.8-0.2,2,0,3.5c0.8,6.6,6.3,10.9,8.5,12.8c14.4,11.7,11,13.3,26.2,23.8
	c3.6,2.5,17.4,11.6,40.5,20c4.4,1.6,21.3,7.5,47.8,11.8c8.8,1.4,40,6,82.8,3c24.8-1.7,43-5.3,59.3-8.5c38-7.5,66.1-17,86.5-24
	c30.3-10.4,53.8-20.4,82.8-32.8c24.9-10.6,26.9-12.2,47.3-20.5c20.3-8.3,41.7-17.1,70-25.8c48.2-14.8,82.5-19.1,92.8-20.3
	c19.9-2.3,33.1-2.4,45-1.8c19.1,1.1,32.5,1.8,47.5,8.3C993.3,833.8,1008.4,857.9,1010.9,855.9z"/>
<path class="pug7" d="M592.2,808.9c0.2,0.6,0.6,0.7,1.1,0.9c0.5,0.1,0.8,0.4,0.8,0.9c0.8,1.3,1.7,2.6,2.5,3.8c0.3,0.5,0.8,0.9,1,1.5
	c2,4.6,2.8,9.6,4.7,14.3c0.2,0.6,0.3,1.3,0.2,1.9c0.3,1,0.5,2,0.9,3c0.7,1.9,1.1,3.9,1.4,5.8c1,1.9,0.4,3.9-0.1,5.8
	c-1.5,5-4.5,8.8-9.2,11.1c-1.1,0.4-2.2,0.6-3.1,1.2c-0.4,0.3-0.9,0.4-1.4,0.5c-1.1,0-2,0.4-3.1,0.6c-0.1,0-0.2,0-0.3,0
	c-0.4,0.4-0.1,0.9,0,1.3c3.2,10.1,6.4,20.2,9.6,30.4c0.1,0.2,0.2,0.5,0.3,0.7c0.3,0.7,0.6,1.4,0.6,2.2c-0.2,0.5-0.3,1-0.5,1.5
	c-3.3,1.8-6.9,2.7-10.5,3.8c-0.8,0.3-1.5,0.3-2.3,0.3c-1.6-0.2-1.7-1.7-2.2-2.8c-0.9-0.5-1.1-1.5-1.4-2.3
	c-3.6-11.4-7.3-22.8-10.8-34.3c-0.7-2.3-0.9-4.8-1.8-7.1c-4.5-11.1-7.4-22.8-11.2-34.1c-0.3-1-0.8-2-0.4-3.1
	c-0.2-0.9-0.5-1.8-0.7-2.7c-0.2-0.7-0.3-1.3,0.2-1.8c5-2.6,10.5-3.6,15.7-5.4c2.1-0.7,4.3-1.4,6.4-2c1.5-0.2,3-0.5,4.4,0.3
	c0.1,0,0.2,0.1,0.4,0.1c2.1,0.3,4.1,0.7,6,1.7C590.7,807.3,591.5,808,592.2,808.9z"/>
<path class="pug7" d="M667.1,830.3c0.9,3,1.8,6,2.8,9.1c1.5,5,3.1,9.9,4.7,14.9c0.2,0.1,0.3,0.2,0.3,0.4c0.1,0.5,0.1,0.9,0.2,1.4
	c0.1,0.7,0.1,1.4,0.1,2.1c-0.5,7.7-5.2,13.6-12.6,15.9c-3.8,1.2-7.6,2.7-11.8,1.9c-6.1-1.2-10.7-4.3-13.3-10.2
	c-7.5-23.8-15-47.6-22.5-71.4c-0.3-0.9-0.8-1.9-0.5-2.9c0.2-0.4,0.4-0.8,0.6-1.2c0.5-0.6,1.3-0.9,2.1-1.1c3.6-1.1,7-2.5,10.8-3
	c0.4,0.2,0.8,0.4,1.2,0.6c0.8,0.9,1.1,2.1,1.5,3.2c6.9,22,13.8,43.9,20.8,65.9c0.3,1,0.5,2.1,1.3,2.9c1.5,1.4,2.5,1.5,4.1,0.7
	c1.6-0.9,1.7-2.2,1.2-3.8c-0.2-0.8-0.5-1.5-0.7-2.3c-6.8-21.5-13.6-43.1-20.4-64.6c-0.3-1-0.7-2-0.8-3.1c-0.1-0.4,0-0.8,0.2-1.1
	c0.1-0.3,0.1-0.6,0.2-0.9c4.2-2.4,8.9-3.5,13.6-4.3c1.1,0.6,1.4,1.7,1.7,2.7c3.9,12.5,7.9,25,11.8,37.5c0.2,0.7,0.5,1.4,0.7,2.1
	c1.3,1.1,1.3,2.6,1.8,4.1C665.9,827.3,666.9,828.7,667.1,830.3z"/>
<path class="pug9" d="M578.9,834.1c-1.2-3.8-2.4-7.6-3.6-11.3c-0.4-1.4-0.4-1.4,0.9-1.8c0.9-0.3,1.8-0.6,2.6-0.8c1.8-0.5,3.3,0.3,4,2
	c0.2,0.5,0.4,1,0.5,1.5c1.8,5.6,3.5,11.2,5.3,16.8c1,3,0.2,4.4-2.8,5.4c-3.6,1.1-2.9,1.4-4-2C580.9,840.5,579.9,837.3,578.9,834.1
	C578.9,834.1,578.9,834.1,578.9,834.1z"/>
<path class="pug7" d="M699.5,797.1c5.4-1.7,10.8-3.4,16.2-5.2c1-0.3,1.8,0.1,2.6,0.6c1.4,4.6,2.6,9.2,4.3,13.6
	c3.1,7.8,5.1,15.9,7.8,23.8c0.1,0.5,0.3,0.9,0.4,1.4c0.8,9.5-3.9,16.5-13,19.3c-2.3,0.7-4.5,1.6-6.9,1.8c-8.4,0.8-15.8-4-18.4-12.1
	c-6.1-19.4-12.2-38.8-18.4-58.2c-2.9-9.3,2-18.8,11.4-21.8c3-0.9,6-2.1,9.2-2.2c7-0.2,13.8,4.2,16.4,10.8c0.4,2.1,1.8,4.1,1.5,6.4
	c-0.2,1-1,1.7-1.8,2.3c-3,2.3-6.1,4.6-9.1,7c-0.8,0.6-1.6,1-2.5,0.2c-1.5-0.9-1.3-2.7-1.9-4c-0.5-1.4-0.9-2.9-1.4-4.3
	c-0.7-2-1.9-2.6-3.8-2.1c-2,0.6-2.6,1.8-2,4c0.2,0.7,0.4,1.4,0.7,2.1c5.5,17.2,10.9,34.4,16.3,51.6c0.3,0.8,0.5,1.7,0.8,2.5
	c0.7,1.7,1.9,2.3,3.6,1.7c1.7-0.6,2.4-1.7,1.9-3.6c-2-6.6-4.1-13.2-6.2-19.7c-0.3-1-0.9-1.6-2-1.3c-1.2,0.3-2.1-0.2-2.5-1.4
	c-1.3-3.8-2.5-7.7-3.6-11.6C699.2,798.2,699.2,797.6,699.5,797.1z"/>
</svg>
