<?xml version="1.0" encoding="utf-8"?>
<!-- Generator: Adobe Illustrator 21.0.1, SVG Export Plug-In . SVG Version: 6.00 Build 0)  -->
<svg version="1.1" xmlns="http://www.w3.org/2000/svg" xmlns:xlink="http://www.w3.org/1999/xlink" x="0px" y="0px"
	 viewBox="0 0 1280 1280" style="enable-background:new 0 0 1280 1280;" xml:space="preserve">
<g id="Layer_4">
	<path class="death0" d="M424.8,268h436.5c22,0,39.8,17.8,39.8,39.8v588.5c0,22-17.8,39.8-39.8,39.8H424.8c-22,0-39.8-17.8-39.8-39.8
		V307.8C385,285.8,402.8,268,424.8,268z"/>
	<path class="death1" d="M865,711H440V302h414.4c5.9,0,10.6,4.7,10.6,10.6V711z"/>
	<rect x="440" y="706" class="death2" width="425" height="96"/>
	<path class="death3" d="M440,885h380.8c24.4,0,44.2-19.8,44.2-44.2V792H440V885z"/>
</g>
<g id="Layer_5">
	<circle class="death4" cx="412" cy="328" r="7"/>
	<circle class="death4" cx="409" cy="362" r="7"/>
	<circle class="death4" cx="410" cy="392" r="7"/>
	<circle class="death4" cx="410" cy="431" r="7"/>
	<circle class="death4" cx="411" cy="464" r="7"/>
	<circle class="death4" cx="406" cy="495" r="7"/>
	<circle class="death4" cx="409" cy="528" r="7"/>
	<circle class="death4" cx="407" cy="566" r="7"/>
	<circle class="death4" cx="408" cy="599" r="7"/>
	<circle class="death4" cx="409" cy="633" r="7"/>
	<circle class="death4" cx="409" cy="666" r="7"/>
	<circle class="death4" cx="409" cy="701" r="7"/>
	<circle class="death4" cx="415" cy="728" r="7"/>
	<circle class="death4" cx="413" cy="767" r="7"/>
	<circle class="death4" cx="411" cy="803" r="7"/>
	<circle class="death4" cx="416" cy="839" r="7"/>
</g>
<g id="Layer_3">
	<path class="death5" d="M777,509H514c-6.6,0-12-5.4-12-12V391c0-6.6,5.4-12,12-12h263c6.6,0,12,5.4,12,12v106
		C789,503.6,783.6,509,777,509z"/>
	<path class="death6" d="M774,418H598c-0.5,0-1-0.5-1-1l0,0c0-0.5,0.5-1,1-1h176c0.5,0,1,0.5,1,1l0,0C775,417.5,774.5,418,774,418z"/>
	<path class="death6" d="M775.5,442h-177c-0.3,0-0.5,0.2-0.5,0.5l0,0c0,0.3,0.2,0.5,0.5,0.5h177c0.3,0,0.5-0.2,0.5-0.5l0,0
		C776,442.2,775.8,442,775.5,442z"/>
	<path class="death6" d="M600,468h175c0.5,0,1-0.5,1-1l0,0c0-0.5-0.5-1-1-1H600c-0.5,0-1,0.5-1,1l0,0C599,467.5,599.5,468,600,468z"/>
	<path class="death7" d="M911.4,320.3c1.4,2.4,1.5,5,1.5,7.7c0,40.1,0,80.1,0,120.2c0,1,0,1.9,0,2.9c-0.2,4-3.2,7.2-7.3,7.6
		c-1.4,0.1-2.8,0.1-4.2,0.1c-0.1-1.2-0.2-2.3-0.2-3.5c0-44.8,0-89.6,0-134.4c0-1.2,0.1-2.3,0.1-3.5c1.6-1.1,3.4-0.7,5.1-0.6
		c0.9,0.1,1.4,0.8,2.2,1.1C910.1,318.1,911,318.9,911.4,320.3z"/>
	<path class="death8" d="M903.1,537.4c3.3-0.2,6.6-0.2,9.2-2.6c0.8,0.2,0.6,0.8,0.6,1.3c0,22.5,0,45,0,67.5c0,0.6-0.1,1.3-0.1,1.9
		c-2.2,3.8-6.8,5.2-11.4,3.4c-0.1-1.1-0.2-2.1-0.2-3.2c0-21.6,0-43.1,0-64.7c0-0.6,0-1.3,0-1.9C901.1,537.7,902,537.5,903.1,537.4z"
		/>
	<path class="death9" d="M907.6,462c1.7-0.5,3.4-1.1,4.9-2.7c0.6,1,0.4,1.8,0.4,2.6c0,21.8,0,43.6,0,65.3c0,3.4-1,4.7-4.2,5.8
		c-2.4,0.8-4.9,0.6-7.3,0.7c0-1.7-0.1-3.4-0.1-5.1c0-20.5,0-41,0-61.5c0-0.7,0-1.5,0-2.2c0.1-2.3,0.1-2.3,2.3-2.4
		C904.9,462.4,906.3,462.9,907.6,462z"/>
	<path class="death10" d="M906.4,665.2c-1.7,0-3.4,0-5.1,0c0-6.4-0.1-12.8-0.1-19.2c0-10.3,0-20.7,0-31c0-1.3,0.1-2.5,0.2-3.8
		c3.3-1.4,7.1-0.8,10.4-2.5c0.7-0.3,1.2,0.2,1.2,1c0,0.4,0,0.9,0,1.3c0,16.7,0,33.4,0,50.1c0,0.5,0,1.1-0.3,1.5c0,0,0,0,0,0
		c-0.4,0.4-0.9,0.8-1.3,1.2c-0.5,0.6-1,1.1-1.9,0.8C908.5,664.8,907.4,665,906.4,665.2z"/>
	<path class="death11" d="M384,359.7c-4.3,2.7-8.2,2.4-12.1,0.1c-2.7-1.7-5.4-3.4-7.6-5.7c-3.9-4-4.1-10.6,0.1-14.9
		c4.6-4.8,10.3-7.4,16.4-9.4c8.8-2.9,17.9-3.7,27.1-3.3c0.5,0,1.1,0,1.6,0c1.3,0.2,2.9,0.4,3,1.8c0.1,1.6-1.6,1.7-2.9,2
		c-0.4,0.1-0.8,0-1.3,0c-8.9,0-17.6,1.1-26,3.9c-3.9,1.3-7.4,3.4-10.2,6.4c-3.1,3.2-3.3,9.1,0.7,12.5c2.8,2.4,5.8,4.3,9.2,5.5
		C382.6,358.9,383.1,359.3,384,359.7z"/>
	<path class="death11" d="M381,391.7c-4.3,2.7-8.2,2.4-12.1,0.1c-2.7-1.7-5.4-3.4-7.6-5.7c-3.9-4-4.1-10.6,0.1-14.9
		c4.6-4.8,10.3-7.4,16.4-9.4c8.8-2.9,17.9-3.7,27.1-3.3c0.5,0,1.1,0,1.6,0c1.3,0.2,2.9,0.4,3,1.8c0.1,1.6-1.6,1.7-2.9,2
		c-0.4,0.1-0.8,0-1.3,0c-8.9,0-17.6,1.1-26,3.9c-3.9,1.3-7.4,3.4-10.2,6.4c-3.1,3.2-3.3,9.1,0.7,12.5c2.8,2.4,5.8,4.3,9.2,5.5
		C379.6,390.9,380.1,391.3,381,391.7z"/>
	<path class="death11" d="M383,422.7c-4.3,2.7-8.2,2.4-12.1,0.1c-2.7-1.7-5.4-3.4-7.6-5.7c-3.9-4-4.1-10.6,0.1-14.9
		c4.6-4.8,10.3-7.4,16.4-9.4c8.8-2.9,17.9-3.7,27.1-3.3c0.5,0,1.1,0,1.6,0c1.3,0.2,2.9,0.4,3,1.8c0.1,1.6-1.6,1.7-2.9,2
		c-0.4,0.1-0.8,0-1.3,0c-8.9,0-17.6,1.1-26,3.9c-3.9,1.3-7.4,3.4-10.2,6.4c-3.1,3.2-3.3,9.1,0.7,12.5c2.8,2.4,5.8,4.3,9.2,5.5
		C381.6,421.9,382.1,422.3,383,422.7z"/>
	<path class="death11" d="M380,461.7c-4.3,2.7-8.2,2.4-12.1,0.1c-2.7-1.7-5.4-3.4-7.6-5.7c-3.9-4-4.1-10.6,0.1-14.9
		c4.6-4.8,10.3-7.4,16.4-9.4c8.8-2.9,17.9-3.7,27.1-3.3c0.5,0,1.1,0,1.6,0c1.3,0.2,2.9,0.4,3,1.8c0.1,1.6-1.6,1.7-2.9,2
		c-0.4,0.1-0.8,0-1.3,0c-8.9,0-17.6,1.1-26,3.9c-3.9,1.3-7.4,3.4-10.2,6.4c-3.1,3.2-3.3,9.1,0.7,12.5c2.8,2.4,5.8,4.3,9.2,5.5
		C378.6,460.9,379.1,461.3,380,461.7z"/>
	<path class="death11" d="M382,495.7c-4.3,2.7-8.2,2.4-12.1,0.1c-2.7-1.7-5.4-3.4-7.6-5.7c-3.9-4-4.1-10.6,0.1-14.9
		c4.6-4.8,10.3-7.4,16.4-9.4c8.8-2.9,17.9-3.7,27.1-3.3c0.5,0,1.1,0,1.6,0c1.3,0.2,2.9,0.4,3,1.8c0.1,1.6-1.6,1.7-2.9,2
		c-0.4,0.1-0.8,0-1.3,0c-8.9,0-17.6,1.1-26,3.9c-3.9,1.3-7.4,3.4-10.2,6.4c-3.1,3.2-3.3,9.1,0.7,12.5c2.8,2.4,5.8,4.3,9.2,5.5
		C380.6,494.9,381.1,495.3,382,495.7z"/>
	<path class="death11" d="M381,526.7c-4.3,2.7-8.2,2.4-12.1,0.1c-2.7-1.7-5.4-3.4-7.6-5.7c-3.9-4-4.1-10.6,0.1-14.9
		c4.6-4.8,10.3-7.4,16.4-9.4c8.8-2.9,17.9-3.7,27.1-3.3c0.5,0,1.1,0,1.6,0c1.3,0.2,2.9,0.4,3,1.8c0.1,1.6-1.6,1.7-2.9,2
		c-0.4,0.1-0.8,0-1.3,0c-8.9,0-17.6,1.1-26,3.9c-3.9,1.3-7.4,3.4-10.2,6.4c-3.1,3.2-3.3,9.1,0.7,12.5c2.8,2.4,5.8,4.3,9.2,5.5
		C379.6,525.9,380.1,526.3,381,526.7z"/>
	<path class="death11" d="M380,558.7c-4.3,2.7-8.2,2.4-12.1,0.1c-2.7-1.7-5.4-3.4-7.6-5.7c-3.9-4-4.1-10.6,0.1-14.9
		c4.6-4.8,10.3-7.4,16.4-9.4c8.8-2.9,17.9-3.7,27.1-3.3c0.5,0,1.1,0,1.6,0c1.3,0.2,2.9,0.4,3,1.8c0.1,1.6-1.6,1.7-2.9,2
		c-0.4,0.1-0.8,0-1.3,0c-8.9,0-17.6,1.1-26,3.9c-3.9,1.3-7.4,3.4-10.2,6.4c-3.1,3.2-3.3,9.1,0.7,12.5c2.8,2.4,5.8,4.3,9.2,5.5
		C378.6,557.9,379.1,558.3,380,558.7z"/>
	<path class="death11" d="M381,596.7c-4.3,2.7-8.2,2.4-12.1,0.1c-2.7-1.7-5.4-3.4-7.6-5.7c-3.9-4-4.1-10.6,0.1-14.9
		c4.6-4.8,10.3-7.4,16.4-9.4c8.8-2.9,17.9-3.7,27.1-3.3c0.5,0,1.1,0,1.6,0c1.3,0.2,2.9,0.4,3,1.8c0.1,1.6-1.6,1.7-2.9,2
		c-0.4,0.1-0.8,0-1.3,0c-8.9,0-17.6,1.1-26,3.9c-3.9,1.3-7.4,3.4-10.2,6.4c-3.1,3.2-3.3,9.1,0.7,12.5c2.8,2.4,5.8,4.3,9.2,5.5
		C379.6,595.9,380.1,596.3,381,596.7z"/>
	<path class="death11" d="M381,630.7c-4.3,2.7-8.2,2.4-12.1,0.1c-2.7-1.7-5.4-3.4-7.6-5.7c-3.9-4-4.1-10.6,0.1-14.9
		c4.6-4.8,10.3-7.4,16.4-9.4c8.8-2.9,17.9-3.7,27.1-3.3c0.5,0,1.1,0,1.6,0c1.3,0.2,2.9,0.4,3,1.8c0.1,1.6-1.6,1.7-2.9,2
		c-0.4,0.1-0.8,0-1.3,0c-8.9,0-17.6,1.1-26,3.9c-3.9,1.3-7.4,3.4-10.2,6.4c-3.1,3.2-3.3,9.1,0.7,12.5c2.8,2.4,5.8,4.3,9.2,5.5
		C379.6,629.9,380.1,630.3,381,630.7z"/>
	<path class="death11" d="M382,663.7c-4.3,2.7-8.2,2.4-12.1,0.1c-2.7-1.7-5.4-3.4-7.6-5.7c-3.9-4-4.1-10.6,0.1-14.9
		c4.6-4.8,10.3-7.4,16.4-9.4c8.8-2.9,17.9-3.7,27.1-3.3c0.5,0,1.1,0,1.6,0c1.3,0.2,2.9,0.4,3,1.8c0.1,1.6-1.6,1.7-2.9,2
		c-0.4,0.1-0.8,0-1.3,0c-8.9,0-17.6,1.1-26,3.9c-3.9,1.3-7.4,3.4-10.2,6.4c-3.1,3.2-3.3,9.1,0.7,12.5c2.8,2.4,5.8,4.3,9.2,5.5
		C380.6,662.9,381.1,663.3,382,663.7z"/>
	<path class="death11" d="M378,698.7c-4.3,2.7-8.2,2.4-12.1,0.1c-2.7-1.7-5.4-3.4-7.6-5.7c-3.9-4-4.1-10.6,0.1-14.9
		c4.6-4.8,10.3-7.4,16.4-9.4c8.8-2.9,17.9-3.7,27.1-3.3c0.5,0,1.1,0,1.6,0c1.3,0.2,2.9,0.4,3,1.8c0.1,1.6-1.6,1.7-2.9,2
		c-0.4,0.1-0.8,0-1.3,0c-8.9,0-17.6,1.1-26,3.9c-3.9,1.3-7.4,3.4-10.2,6.4c-3.1,3.2-3.3,9.1,0.7,12.5c2.8,2.4,5.8,4.3,9.2,5.5
		C376.6,697.9,377.1,698.3,378,698.7z"/>
	<path class="death11" d="M382,730.7c-4.3,2.7-8.2,2.4-12.1,0.1c-2.7-1.7-5.4-3.4-7.6-5.7c-3.9-4-4.1-10.6,0.1-14.9
		c4.6-4.8,10.3-7.4,16.4-9.4c8.8-2.9,17.9-3.7,27.1-3.3c0.5,0,1.1,0,1.6,0c1.3,0.2,2.9,0.4,3,1.8c0.1,1.6-1.6,1.7-2.9,2
		c-0.4,0.1-0.8,0-1.3,0c-8.9,0-17.6,1.1-26,3.9c-3.9,1.3-7.4,3.4-10.2,6.4c-3.1,3.2-3.3,9.1,0.7,12.5c2.8,2.4,5.8,4.3,9.2,5.5
		C380.6,729.9,381.1,730.3,382,730.7z"/>
	<path class="death11" d="M385,761.7c-4.3,2.7-8.2,2.4-12.1,0.1c-2.7-1.7-5.4-3.4-7.6-5.7c-3.9-4-4.1-10.6,0.1-14.9
		c4.6-4.8,10.3-7.4,16.4-9.4c8.8-2.9,17.9-3.7,27.1-3.3c0.5,0,1.1,0,1.6,0c1.3,0.2,2.9,0.4,3,1.8c0.1,1.6-1.6,1.7-2.9,2
		c-0.4,0.1-0.8,0-1.3,0c-8.9,0-17.6,1.1-26,3.9c-3.9,1.3-7.4,3.4-10.2,6.4c-3.1,3.2-3.3,9.1,0.7,12.5c2.8,2.4,5.8,4.3,9.2,5.5
		C383.6,760.9,384.1,761.3,385,761.7z"/>
	<path class="death11" d="M383,797.7c-4.3,2.7-8.2,2.4-12.1,0.1c-2.7-1.7-5.4-3.4-7.6-5.7c-3.9-4-4.1-10.6,0.1-14.9
		c4.6-4.8,10.3-7.4,16.4-9.4c8.8-2.9,17.9-3.7,27.1-3.3c0.5,0,1.1,0,1.6,0c1.3,0.2,2.9,0.4,3,1.8c0.1,1.6-1.6,1.7-2.9,2
		c-0.4,0.1-0.8,0-1.3,0c-8.9,0-17.6,1.1-26,3.9c-3.9,1.3-7.4,3.4-10.2,6.4c-3.1,3.2-3.3,9.1,0.7,12.5c2.8,2.4,5.8,4.3,9.2,5.5
		C381.6,796.9,382.1,797.3,383,797.7z"/>
	<path class="death11" d="M380,833.7c-4.3,2.7-8.2,2.4-12.1,0.1c-2.7-1.7-5.4-3.4-7.6-5.7c-3.9-4-4.1-10.6,0.1-14.9
		c4.6-4.8,10.3-7.4,16.4-9.4c8.8-2.9,17.9-3.7,27.1-3.3c0.5,0,1.1,0,1.6,0c1.3,0.2,2.9,0.4,3,1.8c0.1,1.6-1.6,1.7-2.9,2
		c-0.4,0.1-0.8,0-1.3,0c-8.9,0-17.6,1.1-26,3.9c-3.9,1.3-7.4,3.4-10.2,6.4c-3.1,3.2-3.3,9.1,0.7,12.5c2.8,2.4,5.8,4.3,9.2,5.5
		C378.6,832.9,379.1,833.3,380,833.7z"/>
	<path class="death11" d="M385,868.7c-4.3,2.7-8.2,2.4-12.1,0.1c-2.7-1.7-5.4-3.4-7.6-5.7c-3.9-4-4.1-10.6,0.1-14.9
		c4.6-4.8,10.3-7.4,16.4-9.4c8.8-2.9,17.9-3.7,27.1-3.3c0.5,0,1.1,0,1.6,0c1.3,0.2,2.9,0.4,3,1.8c0.1,1.6-1.6,1.7-2.9,2
		c-0.4,0.1-0.8,0-1.3,0c-8.9,0-17.6,1.1-26,3.9c-3.9,1.3-7.4,3.4-10.2,6.4c-3.1,3.2-3.3,9.1,0.7,12.5c2.8,2.4,5.8,4.3,9.2,5.5
		C383.6,867.9,384.1,868.3,385,868.7z"/>
</g>
<g id="ka">
	<path class="death12" d="M504.6,528.7l-20.4-61l-25,3.4l-19.4,60.6l2.3,4.4l5.4,2.6c2.3,0.2,3.6,2.6,6.3,3.1
		c6.9,1.2,12.7,0.9,14.8,1.6c4.7,1.5,12.2,1.8,24.1-3.9L504.6,528.7z"/>
	<polygon class="death13" points="471.2,432.5 482,460.4 484.4,468.2 458.3,472.9 	"/>
	<line class="death14" x1="477.9" y1="462.4" x2="473.7" y2="448.1"/>
	<polygon class="death15" points="504.6,528.7 505.3,800.2 474.6,813.1 476.5,544.3 486.3,542.2 494.3,538.1 500.7,532.2 	"/>
	<polygon class="death16" points="447.5,538.8 443.6,803.6 474.6,813.1 477.1,544.2 467.7,543 460.7,541.2 	"/>
	<polygon class="death17" points="439.8,531.7 433.7,798.8 443.6,803.6 447.5,538.8 444.3,534.7 	"/>
	<path class="death18" d="M464.9,851.4c-9.5-11.4-22.3-15.4-28.5-16.8l-1.3,60.1c0.8,1,1.7,2.1,2.7,3.1c1.3,1.4,6.4,6.9,11.2,9.6
		c5.7,3.2,15,4.5,20.6,1.1C481.3,901.1,480.4,870,464.9,851.4z"/>
	<path class="death19" d="M503.8,823.9l1.5,65.2c-0.4,2.4-1.2,5-2.6,7.7c-6.8,13.1-22.5,15.7-24.2,16c-2.7,0.4-17.9,2.3-27.4-7.7
		c-11.8-12.6-7.4-36.1,5.2-47.5c5.5-5,11.8-7,16-7.8L503.8,823.9z"/>
	<polygon class="death20" points="478.5,852.4 478.8,866.2 482.5,879.1 483.1,891.7 481.1,905.1 477.6,912.3 469.1,913.8 454.3,909.9 
		450.2,904.6 446.1,897 444.2,887.6 444.8,879.6 448.4,867 458.2,856 464.9,851.4 	"/>
	<path class="death21" d="M433.7,798.8l0.6,19.2l0.7,6.5l1.4,10l5,4.9l9.4,7.6l5.5,3.8l14.3,2.5l4.8-0.4c4.4-0.4,8.5-2.2,11.9-5
		l0.7-0.6l-6.4-7.5l-3.4-25l-3.6-1.7L433.7,798.8z"/>
	<polygon class="death22" points="505.3,800.2 479.9,810.8 474.6,813.1 476,819.3 477.1,834.5 479.9,843.6 485,848.8 491.1,845.5 
		498.8,839.8 504.8,833.3 	"/>
</g>
</svg>
