<?xml version="1.0" encoding="utf-8"?>
<!-- Generator: Adobe Illustrator 21.0.1, SVG Export Plug-In . SVG Version: 6.00 Build 0)  -->
<svg version="1.1" id="Layer_1" xmlns="http://www.w3.org/2000/svg" xmlns:xlink="http://www.w3.org/1999/xlink" x="0px" y="0px"
	 viewBox="0 0 1280 1280" style="enable-background:new 0 0 1280 1280;" xml:space="preserve">

<g>
	<path class="facebook0" d="M1060.9,630.2c5.3,236.4-180,417.3-392.3,429.7c-119.4,7-224.6-29.1-312.7-110.1
		c-87.7-80.7-133.8-182.1-136.1-301.1c-4.4-234.1,178.3-421,405-429.1C864.5,211.1,1056.1,400.4,1060.9,630.2z"/>
	<path class="facebook1" d="M823.8,639.2c0,38.5,0.2,77-0.1,115.5c-0.2,30.1-14.4,52-41,65.5c-8.5,4.3-18.1,6.5-28,6.5
		c-76.8,0-153.6,0.1-230.4-0.1c-27.6-0.1-53.8-17.8-64-44.4c-3.4-8.8-5.2-17.8-5.2-27.2c0-76.3,0.1-152.6,0-228.9
		c0-27.7,11.3-49.1,34.7-63.9c9.2-5.8,19.5-9.4,30.6-9.4c79.3-0.1,158.6-0.5,237.9,0.2c23.2,0.2,41.2,12.4,54,31.8
		c8.4,12.7,11.6,26.9,11.6,42.1C823.7,564.3,823.8,601.8,823.8,639.2z"/>
</g>
<path class="facebook0" d="M656.4,699.4c0,19,0,38,0.1,57c0,2.2-0.6,2.7-2.7,2.6c-13.9-0.1-27.9-0.1-41.8,0c-2.4,0-2.7-0.8-2.7-2.9
	c0.1-38,0-76,0.1-114c0-2.5-0.7-3.1-3.1-3.1c-7,0.2-14,0-21,0.1c-1.8,0-2.3-0.6-2.2-2.3c0.1-11.6,0.1-23.2,0-34.8
	c0-2,0.6-2.4,2.5-2.4c6.8,0.1,13.7,0.1,20.5,0c3.8,0,3.3,0.5,3.3-3.5c0.1-9.5-0.3-18.9,0.4-28.4c0.6-8.1,2.1-16,5.7-23.3
	c6.2-12.3,16.7-18.7,29.5-21.9c7.2-1.8,14.5-2.4,21.8-2.6c9.3-0.2,18.6,0,28-0.1c1.8,0,2.3,0.4,2.3,2.3c-0.1,11.6-0.1,23.2,0,34.8
	c0,2.1-0.7,2.4-2.5,2.3c-7.6-0.1-15.2-0.1-22.8,0c-8.7,0-15,6-15.2,14.7c-0.2,7.9,0,15.8-0.1,23.7c0,1.9,0.9,1.8,2.2,1.8
	c11.9,0,23.8,0,35.6-0.1c2.1,0,2.7,0.3,2.3,2.6c-2.1,11.5-4,23-5.8,34.5c-0.3,2-1.2,2.4-3,2.4c-9.5-0.1-19,0-28.5-0.1
	c-2.2,0-2.9,0.4-2.9,2.8C656.5,661,656.4,680.2,656.4,699.4z"/>
</svg>
