<?xml version="1.0" encoding="utf-8"?>
<!-- Generator: Adobe Illustrator 21.0.1, SVG Export Plug-In . SVG Version: 6.00 Build 0)  -->
<svg version="1.1" id="Layer_1" xmlns="http://www.w3.org/2000/svg" xmlns:xlink="http://www.w3.org/1999/xlink" x="0px" y="0px"
	 viewBox="0 0 1280 1010" style="enable-background:new 0 0 1280 1280;" xml:space="preserve">
<g id="JQ">
	<g id="Armor">
		<path id="L" class="jsjq0" d="M1148.4,701.8c3.1,1.1,7.4,2.9,12.1,5.8c3.5,2.1,6.5,4,9.7,7.3c3.4,3.6,5.1,7,7.6,12
			c2.4,4.8,3.6,7.2,3.9,10.2c0.6,5.6-1.5,10-2.9,12.8c-1.6,3.4-3.1,6.4-7.8,11.7c-5,5.6-8.5,8.2-11.5,9.8s-6.3,2.2-13.1,3.3
			c-3.5,0.6-8.8,1.4-15.8,1.6c-6.9,0.2-12.1-0.3-17.4-0.8c-4.1-0.4-10.5-1.5-13-1.9L1148.4,701.8z"/>
		<path id="R" class="jsjq0" d="M696.9,768.9c-3.1,0.2-7.9,0.6-13.7,1.1c-15.6,1.4-16,1.9-20,1.7c-9.1-0.3-15.6-3.3-25.1-7.7
			s-14.5-6.7-18.9-12.5c-1.7-2.3-5.7-7.8-5.8-15.7c0-6.9,3-11.8,4.1-13.5c2.5-4,5.9-6.5,12.9-11.6c4.3-3.2,6.9-5,10.8-6.9
			c1.6-0.7,4.4-2,13.3-4.2c4.1-1,9.6-2.3,16.3-3.6L696.9,768.9z"/>
		<path id="_x31_" class="jsjq1" d="M683.9,301.6c8.8,1.4,21.3,3,36.3,4c19.7,1.3,33.8,0.9,59.9,0c19.3-0.7,39.1-1.4,65.9-3.8
			c15.8-1.4,34.5-3.2,59.4-7.3c22.9-3.8,42.4-8.2,57.4-11.9c9.2-2.3,17.1-4.5,23.1-6.2c1.9,1.7,4.5,4.1,7.7,6.9
			c5.6,4.8,11.1,9.4,19.2,15.7c7.3,5.6,17.5,13.6,31.9,23.6c4.9,3.5,15.9,11.1,30.5,20.3c16.3,10.3,28.6,17.1,42.9,25.1
			c21.3,11.9,37.7,20.2,43.3,23.1c27.4,13.9,21.4,9.5,40.1,19.3c7.7,4,18,9.6,33.1,13.6c4.1,1.1,10.2,3.4,12.6,3.8l-0.9,3.9
			c-0.1,0.3-3.2,14.4-3.3,14.7c-6,26.7-6.1,27.3-6.4,28.5c-4,17.8-8.5,32.7-12.3,45.7c-3.7,12.6-8.1,25.6-16.6,51
			c-10.1,30.1-15.1,45.1-17.8,51.7c-9.3,23.2-18.2,39.7-27,55.9c-3.9,7.3-16,29.4-34.5,57.3c-8.7,13.1-18.7,28.2-33.1,46.3
			c-15.3,19.2-40.3,47.7-76,76.9c-29.5,24.1-54.2,38.8-60,42.3c-33.9,20-63.3,31.3-79.5,36.9c-14.8,5.1-28.4,10.3-39,12.9
			c-2,0.5-3.6,0.4-5.4,0.9c-2.8-1.2-6.5-4-10.9-6.6c-3.7-2.2-8.6-5.4-14.2-10.4c-21.2-18.8-39.9-43-39.9-43
			c-19.1-24.7-28.6-37.1-39.4-54.2c-11.4-18-32.8-52.2-49.6-100.9c-16-46.1-20.3-83.4-23.8-114.7c-4-36.2-4-63.7-3.9-88.6
			c0.1-54,4.7-94.4,6-105c3.7-31.7,10.2-71.2,21.8-115.8L683.9,301.6z"/>
		<path id="_x32__1_" class="jsjq2" d="M699,322.5c8.2,1.3,19.8,2.8,33.8,3.7c18.4,1.2,31.5,0.8,55.9,0c18-0.6,36.5-1.3,61.5-3.6
			c14.7-1.3,32.2-3,55.5-6.8c21.4-3.5,39.6-7.6,53.5-11.1c8.6-2.2,15.9-4.2,21.5-5.8c1.8,1.6,4.2,3.8,7.2,6.4
			c5.2,4.5,10.4,8.7,17.9,14.6c6.8,5.3,16.3,12.7,29.7,22.1c4.6,3.2,14.9,10.3,28.5,18.9c15.2,9.6,26.7,16,40,23.4
			c19.9,11.1,35.1,18.9,40.4,21.6c25.5,13,19.9,8.9,37.4,18c7.2,3.8,16.7,9,30.9,12.7c3.8,1,9.5,3.2,11.7,3.6l-0.8,3.7
			c-0.1,0.3-3,13.5-3.1,13.8c-5.6,24.9-5.7,25.4-6,26.6c-3.8,16.6-7.9,30.5-11.5,42.7c-3.5,11.8-7.5,23.9-15.5,47.6
			c-9.4,28-14.1,42.1-16.6,48.3c-8.7,21.7-17,37.1-25.2,52.1c-3.7,6.8-15,27.4-32.2,53.5c-8.1,12.2-17.4,26.3-30.9,43.2
			c-14.3,17.9-37.6,44.5-71,71.7c-27.5,22.5-50.5,36.2-56,39.4c-31.7,18.6-59,29.2-74.2,34.4c-13.8,4.8-26.5,9.6-36.4,12.1
			c-1.9,0.5-3.3,0.4-5,0.8c-2.6-1.1-6.1-3.7-10.2-6.1c-3.5-2.1-8-5.1-13.2-9.7c-19.6-17.7-37-40.3-37-40.3
			c-17.8-23.1-26.7-34.6-36.8-50.6c-10.6-16.8-30.6-48.7-46.3-94.2c-14.9-43-19-77.8-22.2-107.1c-3.8-33.8-3.7-59.4-3.6-82.7
			c0.1-50.4,4.4-88.1,5.6-97.9c3.5-29.6,9.5-66.4,20.4-108.1L699,322.5z"/>
		<path id="_x33__1_" class="jsjq3" d="M712.7,341.6c7.7,1.2,18.6,2.6,31.6,3.5c17.2,1.2,29.5,0.8,52.2,0c16.8-0.6,34.1-1.2,57.4-3.3
			c13.7-1.3,30.1-2.8,51.8-6.4c20-3.3,37-7.1,50-10.4c8.1-2,14.9-3.9,20.1-5.4c1.6,1.5,4,3.6,6.8,6c4.9,4.2,9.7,8.2,16.7,13.7
			c6.3,4.9,15.3,11.9,27.8,20.6c4.3,3,13.9,9.7,26.6,17.7c14.2,9,24.9,14.9,37.4,21.9c18.6,10.4,32.8,17.7,37.8,20.2
			c23.9,12.1,18.6,8.3,34.9,16.8c6.7,3.5,15.7,8.4,28.8,11.9c3.5,0.9,8.9,3,10.9,3.4l-0.8,3.4c-0.1,0.3-2.8,12.6-2.9,12.9
			c-5.2,23.3-5.3,23.8-5.6,24.9c-3.5,15.5-7.4,28.5-10.7,39.9c-3.3,11-7,22.3-14.5,44.5c-8.8,26.2-13.2,39.3-15.5,45.1
			c-8.1,20.2-15.9,34.6-23.5,48.7c-3.4,6.4-14,25.6-30.1,50c-7.6,11.4-16.3,24.6-28.8,40.3c-13.3,16.7-35.2,41.6-66.3,67
			c-25.7,21-47.2,33.8-52.4,36.9c-29.6,17.4-55.2,27.3-69.3,32.2c-12.9,4.5-24.8,9-34,11.3c-1.7,0.4-3.1,0.4-4.7,0.8
			c-2.5-1-5.7-3.5-9.5-5.7c-3.2-1.9-7.5-4.7-12.4-9.1C804.3,878.2,788,857,788,857c-16.6-21.6-24.9-32.3-34.4-47.3
			c-9.9-15.7-28.6-45.5-43.3-88c-13.9-40.2-17.7-72.7-20.8-100.1c-3.5-31.6-3.5-55.5-3.4-77.3c0.1-47.1,4.1-82.3,5.2-91.5
			c3.3-27.7,8.9-62.1,19-101L712.7,341.6z"/>
	</g>
	<g id="_x33_">
		<path class="jsjq4" d="M838.6,384.1c-9,8.7-17.5,17.8-24.5,28c-19.9,28.7-30.4,60.7-31.3,95.4c-1.9,74.3,26.9,135.6,83.7,182.6
			c35.8,29.7,77.9,46.4,125.5,46.1c21-0.1,41.2-4.6,60.1-14.1c0.6-0.3,1.2-0.4,2-0.2c-21.6,18.7-46.2,31.6-74,38.2
			c-37.5,9.1-74.1,5.4-109.9-8.6c-20.6-8-39.9-18.2-57.3-31.6c-17.3-13.5-31.7-30.1-43.8-48.6c-31.9-48.8-45.4-102.1-35.8-160.1
			c7.3-43.6,26.9-80.2,64-105.9C810.2,396.7,824.7,391,838.6,384.1z"/>
		<path class="jsjq4" d="M947.3,393.2c-12.4,10.1-21.5,21.4-28.5,34.4c-13.9,26-18.2,53.8-14,82.8c7.4,50.5,32.5,90.3,75.5,117.5
			c32.6,20.6,67.9,27.2,105.7,15.2c6.1-1.9,11.7-4.9,17.7-7.3c-8,8.7-17.5,15.3-27.9,20.5c-34.8,17.9-70.4,17.7-106.8,4.5
			c-50.7-18.4-82.3-54.8-96.8-105.3C858,506,865.5,459.8,903,421.3C911,413.3,936.4,397.3,947.3,393.2z"/>
		<path class="jsjq4" d="M1119.8,567c-13.8,11.1-29.7,17.5-47.4,15.9c-38.3-3.2-65.3-23.5-81.4-58c-9.9-21.2-12.5-43.4-5.6-66.2
			c6.9-22.6,21.5-38.5,45.4-49c-6.2,6.3-11.5,11.9-15.1,18.7c-11.6,21.7-13,44.5-6.4,67.5c10.8,37.5,35.7,61.7,72.9,73.2
			c10.7,3.3,21.6,2.8,32.3-0.6C1116.3,568,1118,567.6,1119.8,567z"/>
	</g>
	<g id="Line">
		<path id="_x31__1_" class="jsjq5" d="M1177.3,752.7l-4.7,7.2l-11.5,9.8c-2.2,0.6-5.2,1.4-8.7,2.2c-2.4,0.5-9.2,2-16.1,2.6
			c-6.1,0.5-12.1,0.4-21.5-0.7c-14.1-1.7-26-4.4-35.6-6.9c-22.9-6-39.8-12.5-43.3-13.8c-16-6.2-26.8-11.6-44-20.2
			c-23.8-11.9-41.7-22.2-48.8-26.4c-25.1-14.7-24.2-16-50.6-32c-16.1-9.7-21.5-12.3-57.7-32.5c-11.9-6.6-22.4-12.6-31.2-17.6
			c-11.2-6.4-23.3-11.1-35.9-14c-0.4-0.1-0.7-0.2-1.1-0.3c-24.7-5.8-28.5-7.5-39.1-9.8c-9.5-2-30.8-6.4-57-3.5
			c-13.8,1.6-24.7,2.9-36.4,10.4c-11.9,7.6-18.5,17.8-21.9,24l2.4,97.3c1.4-2.8,3.8-6.3,8.1-10.4c10.8-10.3,23.2-14.1,31.6-16.7
			c8.2-2.5,14.6-3.4,16.3-3.6c9.1-1.2,19.9-1.3,45.5,4c15.3,3.2,28.8,6,46.7,12.5c17.4,6.3,29,12.5,46.7,21.8
			c20.4,10.8,35.4,20.2,48.3,28.4c25.1,15.8,27.1,18.7,46.7,31.1c7,4.4,30.2,19,61.4,34.4c43.2,21.3,70.6,28.9,78.7,31
			c15.8,4.2,36,8.4,58,3.7c16.3-3.5,23.8-9.7,28-14.4c4.7-5.3,7.2-10.8,8.4-14.6l41.5-88.7L1177.3,752.7z"/>
	</g>
	<g>
		<path class="jsjq6" d="M858.3,759.5c-6.2-3.2-11.2-6-16.3-8.5c-1.9-0.9-2.9-2.2-3.1-4.4c-0.1-1.7-0.5-3.4-0.9-5.1
			c-0.9-5.6-2.2-10.1-7.8-14c-12.3-8.6-14.3-21.1-7.6-36.5c2.2-4.9,5.1-9.5,8.8-13.4c9-9.4,21-11.5,32.6-5.5
			c3.4,1.8,6.8,3.3,9.8,5.9c9.2,7.5,12.2,17,9,28.2c-2.2,7.8-6,15.1-11.5,21.2c-3.9,4.4-8.6,7.5-14.5,8.3c-2.9,0.4-3.6,1.5-2.8,4.4
			C855.7,746.3,856.8,752.4,858.3,759.5z"/>
		<path class="jsjq6" d="M989.1,792.6c3.9-8.2,7.9-16.2,11.6-24.4c1.4-3,2.9-3.8,5.9-2c7.9,4.4,17,7,24.3,12.7c5.6,4.3,9.1,9.9,7.8,17
			c-1.4,7.5-5.5,13.7-13.6,15.4c-4.7,0.9-5.2,3-4.4,7c1.4,7.4,2.3,15.1,3.4,22.6c0.5,3-0.2,3.7-3.2,2.4
			c-13.9-5.8-13.9-5.7-15.1-20.6c-0.2-3.4-0.6-6.9-0.8-10.4c-0.1-1.6-0.9-2.5-2.4-3c-2-0.6-2.3,0.9-2.9,2.2
			c-2.1,4.4-4.2,8.7-6.4,13.1c-0.5,1-0.8,2.5-1.5,2.6c-5.7,1.7-9.2-3.1-14-4.5c-2.7-0.9-1.7-2.9-0.8-4.7
			C981.2,809.6,985.2,801.1,989.1,792.6z"/>
		<path class="jsjq6" d="M938.2,752.5c-2.6,4.9-5,9.9-7.8,14.7c-6.5,11.6-16.1,15.9-28.8,11.8c-8.6-2.8-16.5-7.3-20.4-16.3
			c-2.9-6.7-2.1-13.3,0.9-19.6c5.5-11.2,10.8-22.5,17.4-33c4-6.5,7.9,1.3,11.9,2.1c2.6,0.5,5.8,1.8,3.4,6.2
			c-5.7,10.4-11.2,21-16.6,31.7c-3.1,6.1-1.5,10.6,4,13.5c4.7,2.4,8.1,1.8,11.3-2.4c5.4-7,8.5-15.4,12.8-23.1
			c0.6-1.1,1.1-2.1,1.7-3.2c6.3-12,6.2-12,17.7-4.8c2.3,1.4,2.5,2.8,1.4,5C944.3,740.9,941.3,746.7,938.2,752.5
			C938.3,752.5,938.2,752.5,938.2,752.5z"/>
		<path class="jsjq6" d="M977,749.1c4.2,2.4,8.3,5,12.7,7.1c3.2,1.6,3.3,3.3,1.6,6.1c-5.7,9.3-3.7,8.2-12.5,3.4
			c-1.6-0.9-3.4-1.7-4.9-2.8c-3.8-3-6.1-2.1-8.2,2.2c-1.5,3.1-1.2,4.5,1.7,6c3,1.5,5.6,3.4,8.6,4.9c3.5,1.7,3.4,3.5,1.6,6.4
			c-5.5,9-3.7,7.9-12.2,3.3c-0.9-0.5-1.8-1-2.8-1.6c-5.7-3.3-9.4-1.5-10.7,4.9c-0.5,2.1,0.9,2.8,2.2,3.5c3.7,2.2,7.4,4.4,11.2,6.5
			c2.5,1.3,2.8,2.8,1.5,5.4c-4.7,9.2-4.7,9.3-13.3,4.3c-7.1-4-14-8.2-21.2-12.1c-3-1.7-3.3-3.2-1.6-6.1c9.1-15.7,18.2-31.4,27-47.3
			c1.9-3.3,3.6-3.4,6.4-1.5C968.4,744.3,972.7,746.7,977,749.1z"/>
		<path class="jsjq6" d="M1049.8,785.4c5.9,2.1,10.7,3.8,15.5,5.4c2.3,0.9,2.4,2.7,2.6,4.7c0.7,6.8,1.3,13.7,2,21.4
			c5.3-5.4,9.8-9.8,14-14.5c2.5-2.8,4.9-3.9,8.5-2.1c2.5,1.3,5.1,2.1,7.9,2.7c4.9,1.2,4.2,2.9,0.9,5.7c-6.3,5.5-12,11.5-18.4,16.6
			c-7.1,5.6-11.2,12.6-13.9,21.1c-3.6,11.5-3.8,11.2-15.1,7.6c-4.4-1.4-5.5-3.3-3.4-7.4c6.4-11.8,5.8-24.4,3.2-37.1
			C1052.1,801.9,1051.2,794.1,1049.8,785.4z"/>
		<path class="jsjq6" d="M817.8,678c-4.7,8.9-9,18-14,26.6c-7.4,12.5-23.7,14.3-34,4.3c-1.4-1.4-1.7-2.8-0.8-4.6c1.1-1.9,2.2-4,3.2-6
			c1-2.1,1.9-2.6,4.3-1.1c7.5,4.5,10.5,3.6,14.7-4.4c8.2-15.4,16.4-30.9,24.3-46.5c2.2-4.3,4-5.3,8.5-2.8c9.5,5.4,9.6,5.1,4.5,14.8
			c-3.5,6.6-6.9,13.1-10.4,19.7C818,678.1,817.9,678,817.8,678z"/>
		<path class="jsjq5" d="M862.6,708.7c-1.4,3.2-3.6,6-6,8.3c-3.7,3.7-7.9,4.5-12.8,2.2c-5-2.3-7.8-6-7-11.5c1.2-8.1,4.8-15.1,11-20.6
			c3.9-3.5,8.2-3.1,12.5-0.7c4.4,2.3,6.7,5.8,6,11C865.9,701.4,864.7,705.2,862.6,708.7z"/>
		<path class="jsjq5" d="M1010,789.8c1.7-1.7,1.1-7,6.3-4.3c4.7,2.4,6.3,5.4,4.5,9.3c-1.9,4.3-5.7,5.5-10.2,3.5
			C1006.8,796.6,1006.8,796.5,1010,789.8z"/>
	</g>
</g>
<g id="JS">
	<g id="armor">
		<path id="L_1_" class="jsjq7" d="M716.5,586.1c3.8-0.4,9.1-0.7,15.4-0.1c4.7,0.4,8.7,0.8,13.7,2.6c5.4,2,8.8,4.6,13.9,8.5
			c4.9,3.7,7.4,5.6,9.2,8.5c3.4,5.4,3.5,11,3.5,14.6c0,4.4,0.1,8.1-2.1,15.9c-2.3,8.3-4.6,12.7-6.9,15.9c-2.2,3.1-5.4,5.4-11.8,10
			c-3.3,2.4-8.3,5.9-15.5,9.6c-6.9,3.7-12.5,5.8-18.3,7.9c-4.4,1.7-11.6,3.7-14.3,4.6L716.5,586.1z"/>
		<path id="R_1_" class="jsjq7" d="M286,882.8c-3.1,1.8-7.8,4.5-13.5,8c-15.3,9.2-15.5,10-19.7,11.8c-9.5,4.2-17.7,4.5-29.7,4.8
			s-18.3,0.5-25.7-3.3c-2.9-1.5-9.8-5.1-13.9-13.3c-3.5-7-2.9-13.6-2.6-16c0.5-5.3,2.8-9.7,7.4-18.4c2.9-5.4,4.5-8.6,7.7-12.5
			c1.2-1.5,3.5-4.2,11.6-11.1c3.7-3.1,8.7-7.2,14.9-11.9L286,882.8z"/>
		<path id="_x31__3_" class="jsjq8" d="M37,408.8c9.8-3.1,23.4-7.7,39.3-14.2c21-8.6,35.2-16.1,61.5-30.2
			c19.5-10.4,39.5-21.1,65.8-37.1c15.5-9.4,33.9-20.7,57.4-37.5c21.7-15.5,39.5-29.8,53-41.2c8.3-7,15.3-13.2,20.6-18
			c2.8,0.8,6.7,1.9,11.4,3.2c8.2,2.2,16.1,4,27.6,6.4c10.3,2.1,24.9,5.2,44.7,8.3c6.8,1.1,22,3.3,41.6,5.4c22,2.3,38,3.2,56.7,4.2
			c27.9,1.5,48.9,1.8,56.2,1.9c35.1,0.5,26.8-1,50.9-0.4c10,0.3,23.3,0.8,40.9-2.7c4.7-0.9,12.2-1.6,14.8-2.4l1.1,4.5
			c0.1,0.3,4,16.5,4,16.8c7.3,30.4,7.5,31.1,7.8,32.5c4.8,20.4,7.8,37.9,10.4,53.2c2.5,14.9,4.6,30.4,8.7,60.8
			c4.8,36,7.2,54,7.8,62.2c2.1,28.6,1.3,50,0.5,71.1c-0.4,9.5-1.7,38.3-6.6,76.3c-2.3,17.8-5,38.5-10.7,64.2
			c-6.1,27.4-17.4,69.4-39.4,117.4c-18.2,39.7-36.1,67.2-40.4,73.8c-24.8,37.7-49.3,64.1-63.1,78c-12.6,12.7-24.1,24.9-33.6,33
			c-1.8,1.5-3.4,2.2-5.1,3.6c-3.5,0.2-8.7-0.8-14.5-1.3c-4.9-0.4-11.6-1.3-19.8-3.5c-31.3-8.6-62.7-24.1-62.7-24.1
			c-32.1-15.8-48.1-23.7-67.9-35.9c-20.8-12.7-60-37.1-101.9-78.7c-39.7-39.4-63-75.5-82.4-106c-22.4-35.2-36.2-63.5-48.7-89.1
			C96,607.8,80.3,563.9,76.2,552.4c-12.1-34.5-25.4-78.3-36-130.1L37,408.8z"/>
		<path id="_x32__2_" class="jsjq9" d="M63,422.7c9.1-2.8,21.8-7.1,36.7-13.2c19.6-8,32.8-15,57.4-28.2c18.2-9.7,36.9-19.7,61.4-34.7
			c14.4-8.8,31.6-19.3,53.6-35c20.2-14.4,36.9-27.8,49.4-38.4c7.8-6.6,14.3-12.3,19.2-16.8c2.6,0.8,6.3,1.8,10.7,3
			c7.6,2,15.1,3.8,25.8,6c9.6,2,23.2,4.8,41.7,7.7c6.4,1,20.5,3.1,38.8,5.1c20.5,2.2,35.5,3,53,3.9c26,1.4,45.7,1.7,52.5,1.8
			c32.8,0.4,25-0.9,47.5-0.3c9.3,0.2,21.7,0.8,38.1-2.5c4.4-0.9,11.4-1.5,13.9-2.2l1,4.2c0.1,0.3,3.7,15.4,3.8,15.7
			c6.8,28.4,7,29,7.3,30.3c4.5,19,7.3,35.4,9.7,49.7c2.4,13.9,4.3,28.3,8.1,56.7c4.5,33.6,6.7,50.4,7.3,58c2,26.7,1.2,46.7,0.4,66.3
			c-0.3,8.9-1.6,35.8-6.1,71.2c-2.2,16.7-4.7,35.9-10,59.9c-5.6,25.6-16.3,64.7-36.8,109.6c-16.9,37-33.7,62.7-37.7,68.8
			c-23.2,35.1-46,59.8-58.9,72.8c-11.8,11.9-22.4,23.3-31.4,30.8c-1.7,1.4-3.2,2.1-4.7,3.3c-3.3,0.2-8.1-0.7-13.6-1.2
			c-4.6-0.4-10.8-1.2-18.5-3.3c-29.2-8-58.5-22.5-58.5-22.5c-29.9-14.8-44.9-22.1-63.4-33.5c-19.4-11.9-56-34.6-95.1-73.5
			c-37-36.7-58.8-70.4-76.9-98.9c-20.9-32.8-33.8-59.2-45.4-83.2c-25.3-51.8-39.9-92.8-43.7-103.5C88.3,524.4,75.9,483.5,66,435.2
			L63,422.7z"/>
		<path id="_x33__4_" class="jsjq10" d="M86.8,435.4c8.5-2.7,20.4-6.7,34.3-12.4c18.3-7.5,30.7-14.1,53.7-26.3
			c17-9.1,34.5-18.4,57.4-32.4c13.5-8.2,29.6-18.1,50.1-32.7c18.9-13.5,34.5-26,46.2-35.9c7.3-6.1,13.4-11.5,18-15.7
			c2.4,0.7,5.9,1.7,10,2.8c7.1,1.9,14.1,3.5,24.1,5.6c9,1.9,21.7,4.5,39,7.2c6,0.9,19.2,2.9,36.3,4.7c19.2,2,33.2,2.8,49.5,3.6
			c24.3,1.3,42.7,1.6,49,1.7c30.7,0.4,23.4-0.9,44.4-0.3c8.7,0.2,20.3,0.7,35.6-2.4c4.1-0.8,10.6-1.4,12.9-2.1l0.9,3.9
			c0.1,0.3,3.4,14.4,3.5,14.7c6.4,26.5,6.5,27.1,6.8,28.4c4.2,17.8,6.8,33,9.1,46.4c2.2,13,4,26.5,7.6,53
			c4.2,31.4,6.3,47.1,6.8,54.2c1.8,24.9,1.1,43.6,0.4,62c-0.3,8.3-1.5,33.4-5.7,66.5c-2,15.6-4.3,33.5-9.3,56
			c-5.3,23.9-15.2,60.5-34.4,102.4c-15.8,34.6-31.5,58.6-35.2,64.3c-21.6,32.8-43,55.9-55,68c-11,11.1-21,21.8-29.3,28.8
			c-1.6,1.3-3,2-4.4,3.1c-3.1,0.2-7.6-0.7-12.7-1.1c-4.3-0.3-10.1-1.1-17.3-3.1c-27.3-7.5-54.7-21-54.7-21
			c-28-13.8-41.9-20.7-59.2-31.3c-18.1-11.1-52.3-32.4-88.9-68.7c-34.6-34.3-54.9-65.8-71.8-92.4C185,704.2,173,679.6,162,657.2
			c-23.6-48.5-37.3-86.7-40.8-96.7C110.6,530.4,99,492.2,89.8,447L86.8,435.4z"/>
	</g>
	<g id="_x35__3_">
		<polygon class="jsjq4" points="572.4,360.6 152.7,469.8 182.4,548.5 384.5,496.8 488,466 460.7,558 349.4,591.8 376.3,663.3 
			431.8,648.1 363.5,864.2 451.8,863.6 529.2,622 617.2,597 598,522.5 556.5,530 586.5,445.2 		"/>
	</g>
	<path id="Line_1_" class="jsjq11" d="M771.8,623.8l-1.2,9.8l-6.9,15.9c-1.9,1.7-4.6,4-7.9,6.6c-2.2,1.7-8.5,6.7-15.2,10.8
		c-6,3.6-12.2,6.5-22.5,10.1c-15.4,5.4-29,8.6-40.1,10.8c-26.6,5.4-47.2,7.2-51.5,7.6c-19.6,1.7-33.3,1.6-55.4,1.4
		c-30.5-0.2-54.1-1.8-63.5-2.6c-33.2-2.5-32.9-4.3-68.2-7.4c-21.4-1.9-28.3-1.8-75.8-4.3c-15.5-0.8-29.4-1.6-41-2.3
		c-14.8-0.9-29.5,0.4-43.9,3.7c-0.4,0.1-0.8,0.2-1.3,0.3c-28.3,6.5-33.1,6.6-45.1,9.6c-10.7,2.7-34.9,8.9-60.4,25.2
		c-13.4,8.6-23.9,15.4-32.2,29.1c-8.3,13.8-10.1,27.6-10.4,35.7l51.6,98.9c0-3.5,0.7-8.4,3-14.7c5.9-16,16.7-26.2,24.1-33.1
		c7.2-6.7,13.4-10.8,14.9-11.9c8.7-5.8,19.8-11.4,48.9-18.8c17.4-4.4,32.6-8.3,54.4-10.7c21-2.3,36.1-1.8,59-1.1
		c26.5,0.8,46.6,2.9,64,4.8c33.8,3.6,37.3,5.5,63.7,8.4c9.4,1,40.6,4.3,80.5,4.4c55.2,0.1,87.1-5.9,96.6-7.8
		c18.3-3.7,41.3-9.6,61.5-25.4c15-11.8,19.6-22,21.5-28.9c2.2-7.8,1.9-14.8,1.3-19.3l-2-112.2L771.8,623.8z"/>
	<path class="jsjq6" d="M433.1,731c-0.3,10-0.3,20.1-1.1,30c-1.3,14.4-15.2,23.1-28.8,18.6c-1.9-0.6-2.8-1.8-2.7-3.8
		c0.1-2.2,0.2-4.5,0.2-6.8c0-2.4,0.6-3.1,3.4-2.9c8.7,0.8,11-1.3,11.4-10.3c0.7-17.4,1.4-34.9,1.8-52.4c0.1-4.9,1.3-6.5,6.5-6.2
		c10.8,0.7,10.9,0.4,10.5,11.4c-0.3,7.5-0.5,14.8-0.8,22.3C433.3,731,433.2,731,433.1,731z"/>
	<path class="jsjq4" d="M441.3,762.7c3.4,2,6.9,3.7,10.6,5.2c2.6,1,5.2,1.9,7.9,2.6c1.4,0.3,2.8,0.6,4.1,0.9c1.1,0.2,2.3,0.3,3.4,0.5
		c0.9,0,1.8,0.1,2.7,0.2c0.2,0,0.4,0.1,0.5,0c3,0.2,6.1,0.1,9-0.6c2.6-0.6,5-1.6,6.9-3.4c1.5-1.5,2.4-3.3,2.5-5.4
		c0.1-1.4,0.2-2.7-0.2-4.1c-0.6-2.4-2.2-4.2-4.4-5.5c-2.4-1.4-5.1-2.4-7.8-3.3c-4.1-1.4-8.3-2.5-12.5-3.8c-4.1-1.3-8-2.8-11.5-5.2
		c-4.9-3.3-7.5-7.7-7.9-13.3c-0.1-1.8-0.1-3.7,0.2-5.5c1.2-7.8,5.6-13.2,13.4-16.1c2.9-1.1,5.9-1.6,9-1.9c1.7-0.1,3.3-0.2,5-0.2
		c2.1,0,4.2,0.1,6.2,0.3c1.5,0.2,3.1,0.3,4.6,0.5c1.8,0.3,3.5,0.5,5.3,0.9c3.3,0.7,6.5,1.5,9.7,2.7c1.3,0.5,2.6,1,3.9,1.6
		c0.1,0,0.2,0.1,0.3,0.2c0.1,0.1,0,0.3,0,0.4c-0.3,3.6-0.6,7.2-0.8,10.8c0,0.1,0,0.3-0.1,0.4c-0.9-0.4-1.7-0.9-2.6-1.4
		c-2.6-1.3-5.2-2.4-7.9-3.3c-1.6-0.5-3.1-0.9-4.8-1.3c-1.1-0.3-2.3-0.5-3.5-0.6c-1.1-0.2-2.2-0.4-3.4-0.4c-1-0.1-1.9-0.2-2.9-0.2
		c-2.1-0.2-4.2-0.1-6.3,0c-2.6,0.2-5.1,0.7-7.5,1.9c-2.5,1.3-4.1,3.2-4.8,5.7c-0.6,2.3-0.6,4.5,0.6,6.7c0.8,1.4,1.9,2.4,3.3,3.3
		c2.3,1.4,4.8,2.3,7.3,3.2c3.8,1.3,7.6,2.3,11.5,3.5c4.3,1.3,8.6,2.9,12.4,5.2c2.4,1.4,4.7,3.1,6.3,5.4c2,2.6,3,5.4,3.3,8.5
		c0.1,1.1,0.1,2.3,0.1,3.4c0,0.7-0.1,1.5-0.2,2.2c-0.9,7.4-5.1,12.5-12,15.9c-3.8,1.8-7.8,2.7-12,3.1c-1.7,0.2-3.4,0.2-5.1,0.2
		c-2.7,0.1-5.5-0.2-8.2-0.4c-1.5-0.1-2.9-0.4-4.3-0.6c-1.7-0.3-3.5-0.6-5.2-1c-1.8-0.4-3.6-0.9-5.4-1.4c-2.4-0.7-4.8-1.5-7.2-2.4
		c-1-0.3-2-0.7-2.9-1.2c0-0.1,0-0.3,0-0.4c0.3-4,0.6-7.9,0.9-11.9C441.2,763,441.1,762.8,441.3,762.7z"/>
</g>
</svg>
