<?xml version="1.0" encoding="utf-8"?>
<!-- Generator: Adobe Illustrator 21.0.1, SVG Export Plug-In . SVG Version: 6.00 Build 0)  -->
<svg version="1.1" id="Layer_1" xmlns="http://www.w3.org/2000/svg" xmlns:xlink="http://www.w3.org/1999/xlink" x="0px" y="0px"
	 viewBox="0 0 1280 1280" style="enable-background:new 0 0 1280 1280;" xml:space="preserve">
<g>
	<path class="portfolio0" d="M1060.9,630.2c5.3,236.4-180,417.3-392.3,429.7c-119.4,7-224.6-29.1-312.7-110.1
		c-87.7-80.7-133.8-182.1-136.1-301.1c-4.4-234.1,178.3-421,405-429.1C864.5,211.1,1056.1,400.4,1060.9,630.2z"/>
	<path class="portfolio1" d="M823.8,639.2c0,38.5,0.2,77-0.1,115.5c-0.2,30.1-14.4,52-41,65.5c-8.5,4.3-18.1,6.5-28,6.5
		c-76.8,0-153.6,0.1-230.4-0.1c-27.6-0.1-53.8-17.8-64-44.4c-3.4-8.8-5.2-17.8-5.2-27.2c0-76.3,0.1-152.6,0-228.9
		c0-27.7,11.3-49.1,34.7-63.9c9.2-5.8,19.5-9.4,30.6-9.4c79.3-0.1,158.6-0.5,237.9,0.2c23.2,0.2,41.2,12.4,54,31.8
		c8.4,12.7,11.6,26.9,11.6,42.1C823.7,564.3,823.8,601.8,823.8,639.2z"/>
</g>
<path class="portfolio0" d="M718.7,729.7H557.3c-13.6,0-24.7-11.1-24.7-24.7v-66.2c0-13.6,11.1-24.7,24.7-24.7h161.5
	c13.6,0,24.7,11.1,24.7,24.7V705C743.5,718.5,732.3,729.7,718.7,729.7z"/>
<polygon class="portfolio0" points="591.9,584 592.1,564 606.9,564 606.9,584 "/>
<polygon class="portfolio0" points="667.6,564 667.6,584 682.5,584 682.5,564 "/>
<path class="portfolio2" d="M557.6,579.1h161.3c15.5,0,28.2,12.7,28.2,28.2v38.5c0,15.5-89.6,28.2-105.1,28.2h-5.2
	c-15.5,0-107.4-12.7-107.4-28.2v-38.5C529.4,591.8,542.1,579.1,557.6,579.1z"/>
<path class="portfolio1" d="M640.2,690.9h-6.4c-3.9,0-7.1-3.2-7.1-7.1v-20.7c0-3.9,3.2-7.1,7.1-7.1h6.4c3.9,0,7.1,3.2,7.1,7.1v20.7
	C647.3,687.7,644.1,690.9,640.2,690.9z"/>
<path class="portfolio2" d="M592.1,564v-7c-0.3-1.4-0.2-2.4,0-3c0.8-2.9,4.3-5,8.6-5.1h75.8c0.5-0.1,1.3-0.2,2.1,0c2.6,0.7,3.6,3.6,3.6,3.9
	l0.4,11.3h-14.9c0.1-0.4,0.3-1.3,0-2.4c-0.5-1.8-2.1-2.5-2.4-2.6h-55c-0.3-0.1-1-0.3-1.8,0c-1.3,0.5-1.7,1.9-1.8,2l0.2,3h-14.8V564z
	"/>
</svg>
