<?xml version="1.0" encoding="utf-8"?>
<!-- Generator: Adobe Illustrator 21.0.1, SVG Export Plug-In . SVG Version: 6.00 Build 0)  -->
<svg version="1.1" xmlns="http://www.w3.org/2000/svg" xmlns:xlink="http://www.w3.org/1999/xlink" x="0px" y="0px"
	 viewBox="0 0 1280 1280" style="enable-background:new 0 0 1280 1280;" xml:space="preserve">
<style type="text/css">
	.speed0{fill:#1BC1C1;}
	.speed1{fill:#FFFFFF;}
</style>
<g id="Layer_2">
	<path class="speed0" d="M161,652.4c0,2.6,0,6.4,0,11c0.1,13.5,0.4,47.5,5,79c5.6,38.1,16.6,66.1,26,90c11.7,29.7,23.7,52.2,31,65
		c24.1,42.4,48.2,70.4,54,77c24.9,28.5,47.1,46.5,64,60c16.8,13.5,45.4,34.8,84,56c22.2,12.2,53.1,28.9,96,42
		c61.1,18.6,111.3,19,146,19c34.4,0,70.8,0,117-12c59.4-15.4,99.6-41.4,133-63c55.3-35.7,90.7-72,103-85c36.5-38.6,61.4-76.5,78-106
		c0.9-1.3,2.4-3.7,3-7c0.9-4.7-0.4-8.4-1-10l-11-9l-13-9l-8-9c1-1.2,2.4-2.9,4-5c13.2-17.1,24.5-38.5,34-74c5.7-21.5,9.6-43.8,12-73
		c2.5-30,5.7-69-1-120c-9.7-73.9-34.2-126.9-42-143c-4-8.2-22.2-45.3-56-88c-43.7-55.3-88-88.1-105-100
		c-57.3-40.3-108.9-58.2-127-64c-17.8-5.8-63.8-19.4-125-22c-94.1-4-165.5,20.4-191,30c-25,9.4-88.6,35.8-153,94
		c-81.7,73.8-116.2,154.4-126,179c-18.9,47.7-25.8,90-28,105c-4.2,28.7-5.2,53.6-5,73L161,652.4z"/>
	<path class="speed1" d="M1003,802.4c4,2.4-8.4,30-12,38c-14.3,31.9-31.2,69.3-70,104c-26.9,24-52.6,36-70,44c-7.6,3.5-14.9,6.5-22,9.1
		c-8,3-13.6-8-6.5-12.8c0.2-0.1,0.4-0.3,0.6-0.4c29.1-19.8,48.2-38.5,68-58c28.2-27.8,50.3-53.8,64-70
		C985,821,999.4,800.3,1003,802.4z"/>
	<path class="speed1" d="M276.8,483.8c-3.9-2.4,8.8-29.9,12.5-37.8c14.7-31.7,32-68.9,71.3-103.1c27.2-23.7,53.1-35.4,70.5-43.1
		c7.6-3.4,15-6.3,22.1-8.9c8-2.9,13.5,8.1,6.4,12.8c-0.2,0.1-0.4,0.3-0.6,0.4c-29.3,19.4-48.7,37.9-68.7,57.1
		c-28.5,27.4-51,53.2-64.9,69.2C295,465.5,280.4,486,276.8,483.8z"/>
	<path class="speed1" d="M907.5,784.2c2.6,1.5-5.4,19.3-7.7,24.5c-9.2,20.5-20.1,44.7-45.1,67c-17.3,15.5-33.9,23.2-45.1,28.4
		c-4.9,2.2-9.6,4.2-14.2,5.9c-5.2,1.9-5.8-1.4-1.3-4.5c0.1-0.1,1.9-1.9,2-2c18.7-12.8,31.2-22.4,44-35c18.2-17.9,33.2-34.6,42-45
		C901.4,800.6,905.2,782.8,907.5,784.2z"/>
	<path class="speed1" d="M359.1,497.1c-2.5-1.6,5.9-19.2,8.3-24.3c9.7-20.3,21.1-44.2,46.6-66c17.7-15.1,34.4-22.4,45.8-27.3
		c4.9-2.1,9.7-4,14.3-5.6c5.2-1.8,5.8,1.6,1.2,4.6c-0.1,0.1-1.9,1.9-2,2c-19,12.3-31.7,21.7-44.8,34c-18.6,17.5-33.9,33.8-43,44
		C365.6,480.9,361.4,498.6,359.1,497.1z"/>
</g>
<g id="Layer_3">
	<path class="speed1" d="M467,822c0-0.4,0-0.8,0-1l1-2c0.2-0.3,0.6-0.6,1-1c1.1-1,2.2-1.6,3-2c2.7-1.4,5-2,5-2c5.5-1.5,8.6-1.8,13-3
		c3.7-1,2.8-1.1,9-3c6.5-2,7.2-1.8,10-3c3.1-1.4,5.1-2.9,9-6c2.9-2.3,6.7-5.3,11-10c1.4-1.6,5.1-5.7,9-12c2.9-4.6,5-9.5,9-19
		c4.9-11.4,8-20.3,10-26c0.9-2.5,1.5-4.6,2-6l1-1c0.2,0,0.6,0,1,0c2,0.2,3.4,1.5,4,2c4.8,4.4,4.5,3.1,8,7c1.8,2,4.9,5.6,8,11
		c0.9,1.5,3.9,7.1,6,15c1.9,7.2,0.7,7.8,2,13c0.2,0.6,0.6,2.2,0,4c-0.5,1.6-1.5,2.5-2,3c-2.2,2.1-3.8,4.8-6,7
		c-7.7,7.8-11.5,11.7-13,13c-5.1,4.6-9.4,7.8-11,9c-5.2,3.9-10.9,8.1-19,12c-1.7,0.8-9.2,4.4-20,7c-3.6,0.9-9.7,1.6-22,3
		c-2.4,0.3-9.9,1.1-19,0c-1.6-0.2-7.7-1-9-4C467.9,826.8,467.1,824.7,467,822z"/>
	<path class="speed1" d="M457,842c0.4-0.3,1.1-0.7,2-1c2.6-0.9,5.1-0.2,6,0c3.6,0.9,7.3,0.6,11,1c3.3,0.4,7.2,0.3,15,0
		c9.7-0.3,14.6-0.5,19-1c8.8-1.1,15.1-2.9,22-5c11-3.3,17.9-5.4,26-10c8.6-4.9,13.8-10,23-19c10.8-10.6,11.9-13.6,20-22
		c3.2-3.3,15.7-16,34-27c16-9.6,29.3-13.8,43-18c4.9-1.5,12.7-3.7,47-10c22.9-4.2,55.8-9.9,56-9c0.1,0.5-10,2.3-30,8
		c-10.8,3.1-20,6-23,7c-12.6,4.1-11.4,4.1-18,6c-10.9,3.2-12.8,2.8-29,7c-8.1,2.1-12.3,3.2-17,5c-1.7,0.7-9,3.5-18,9
		c-7.7,4.7-12.5,8.8-22,17c-8.8,7.6-13.2,11.4-16,16c-0.7,1.2-2.2,3.9-5,7c-3,3.4-5.8,5.4-8,7c-9.3,6.8-7.9,7-15,12
		c-6.4,4.5-11.7,7.2-17,10c-7.3,3.8-13.9,7.2-23,10c-12,3.7-21.7,4.4-31,5c-3.6,0.2-0.3-0.1-24,0c-7.1,0-12.7,0.1-20-2
		C461.6,844,458.9,842.9,457,842z"/>
	<path class="speed1" d="M583,717c0.9,1.2,0.7,1.1,2,3c2.2,3.1,4.2,5.1,5,6c1,1.1,3.7,5.1,9,13c4.5,6.8,5,7.5,5,9c0,1.4-0.2,3.6,1,6
		c0.8,1.6,1.6,1.9,2,2c1.2,0.3,2.3-0.5,3-1c2.2-1.5,4.8-2.4,7-4c1.5-1.1,4.7-3.1,11-7c5.6-3.4,9.9-5.4,18-9c4.4-2,8.4-3.6,12-5
		c0.2,0,0.6,0,1,0c2.5-0.1,4.4-0.8,5-1c2.1-0.9,3.2-2.8,5-6c1.7-3.1,1.6-3.8,4-9c1.2-2.6,1.9-4.1,3-6c1.2-2,2.6-4.4,5-7
		c2.9-3.1,3.9-2.8,5-5c1.3-2.4,1.1-4.9,1-7c-0.2-2.6-0.7-3-2-8c-1.6-5.8-1.4-7.3-3-11c-0.7-1.8-1.5-3.1-2-4v3v3l-1,7
		c0.1,1,0.1,2.3,0,4c-0.5,6.5-3.6,11-5,13c-2.6,3.8-5.4,6-8,8c-2.3,1.8-5.4,4.3-10,6c-5.2,2-9.5,2-14,2c-1.5,0-8.8-0.1-18-3
		c-5.4-1.7-8.1-2.6-11-5c-5.1-4.2-6.9-9.8-8-13c-1-3.1-2.6-7.8-2-13c0-0.4,0-2.6,0-7c0-1.7,0-3-1-4c-0.7-0.7-1.9-1.2-3-1
		c-0.8,0.1-1.4,0.5-2,1c-0.9,0.8-2.5,2.3-4,5l-22,26c-0.7,0.2-2.6,0.7-3,2c-0.3,0.9,0.4,1.9,2,4c2.2,2.9,3.3,4.3,4,5
		C578.2,713.3,580.1,713.2,583,717z"/>
	<path class="speed1" d="M689,638c0.7-0.4,1.7-0.1,2,0c2.9,1,6,0.4,9,1c7.7,1.5,11.3,1,20,3c9.1,2.1,14.6,3.4,20,8
		c4.6,3.9,7.1,8.5,9,12c1.8,3.3,4.1,7.7,5,14c0.2,1.3,1,7.4-1,15c-1,3.7-3.3,12.3-11,19c-4.3,3.8-8.5,5.3-13,7c-6.6,2.5-11.8,3-21,4
		c-4.1,0.4-10,0.9-17,1l-2-1h-1l-1-2c0.2-0.2,0.6-0.6,1-1c3.4-3.5,6.7-8.1,10-16c3.5-8.4,5.8-13.9,6-22c0.2-8.2-2-14.2-4-20
		c-2.4-6.9-3.9-11.1-7-13c-2.2-1.4-2.8-2.2-4-4c-0.5-0.8-1.1-1.8-1-3C688,639.8,688.1,638.5,689,638z"/>
	<path class="speed1" d="M618,685c0-2.3,0-3.8,0-4c0-6.7,10-21,10-21c3.9-5.7,6.6-10.4,12-20c5.4-9.6,8.1-14.5,10-20
		c4.5-13.3,3.6-24.9,3-32c-1.5-17.9-6.6-19.3-7-30c-0.9-21.4,18.2-38.6,32-51c10.3-9.2,24.3-15.7,52-29c24.2-11.7,28.7-12.2,46-22
		c10.4-5.9,22.2-12.7,36-24c14.3-11.7,25.6-24.1,32-31c3.4-3.7,6.1-6.8,8-9h1c0.3,0.2,0.6,0.5,1,1c0.7,1,0.9,2.1,1,3
		c0.3,3.8-1,8-1,8c-0.9,3-1.6,5.3-3,8c-6.6,13-21,26-21,26c-6.4,5.7-11.6,9.4-21,16c-3.7,2.6-8.6,6-15,10c-14,8.9-33.2,21-55,30
		c-7.5,3.1-14.2,7.8-22,10c-0.3,0.1-6,1.7-11,6c-1,0.8-3.1,2.8-4,6c-0.3,1.1-0.8,2.7,0,4c0.6,1.1,2.1,2,6,2c7.2,0.1,15.2-2.9,20-5
		l10-4l21-11l17-10l18-11l16-11l11-8l18-13l11-9l6-5l3-2h1h1c0.3,0.2,0.7,0.5,1,1c3.1,4.3-2.2,13-4,16c-3.5,5.8-7.4,9.5-9,11
		c-11.2,10.5-21,17-21,17c-10.3,6.8-20.4,13.5-36,22c-16.5,9-29.6,14.7-35,17c-7.6,3.2-15.2,6.4-23,9c-6.5,2.2-11.9,3.6-12,6
		c-0.1,2.6,6.1,4.7,7,5c10,3.4,20.1,0.1,30-4c11.6-4.8,20-9.4,30-15c24.7-13.9,37.2-20.9,45-27c1.4-1.1,7-5.5,15-11
		c2.6-1.8,4.8-3.2,6-4l2-1h1c0.3,0.2,0.7,0.5,1,1c1.2,2.3-2.5,6.3-4,8c-17,18.4-22,22-22,22c-10.1,7.2-18.2,13-32,20
		c-4.1,2.1-29.3,15-47,19c-7.9,1.8-15,6.9-23,8c-0.3,0-1.4,0.2-2,1c-0.6,0.8-0.5,2.1,0,3c0.8,1.4,2.4,1.9,3,2c10.7,2.8,43-7,43-7
		c9-2.7,23.6-7,31-10c6.7-2.7,10-4,10-4c0,0,1.9-1.2,5-2c1.1-0.3,2-0.4,3,0c0.2,0.1,1.8,0.7,2,2c0.1,0.5-0.1,1.3-2,3
		c-2.3,2.2-4,3-4,3c-8.8,4.4-13.2,6.7-14,7c-9.8,3.9-14.8,5.9-20,7c-2.1,0.5-5.8,1-13,2c0,0-5.5,0.8-15,3c-4.2,1-6.9,1.7-8,4
		c-0.6,1.3-1,3.4,0,5c2.1,3.2,8.7,1.9,30,0c5.6-0.5,10.8-0.9,11,0c0.1,0.6-2,1.6-3,2c-4.1,1.8-7.6,2-8,2c-7.8,0.4-8,2.2-20,3
		c-6.3,0.4-9.9,1-17,2c-1.4,0.2-4.4,0.7-6,3c-0.2,0.3-1.3,2-1,4c0.3,1.7,1.6,3,3,4c10.6,7.4,25,7,25,7c4.4-0.1,8.7,1.4,13,2
		c0.4,0,1.5,0.2,2,1c0.5,0.9,0,2,0,2c-0.7,1.5-2.8,1.8-4,2c-7.9,1.1-13,0-13,0c-5.6-1.2-11.1-1.8-22-3c-17.2-1.9-9.5,0.7-15,0
		c-0.9-0.1-3.5-0.5-5,1c-0.5,0.5-1,1.3-1,2c-0.2,2.3,3.7,4.2,9,7c9.4,5,6.7,4.3,18,10c2.5,1.3,4.6,2.3,6,3l-1,1l-2,1
		c-0.5,0-1.2,0-2,0c-6.9-0.2-12.1-2.3-14-3c-9.5-3.7-19.5-5.4-23-6c-9.9-1.7-15.3-1.2-17-1c-6.5,0.7-10.9,2.5-12,3
		c-5.9,2.5-9.7,5.8-11,7c-2.3,2.2-5.1,4.7-7,9c-1.6,3.7-1.9,6.9-2,8c-0.3,5.1,1.3,6.7,2,13c0.2,2,0.6,5.3,0,9
		c-1.3,8.4-6.4,14.1-9,17c-4.6,5.1-9.1,7.5-10,8c-3.4,1.8-6.3,2.5-8,3c-5.2,1.4-8.7,1.1-10,1c-2.7-0.3-3.7-0.8-4-1
		c-3.3-1.9-4-5.8-4-6C617.9,688.4,618,688.5,618,685z"/>
	<path class="speed1" d="M639,610c0.2-0.5,0.6-1.2,1-2c0.7-1.4,3.2-6.7,4-12c0.6-3.5,0-6.7-1-13c-0.2-1.3-1.1-6.3-3-13
		c-2.2-7.5-3-8-4-13c-0.8-4.1-0.9-7.1-1-11c-0.2-7-0.3-11.1,1-16c1.6-5.8,4.4-9.6,7-13c2.1-2.7,7.3-9.1,19-16c8-4.7,13.1-6.2,20-9
		c9-3.7,16.6-8.5,32-18c12.1-7.5,20.7-13.6,38-26c9.1-6.5,16.8-12.2,26-20c3.3-2.8,6.1-5.3,8-7l1-2v-1l-1-2l-3-4l-4-4l-1-2v-2l5-6
		l3-4l1-1c0.2-0.7,0.4-1.5,0-2c-0.8-1.1-3.6-0.4-5,0c-2.8,0.8-4.1,1.8-8,3c-1,0.3-2.1,0.6-3,0c-0.7-0.5-0.9-1.5-1-2
		c-0.6-4.1,0.9-8.6,1-14c0.1-2.8-0.3-3.8,0-7c0.1-0.9,0.2-1.9,0-2c-0.3-0.1-1,1.8-2,4c-0.1,0.1-1,2.1-3,6c-2.5,5-6.1,11.4-7,13
		c-3.7,6.5-7.8,10.3-16,19c-15.5,16.4-12.4,14.6-21,23c-5.8,5.7-11.9,10.8-24,21c-4.2,3.5-9.9,8.3-17,14c-14.6,11.8-21.9,17.7-27,21
		c-7.9,5.2-11.3,7.8-18,13c-2.1,1.6-5.1,4-8,8c-1.1,1.6-3.6,5-5,10c-1.7,6-1,10.9,0,17c0.8,5.2,2,9,4,15c2.5,7.7,3.5,9,5,15
		c0.8,3.3,0.5,2.8,2,11c1.4,7.7,1.9,9.1,3,15c0.6,3.1,1.3,7.5,2,13V610z"/>
</g>
</svg>
