<?xml version="1.0" encoding="utf-8"?>
<!-- Generator: Adobe Illustrator 21.0.1, SVG Export Plug-In . SVG Version: 6.00 Build 0)  -->
<svg version="1.1" xmlns="http://www.w3.org/2000/svg" xmlns:xlink="http://www.w3.org/1999/xlink" x="0px" y="0px"
	 viewBox="0 0 1280 1280" style="enable-background:new 0 0 1280 1280;" xml:space="preserve">
<style type="text/css">
	.techno0{fill:#1BC1C1;}
	.techno1{fill:#FFFFFF;}
</style>
<g id="Layer_1">
	<g id="Layer_2">
		<path class="techno0" d="M1119.5,500.8c0.7,2.5,1.8,6.1,3,10.6c3.6,12.9,12.8,45.6,17.1,77.2c5.2,38.1,2.4,68,0,93.6
			c-3,31.7-8.3,56.6-11.8,71c-11.4,47.3-26.8,80.9-30.5,88.8c-16,34.2-32.4,57.7-44.9,75.3c-12.4,17.6-33.9,46-65.2,77
			c-17.9,17.8-43,42.5-80.6,66.9c-53.6,34.8-101.6,49-135,58.7c-33.1,9.5-68,19.6-115.7,20.9c-61.4,1.7-107.1-12.1-145.3-23.6
			c-63-19-107.1-44-122.5-53.1c-45.8-27-80.2-56.4-104.3-80.1c-1.3-1-3.3-2.9-4.8-5.9c-2.1-4.2-2-8.2-1.8-9.9l8.1-11.7l10-12.2
			l5.2-10.9c-1.3-0.9-3.1-2.1-5.2-3.7c-17.4-12.8-34.3-30.2-53.2-61.6c-11.5-19.1-21.3-39.4-31.8-66.7
			c-10.7-28.1-24.6-64.6-32.3-115.4c-11.1-73.6-2.3-131.2,0.7-148.9c1.5-9,8.8-49.6,29.4-100c26.6-65.2,60.2-108.9,73.2-125
			c43.9-54.5,88.5-86,104.3-96.6c15.5-10.5,55.9-36.2,114-55.7c89.3-29.9,164.7-26.3,191.8-24.1c26.6,2.1,95.1,9.9,173.1,47.8
			c98.9,48.2,154.5,116,170.7,136.9c31.4,40.5,49.7,79.2,56,93c12,26.3,19.8,50,25,68.7L1119.5,500.8z"/>
		<path class="techno1" d="M315.1,824.8c-3.7,2.8,11.9,28.8,16.4,36.3c17.9,29.9,39,65.1,81.7,95c29.5,20.7,56.5,29.6,74.7,35.5
			c7.9,2.6,15.6,4.7,23,6.5c8.3,2,12.6-9.5,5-13.4c-0.2-0.1-0.4-0.2-0.6-0.3c-31.2-16.3-52.4-32.6-74.3-49.6
			c-31.2-24.3-56.3-47.5-71.7-62C335.1,841.1,318.4,822.3,315.1,824.8z"/>
		<path class="techno1" d="M999,424.1c3.6-2.8-12.2-28.6-16.8-36.1c-18.3-29.7-39.9-64.6-82.9-94c-29.8-20.3-56.8-28.9-75.1-34.6
			c-7.9-2.5-15.6-4.5-23-6.2c-8.3-1.9-12.4,9.6-4.8,13.5c0.2,0.1,0.4,0.2,0.6,0.3c31.4,15.9,52.8,31.9,74.9,48.7
			c31.5,23.9,56.8,46.8,72.5,61.1C978.8,408.1,995.7,426.7,999,424.1z"/>
		<path class="techno1" d="M407.8,795.6c-2.4,1.8,7.7,18.6,10.5,23.4c11.5,19.3,25.2,42,52.7,61.3c19,13.4,36.4,19.1,48.1,22.9
			c5.1,1.7,10,3,14.8,4.2c5.3,1.3,5.6-2.1,0.7-4.6c-0.1-0.1-2.1-1.7-2.2-1.8c-20.1-10.5-33.7-18.6-47.8-29.6
			c-20.1-15.7-37-30.4-47-39.8C415.8,811.1,409.9,793.9,407.8,795.6z"/>
		<path class="techno1" d="M918.9,447c2.3-1.9-8.1-18.4-11.1-23.2c-12-19-26.1-41.4-54-60.1c-19.3-12.9-36.8-18.3-48.6-21.8
			c-5.1-1.5-10.1-2.8-14.9-3.9c-5.4-1.2-5.6,2.2-0.6,4.7c0.1,0.1,2.1,1.6,2.3,1.7c20.3,10,34.1,17.8,48.4,28.5
			c20.5,15.2,37.7,29.6,47.9,38.7C910.5,431.6,916.7,448.7,918.9,447z"/>
	</g>
</g>
<g id="Layer_2_1_">
	<g>
		<path class="techno1" d="M426.8,570.8c4-21,19.3-31,37.2-38.3c16.4-6.7,33.7-9.7,51.2-11.6c11.6-1.2,23.3-1.7,35-1.5
			c2,0,2.6-0.6,2.6-2.6c0-10.3-0.2-20.6,0.7-30.9c2-23.5,5.4-46.6,16.8-67.8c3.9-7.3,8.8-13.8,15.6-18.6c12.1-8.5,25-8.9,38.3-3.6
			c13.7,5.5,24.6,15,34.5,25.7c16.1,17.5,28.8,37.4,39.8,58.4c1.5,2.8,2.6,2.7,5,1.4c4.1-2.4,8.5-4.3,12.7-6.5
			c1.6-0.9,2.6-1.2,2.9,1.3c0.5,3.9,2.1,7.5,4.5,10.6c1.2,1.5,1.2,2.3-0.8,3.2c-4.4,1.9-8.6,4.2-12.9,6.1c-1.8,0.8-2.5,1.5-1.5,3.6
			c7.5,15.6,14,31.7,19.7,48c0.6,1.7,1.5,2.6,3.2,3.2c21,6.9,41.5,15.2,61.3,24.9c1.7,0.8,2.8,1.1,3.9-0.9
			c10.1-17.3,19.3-34.9,23.2-54.8c1.4-7.2,1.9-14.5,0.4-21.7c-2.6-12.8-11.5-21.2-24.4-23.4c-10.8-1.9-21.5-1-32.2,1.2
			c-4.3,0.9-4.5,0.9-4.6-3.5c-0.1-4.9-2.7-8.8-5.2-13.1c8.8-3,17.6-5.2,26.5-6.5c12.1-1.8,24.2-2.2,36.2,1.3
			c16.3,4.8,27.2,19.2,27.9,36.2c1,22.1-6.6,41.9-15.9,61.2c-5,10.4-10.8,20.4-17.2,30.1c-1.5,2.3-1.2,3,1.1,4.3
			c18.9,10.5,36.9,22.5,52.3,37.9c9.3,9.3,17.3,19.6,21.5,32.3c5.4,16.5,0.1,33-13.7,43.7c-13.4,10.4-29,15.7-45.3,19.3
			c-20.2,4.5-40.7,6.1-61.3,6c-3,0-3.6,0.9-3.4,3.6c0.4,7.3-0.3,14.5-0.6,22.2c-5-1.9-9.7-3.7-14.9-2.4c-1.8,0.4-1.6-1.1-1.5-2.2
			c0.3-6.3,0.6-12.6,1-18.8c0.2-2.2-0.6-2.8-2.7-2.9c-16.8-0.4-33.5-2.5-50.2-4.7c-0.9-0.1-1.7-0.3-2.6-0.5
			c-6.2-1.5-11.4-0.7-16.9,3.7c-13.4,10.7-28,20-42.8,28.8c-1.8,1.1-2.6,1.8-1.3,4c10.9,18.9,22.8,37,39,51.9
			c5,4.6,10.4,8.7,16.5,11.8c17.7,9.4,34.7,4.4,44.6-13.2c3.4-6.1,6.1-12.4,7.9-19.1c0.6-2.4,1.5-3,3.9-1.9
			c4.3,1.9,8.9,2.7,13.6,1.9c1.4-0.2,2.7-0.5,2.2,2c-3.3,15.5-7.5,30.7-16.8,43.9c-7,9.8-15.8,16.7-28.1,18.4
			c-0.2,0-0.4,0.3-0.6,0.4c-3,0-6,0-9.1,0c-14.6-0.9-25.8-8.9-36.4-18c-16.9-14.5-29.4-32.6-40.9-51.4c-3.3-5.4-6.8-10.6-9.3-16.4
			c-1.3-2.9-2.8-3.3-5.6-1.8c-11.6,6.1-23.3,11.8-35.6,16.4c-15.7,5.9-31.7,10.8-48.5,12.3c-12,1-23.9,0.5-35.1-4.9
			c-12.2-6-19.1-16-21.3-29.3c-2.3-13.4,0.1-26.3,4-39c6.1-19.7,15.6-37.8,26.7-55.2c2.8-4.4,2.9-4.4-1.5-7c-4.4-2.7-8.8-5.3-13.2-8
			c-3.1-1.9-3.3-2.9-0.7-5.5c2.5-2.6,4.4-5.4,5.8-8.7c1.3-3.2,2.5-3.5,5.5-1.6c4.6,2.8,9,6,13.6,8.9c2.6,1.7,4.3,1.6,6.3-1.1
			c12.2-16.6,25.3-32.5,39.7-47.4c1.8-1.8,2.1-3.8,1.7-6.2c-2.8-16.2-4.6-32.6-5.7-49c-0.2-3-1.8-3.1-4-3.1
			c-18.5,0.4-36.9,2.6-54.7,7.9c-9.2,2.7-18,6.5-25.7,12.4c-13.8,10.5-15.9,24.7-8.4,39.6c1.9,3.7,4.3,7.1,6.8,10.4
			c2.5,3.2,2.4,3.8-0.9,5.9c-3.8,2.4-7,5.2-9.4,9.1c-1.8,3-3.1,3-5.7,0.6c-9.2-8.6-16.5-18.6-21.5-30.2c-1.6-3.6-1.8-7.5-2.4-11.3
			C426.8,577.4,426.8,574.1,426.8,570.8z"/>
		<path class="techno1" d="M751.2,751.9c8.7,0,16,7.4,16,16.2c0,8.6-7.7,16.3-16.2,16.1c-8.9-0.2-16.2-7.3-16.2-16
			C734.7,759.2,742.1,751.9,751.2,751.9z"/>
		<path class="techno1" d="M738.9,457.6c8.6,0,16.4,7.8,16.2,16.2c-0.2,8.9-7.8,16.4-16.5,16.2c-8.8-0.2-15.9-7.5-15.9-16.4
			C722.7,465,730.2,457.6,738.9,457.6z"/>
		<path class="techno0" d="M675.1,702.1c-11.9-2-23.8-4.5-35.6-7.4c-13-3.1-25.9-6.9-38.7-10.8c-1.7-0.5-3-1.2-3.7-3.2
			c-8.8-26.3-15.6-53.1-20.7-80.3c-0.4-2.1,0-3.7,1.6-5.4c18.1-18.4,37.3-35.5,57.6-51.4c1.2-1,2.4-1.5,4.1-1.2
			c25.3,4.5,50.2,10.6,74.7,18.4c2.1,0.7,3.1,1.7,3.7,3.7c8.8,26.4,15.7,53.3,20.8,80.7c0.4,1.9-0.4,2.8-1.5,3.9
			c-16,16.3-32.7,31.6-50.5,45.8c-2.5,2-4.9,3.9-7.4,5.9C678.3,702,677,702.8,675.1,702.1z"/>
		<path class="techno0" d="M568.8,510.7c1-20.6,2.9-42.3,11.3-62.8c2.2-5.4,5-10.4,8.5-15c9.6-12.5,23-16.1,37.4-9.7
			c12.1,5.3,21.6,14.1,30.2,23.9c11,12.3,19.9,26.2,28.2,40.4c1.6,2.8,1.3,4-1.5,5.6c-15.9,9.2-31,19.6-45.6,30.7
			c-2.6,2-4.9,2.6-8.2,2c-17.1-2.7-34.3-5-51.6-5.7c-0.5,0-1,0-1.5-0.1C568.7,519.6,568.7,519.6,568.8,510.7z"/>
		<path class="techno0" d="M531.2,770.8c-4.9,0.1-10-0.4-14.9-1.9c-14.3-4.3-21.8-14.4-22.2-30c-0.2-10.3,2.2-20.2,5.5-29.8
			c4.7-13.6,11.3-26.3,18.6-38.6c1.2-2.1,2.1-2.7,4.6-1.5c19.4,9.7,39.6,17.7,60.2,24.7c2.4,0.8,3.6,2,4.5,4.4
			c5.4,15.4,11.4,30.6,18.5,45.3c1.6,3.2,1.1,4.6-2.2,6.1c-17.5,8.3-35.2,15.8-54.4,19.4C543.5,770,537.6,770.9,531.2,770.8z"/>
		<path class="techno0" d="M766.2,709.6c-4.4,0.1-4.5,0.1-4.8-5.4c-1-16.8-3.1-33.5-5.9-50c-0.3-1.6,0.2-2.5,1.2-3.6
			c15.1-15.8,29.2-32.5,42-50.3c1-1.3,1.7-2.2,3.5-1.1c17.9,11.1,35.2,22.9,48.1,40c4.4,5.9,8.1,12.1,9.6,19.4
			c2.7,12.6-2.3,22.4-12,30c-11,8.6-24.1,12.7-37.5,15.8C796.1,707.6,781.7,708.8,766.2,709.6z"/>
		<path class="techno0" d="M580.3,676.8c-10.7-3.9-20.5-7.8-30-12.1c-6.2-2.8-12.2-5.9-18.4-8.6c-2.7-1.2-3-2.2-1.1-4.8
			c9.9-13.9,20.7-27.2,32.5-40.4C567.9,633.2,573.4,654.7,580.3,676.8z"/>
		<path class="techno0" d="M751.8,633.8c-4.6-22.5-10.2-44.1-17-65.8c11.2,4,21.8,8.3,32.3,13.1c5.8,2.7,11.5,5.5,17.3,8.3
			c1.1,0.5,2,0.8,1,2.4C775.3,606.4,764,620.1,751.8,633.8z"/>
		<path class="techno0" d="M697.5,705.6c15.6-12.9,30.2-25.8,44.3-39.8c1.7,6,1.9,11.9,2.5,17.6c0.9,7.7,1.1,15.5,1.7,23.3
			c0.2,2.3-0.4,3.2-2.8,3c-11.5-0.9-23-1.7-34.5-2.6C705.2,706.8,701.8,706.2,697.5,705.6z"/>
		<path class="techno0" d="M617.1,539.6c-15.4,12.5-29.7,25.6-44.2,39.5c-0.9-7.9-1.9-15.3-2.6-22.7c-0.6-6.2-0.6-12.5-1.2-18.8
			c-0.2-2,0.3-2.4,2.1-2.3c12.6,0.2,25,1.3,37.5,2.8C611.4,538.4,614.1,538.1,617.1,539.6z"/>
		<path class="techno0" d="M653.8,530.2c12.8-9,25-17.1,37.8-24.3c1.6-0.9,2.3-0.6,3.1,1c5.9,12,11.2,24.3,16.2,37.4
			C691.9,538.9,673.4,534,653.8,530.2z"/>
		<path class="techno0" d="M661.1,714.6c-10.1,7.1-19.7,13.4-29.5,19.4c-2.8,1.7-5.6,3.3-8.4,5c-1,0.6-1.7,1.1-2.5-0.6
			c-6-12.2-11.3-24.7-16.4-37.9C623.1,706,641.6,710.7,661.1,714.6z"/>
		<path class="techno1" d="M489.7,630.4c-0.1,8.8-7.3,16-16.2,15.9c-8.8-0.1-15.9-7.5-15.8-16.6c0.1-8.7,7.5-15.9,16.4-15.7
			C482.8,614.1,489.8,621.5,489.7,630.4z"/>
		<path class="techno1" d="M657.5,658.6c-20.3-0.1-36.1-16-36-36.5c0-19.5,16.5-35.6,36.4-35.5c19.8,0.1,35.7,16.3,35.6,36.2
			C693.4,642.9,677.5,658.7,657.5,658.6z"/>
	</g>
</g>
</svg>
