<?xml version="1.0" encoding="utf-8"?>
<!-- Generator: Adobe Illustrator 21.0.1, SVG Export Plug-In . SVG Version: 6.00 Build 0)  -->
<svg version="1.1" id="Layer_1" xmlns="http://www.w3.org/2000/svg" xmlns:xlink="http://www.w3.org/1999/xlink" x="0px" y="0px"
	 viewBox="0 0 1280 1280" style="enable-background:new 0 0 1280 1280;" xml:space="preserve">
<g>
	<path class="Telegram0" d="M1060.9,630.2c5.3,236.4-180,417.3-392.3,429.7c-119.4,7-224.6-29.1-312.7-110.1
		c-87.7-80.7-133.8-182.1-136.1-301.1c-4.4-234.1,178.3-421,405-429.1C864.5,211.1,1056.1,400.4,1060.9,630.2z"/>
	<path class="Telegram1" d="M823.8,639.2c0,38.5,0.2,77-0.1,115.5c-0.2,30.1-14.4,52-41,65.5c-8.5,4.3-18.1,6.5-28,6.5
		c-76.8,0-153.6,0.1-230.4-0.1c-27.6-0.1-53.8-17.8-64-44.4c-3.4-8.8-5.2-17.8-5.2-27.2c0-76.3,0.1-152.6,0-228.9
		c0-27.7,11.3-49.1,34.7-63.9c9.2-5.8,19.5-9.4,30.6-9.4c79.3-0.1,158.6-0.5,237.9,0.2c23.2,0.2,41.2,12.4,54,31.8
		c8.4,12.7,11.6,26.9,11.6,42.1C823.7,564.3,823.8,601.8,823.8,639.2z"/>
</g>
<path class="Telegram0" d="M754,537c3.8-1.6,3.2,0.4,2.2,2.7c-4.3,10.3-8.7,20.5-13,30.8c-13.1,31.4-26.3,62.8-39.4,94.2
	c-10.5,25-21.1,49.9-31.5,75c-1.7,4.1-2.9,1.8-4.3,0.1c-12.9-15.5-25.7-30.9-38.6-46.4c-1.5-1.8-3-3.5-4.5-5.3
	c-6.1-4.5-10.1-11-14.9-16.7c-1-5.2,3.5-7.3,6.3-9.8c13.5-12.1,27.1-24,40.5-36.3c9.5-8.8,19.5-17.1,28.9-26
	c17.1-16.1,35.2-31.1,52.2-47.2C743.2,546.9,749,542.3,754,537z"/>
<path class="Telegram0" d="M575.8,644.2c-24.4-12.8-48.8-25.5-74.5-38.9c9.4-2.6,17.6-4.8,25.8-7c61.3-16.5,122.6-33.1,184-49.6
	c13.6-3.7,27.3-7.3,40.9-11c1.3,2.2-0.5,2.6-1.8,3.7c-9.2,6.8-19.5,12-29.2,18.1c-20,12.6-40.3,24.5-60.5,36.7
	c-26.1,15.8-52.5,31.3-78.7,47C579.9,644.2,578.1,645.7,575.8,644.2z"/>
<path class="Telegram2" d="M575.8,644.2c6.8-1.5,12-6.1,17.8-9.6c16.3-9.8,32.6-19.6,49.1-29.1c11.8-6.9,23.3-14.4,35-21.5
	c21.5-13,43.2-25.7,64.6-38.8c3.5-2.1,7.8-3.4,9.8-7.6c0.5-0.8,1.3-0.7,2-0.5c-1.7,5.7-6.9,8.3-10.8,12
	c-11.9,11.1-24.1,21.7-36.2,32.6c-12.4,11.1-24.5,22.6-37.2,33.4c-8,6.8-15.6,14.3-23.4,21.4c-11.1,10.1-22.3,20.2-33.4,30.3
	c-1.2,1.1-3.3,2.1-2,4.5c-7,12.6-12.2,26.1-18.1,39.2c-4.1,9.1-8.2,18-12.8,26.8c-0.5,0.6-1,2.3-1.9,0.6c-0.5-0.9-0.2-2.3-0.2-3.4
	c-0.4-27.9-0.7-55.9-1-83.8C576.9,648.3,576.9,646.1,575.8,644.2z"/>
<path class="Telegram3" d="M580,737.1c1.2-7,5.3-12.9,8.1-19.2c4-9,7.9-18.1,11.9-27.1c2.7-6.2,5.6-12.3,8.4-18.4c0.5-1,1.5-1.3,2.5-1.3
	c4.7,5.7,9.3,11.4,14,17.1c-2.2,0.1-2.9,1.9-4.1,3.3C607.2,706.6,593.6,721.8,580,737.1z"/>
</svg>
