<?xml version="1.0" encoding="utf-8"?>
<!-- Generator: Adobe Illustrator 21.0.1, SVG Export Plug-In . SVG Version: 6.00 Build 0)  -->
<svg version="1.1" id="Layer_1" xmlns="http://www.w3.org/2000/svg" xmlns:xlink="http://www.w3.org/1999/xlink" x="0px" y="0px"
	 viewBox="0 0 1280 1280" style="enable-background:new 0 0 1280 1280;" xml:space="preserve">
<g>
	<path class="vk0" d="M1060.9,630.2c5.3,236.4-180,417.3-392.3,429.7c-119.4,7-224.6-29.1-312.7-110.1
		c-87.7-80.7-133.8-182.1-136.1-301.1c-4.4-234.1,178.3-421,405-429.1C864.5,211.1,1056.1,400.4,1060.9,630.2z"/>
	<path class="vk1" d="M823.8,639.2c0,38.5,0.2,77-0.1,115.5c-0.2,30.1-14.4,52-41,65.5c-8.5,4.3-18.1,6.5-28,6.5
		c-76.8,0-153.6,0.1-230.4-0.1c-27.6-0.1-53.8-17.8-64-44.4c-3.4-8.8-5.2-17.8-5.2-27.2c0-76.3,0.1-152.6,0-228.9
		c0-27.7,11.3-49.1,34.7-63.9c9.2-5.8,19.5-9.4,30.6-9.4c79.3-0.1,158.6-0.5,237.9,0.2c23.2,0.2,41.2,12.4,54,31.8
		c8.4,12.7,11.6,26.9,11.6,42.1C823.7,564.3,823.8,601.8,823.8,639.2z"/>
	<path class="vk2" d="M546.9,639.1c0-37.8,0.1-75.7-0.1-113.5c0-4.6,1.6-5.6,5.8-5.6c37.5,0.1,75-0.2,112.5,0.2
		c14.9,0.2,29.8,2,42.7,10.9c15.9,11,25.6,25.2,26.7,45.2c1.3,22-6.9,39-24.4,52c-1.6,1.2-5,0.8-4.7,3.6c0.3,2.7,3.5,2.6,5.6,3.6
		c21.8,9.6,36,29.2,35.5,54.9c-0.4,22.8-9.2,41.6-27.2,55.6c-9.4,7.3-20.6,10.3-32.3,12c-7.3,1.1-14.6,1.1-21.9,1.1
		c-37.3,0.1-74.7,0-112,0.1c-4.7,0-6.3-1.1-6.3-6.1C547,715.1,546.9,677.1,546.9,639.1z"/>
	<path class="vk1" d="M595.4,687.1c0-9.5,0.1-19-0.1-28.5c0-2.7,1.1-3.6,3.5-3.6c24.9,0.1,50-1.2,74.7,3.2
		c13.2,2.3,23.2,14.2,22.6,30.9c-0.5,16.3-11.1,27.7-27.5,29c-23.1,1.9-46.2,1.6-69.3,1.6c-3,0-4-1.2-3.9-4.3
		c0.2-9.5,0.1-19,0.1-28.5C595.5,687.1,595.5,687.1,595.4,687.1z"/>
	<path class="vk3" d="M643.3,615.7c-14.1,0-28.3-0.1-42.4,0.1c-4.3,0.1-5.6-1.1-5.5-5.7c0.4-15.3,0.2-30.6,0-45.9
		c-0.1-3.6,0.9-4.9,4.4-4.8c20,0.3,40,0.2,59.9,0.8c9.9,0.3,19.2,3.4,24.1,13.2c8.1,16,2.2,34.2-15.8,39.6
		C660,615.5,651.7,615.3,643.3,615.7z"/>
</g>
</svg>
