<?xml version="1.0" encoding="utf-8"?>
<!-- Generator: Adobe Illustrator 21.0.1, SVG Export Plug-In . SVG Version: 6.00 Build 0)  -->
<svg version="1.1" xmlns="http://www.w3.org/2000/svg" xmlns:xlink="http://www.w3.org/1999/xlink" x="0px" y="0px"
	 viewBox="0 300 1280 1280" style="enable-background:new 0 0 1280 1280;" xml:space="preserve">
<style type="text/css">
	.wordpress0{fill:#2C6C93;}
	.wordpress1{fill:#207BBE;}
	.wordpress2{fill:#B0F1F9;stroke:#A4FFFF;stroke-width:9;stroke-miterlimit:10;}
	.wordpress3{fill:#FEFEFE;}
	.wordpress4{fill:#FFFFFF;stroke:#3CB3DB;stroke-width:7;stroke-miterlimit:10;}
	.wordpress5{fill:#FFFFFF;stroke:#3CB3DB;stroke-width:3;stroke-miterlimit:10;}
	.wordpress6{fill:#B0F1F9;stroke:#42C6EA;stroke-width:5;stroke-miterlimit:10;}
	.wordpress7{fill:#B0F1F9;stroke:#42C6EA;stroke-miterlimit:10;}
	.wordpress8{fill:#B0F1F9;stroke:#42C6EA;stroke-width:0.5;stroke-miterlimit:10;}
	.wordpress9{fill:#B0F1F9;stroke:#42C6EA;stroke-width:3;stroke-miterlimit:10;}
	.wordpress10{fill:#3CB3DB;}
</style>
<g id="Layer_4">
	<path class="wordpress0" d="M328,784.7l-8.8-5c-1.7-1.1-4.2-2.6-7.3-4c-5.2-2.3-9.3-3.1-16-4.3c-8-1.4-12.1-2.1-17.3-1.3
		c-3.9,0.6-7.5,1.2-9.8,4.3c-2.3,3-2,6.9-1.8,9.8c0.2,2.4,0.9,6,3.3,10c1.6,2.8,3.4,4.7,14.3,12.8c7.7,5.7,11.7,8.7,17.3,12
		c4.1,2.5,7.7,4.4,10.5,5.8l15.5-34.8L328,784.7L328,784.7z"/>
	<path class="wordpress0" d="M941,835.9c1.3-0.4,3.1-1.1,5.3-2c0.9-0.4,4.4-1.8,6.5-3s5.7-3.7,9-9.3c2-3.9,8.6-2.7,12-1.3
		c2.6,1.1,4.3,7.9,10,11.3c8.5,5.1,14.2,10.3,15.8,11.8c7,6.5,11.3,10.6,14,17.8c2.9,7.8,2.2,14.7,1.8,18
		c-0.5,3.9-1.4,10.7-6.3,17.3c-3.4,4.5-7,6.8-12.3,10c-2.6,1.6-9.1,5.3-18.3,7.8c-9,2.4-16.1,2.3-18.3,2.3
		c-2.2-0.1-50.7-0.9-34.5,0.2c2,0.1,7.8-3.6,8-5.6l11.8-26.6L941,835.9z"/>
	<path class="wordpress1" d="M295.5,470.5L411,343c0.7,1.2,1.7,2.9,3,5c17.1,26.3,45.5,36.8,67.5,43.5c46.1,14.1,81.6,25,135.5,25.5
		c79.3,0.8,136.6-21.5,149-26.5c37.3-15,65.4-33.5,84-47.5l116,127.5c-0.8,1.2-2.1,2.9-3.5,5c-6.9,10-32.7,48.5-42,95
		c-11.5,57.2,5.8,107.6,13.5,127l6.5,16.5c1.9,6.6,4.6,16.3,7.5,28c2.6,10.5,6.3,25.9,8,35c7.8,41.3,0.1,79.5-1.5,87
		c-2,9.5-6.8,28.7-17.5,51c-6.1,12.7-15.6,32-34.5,52c-5.5,5.8-24.2,24.8-53.5,39c-11.6,5.6-24,10.1-44.5,17.5
		c-12.8,4.6-19.4,6.6-32.5,12c-15.6,6.4-26.5,11.8-29,13c-14.7,7.3-25.8,14-31.5,17.5c-7.5,4.7-19.1,11.9-33,23
		c-8.8,7.1-14.4,11.5-21,19c-4.3,4.8-11.1,12.6-17,24.5c-4.8,9.8-7.2,18.7-8.5,25c-0.8-1.4-2-3.4-3.2-6c-3.9-8.1-5.3-14.7-5.8-16.5
		c-2.4-9.4-9.6-17.5-18-27c-9.2-10.4-19.9-19.5-38.5-32c-20.2-13.6-36.8-24.8-61.5-35c-23.3-9.7-28.6-8.1-63-22
		c-14.7-5.9-22-8.9-31.5-14c-11.4-6.1-33.5-18.2-54.5-41.5c-23.4-25.9-33.1-52-38.5-67c-2.5-6.9-9-26.1-12-52
		c-2.6-22.7-1.2-39.8,0-54.5c2.5-29.8,3.8-44.8,12-62c3.5-7.3,8.1-14.9,13.5-29.5c1.2-3.2,4.5-12.5,7.5-25
		c2.2-9.4,7.1-32.3,6.5-62.5c-0.6-28.8-5.8-50.2-7-55c-4.1-16.4-12.1-40.4-28.5-66.5L295.5,470.5z"/>
	<path class="wordpress2" d="M317,478.7l97-109.6c0.6,1.1-1.3-1.9,0,0c16,24.7,56.5,39.1,77.1,45.4c43.1,13.2,76.4,23.4,126.8,23.9
		c74.2,0.7,127.8-20.1,139.4-24.8c34.9-14,70.6-35.1,88-48.2l102,108c-0.8,1.1,1.4-2,0,0c-6.4,9.4-36.7,65.1-45.4,108.7
		c-10.7,53.6,5.4,100.7,12.6,118.9l6.1,15.4c1.8,6.2,4.3,15.2,7,26.2c2.5,9.8,5.9,24.2,7.5,32.8c7.3,38.7,0.1,74.4-1.4,81.4
		c-1.9,8.9-6.3,26.8-16.4,47.7c-5.7,11.9-14.6,30-32.3,48.7c-5.2,5.4-22.7,23.2-50.1,36.5c-10.8,5.2-22.4,9.4-41.6,16.4
		c-12,4.3-18.1,6.2-30.4,11.2c-14.6,6-24.8,11-27.1,12.2c-13.8,6.8-24.1,13.1-29.5,16.4c-7.1,4.4-17.9,11.1-30.9,21.5
		c-8.3,6.6-13.4,10.8-19.7,17.8c-4,4.5-8.5,6.8-14,17.9c-4.5,9.2-11.6,20.4-12.8,26.3c-0.8-1.3-2.4-10.3-3.5-12.7
		c-3.6-7.6-6.2-12.4-6.2-12.4s-4.7-10.3-12.6-19.2c-8.7-9.7-18.6-18.2-36-29.9c-18.9-12.7-34.5-23.2-57.6-32.8
		c-21.8-9-26.8-7.6-59-20.6c-13.7-5.5-20.6-8.3-29.5-13.1c-10.6-5.7-31.3-17.1-51-38.8c-21.9-24.2-31-48.7-36-62.7
		c-2.3-6.5-8.5-24.4-11.2-48.7c-2.4-21.2-1.2-37.3,0-51c2.4-27.9,3.5-41.9,11.2-58c3.3-6.8,7.6-14,12.6-27.6c1.1-3,4.2-11.7,7-23.4
		c2.1-8.8,6.6-30.3,6.1-58.5c-0.5-26.9-5.4-47-6.6-51.5c-3.9-15.3-11.3-37.8-26.7-62.2L317,478.7z"/>
</g>
<g id="Layer_5">
	<path class="wordpress3" d="M798.6,571c7.8-2.2,15.6-4.4,23.4-6.5c5-1.4,10.1-2.6,15-4.3c2.3-0.8,3.4-0.1,4.5,1.9
		c5.7,10.1,11.4,20.1,17.3,30.1c1.3,2.2,1.1,3.4-0.7,5.1c-9.1,8.5-18,17.3-27.1,25.8c-2.1,1.9-2.6,3.7-1.9,6.4
		c3.1,11.3,6.1,22.6,8.9,34c0.7,2.8,2.1,4,4.8,4.6c11.9,2.9,23.8,6.1,35.8,8.9c2.9,0.7,3.4,2,3.6,4.7c0.8,11.3,0.6,22.6,0,33.9
		c-0.2,2.7-1,3.7-3.6,4.3c-11.8,2.8-23.6,5.8-35.4,8.6c-3.2,0.7-4.8,2-5.6,5.4c-2.8,11.1-5.8,22.1-9,33.1c-0.8,2.7-0.4,4.5,1.7,6.5
		c9,8.6,17.8,17.4,26.9,26c2,1.9,2,3.2,0.6,5.4c-5.7,9.5-11.4,19.1-16.9,28.9c-1.6,2.9-3.3,3.2-6.2,2.3c-11.6-3.5-23.3-6.8-35-10.3
		c-2.7-0.8-4.5-0.5-6.5,1.6c-8.1,8.3-16.3,16.5-24.7,24.5c-2.2,2.1-2.5,4-1.7,6.8c3.5,11.8,6.6,23.7,10.1,35.5
		c0.8,2.5,0.4,3.8-2,5.1c-9.7,5.4-19.4,11-29,16.7c-2.7,1.6-4.2,1.6-6.5-0.8c-8.4-9-17-17.8-25.5-26.7c-1.6-1.7-3-2.5-5.6-1.8
		c-11.4,3.2-22.9,6.1-34.4,9c-2.7,0.7-4,2.1-4.7,4.8c-2.9,11.9-6.1,23.8-9,35.8c-0.6,2.4-1.4,3.5-4.2,3.7
		c-11.6,0.8-23.1,0.5-34.7-0.1c-2.6-0.1-3.3-1.2-3.9-3.5c-2.9-12.2-6.1-24.4-8.9-36.7c-0.6-2.6-1.9-3.6-4.1-4.2
		c-11.3-3-22.6-6-33.9-9.2c-3-0.8-4.8-0.1-6.8,2c-8.5,8.9-17.2,17.6-25.7,26.5c-1.6,1.7-2.8,2.3-5.1,0.9c-9.9-6-19.9-11.9-30-17.6
		c-2.3-1.3-2.6-2.5-1.9-4.8c3.6-12.2,7-24.5,10.7-36.6c0.7-2.3,0.3-3.7-1.4-5.3c-8.5-8.5-17.1-17-25.4-25.6c-1.8-1.9-3.5-2-5.8-1.4
		c-12.1,3.5-24.2,6.8-36.3,10.3c-2.5,0.7-3.5,0.2-4.7-2c-5.6-10-11.3-19.9-17.1-29.7c-1.3-2.3-1.2-3.6,0.8-5.4
		c9.1-8.5,18-17.3,27-25.8c1.9-1.8,2.5-3.4,1.8-6c-3.2-11.4-6.3-22.9-9.1-34.4c-0.7-2.7-2-3.7-4.5-4.3c-11.9-2.9-23.8-6.1-35.8-9
		c-2.7-0.7-3.6-1.8-3.8-4.6c-0.8-11.4-0.6-22.9,0.1-34.3c0.2-2.5,1-3.4,3.4-4c12-2.8,23.9-5.8,35.8-8.6c3-0.7,4.5-2,5.3-5.2
		c2.8-11.2,5.9-22.4,9.1-33.5c0.7-2.5,0.3-4.3-1.7-6.1c-9-8.6-17.8-17.4-26.9-26c-2.2-2.1-2-3.5-0.6-5.8
		c5.7-9.5,11.4-19.1,16.8-28.9c1.4-2.6,2.8-3,5.4-2.2c11.8,3.6,23.6,6.8,35.4,10.4c2.8,0.9,4.7,0.4,6.8-1.7
		c8.1-8.3,16.3-16.5,24.6-24.5c2.1-2,2.4-3.8,1.6-6.5c-3.5-11.9-6.7-24-10.2-35.9c-0.7-2.4-0.4-3.6,1.8-4.8
		c10.2-5.7,20.4-11.5,30.5-17.5c2.4-1.4,3.3-0.1,4.6,1.3c8.5,8.9,17.1,17.7,25.6,26.7c2,2.1,3.8,2.9,6.8,2c11-3.1,22-6,33.1-8.7
		c3.3-0.8,4.7-2.5,5.4-5.7c2.8-11.7,5.9-23.3,8.7-34.9c0.6-2.7,1.7-3.6,4.6-3.8c11.4-0.8,22.9-0.5,34.3,0.1c2.6,0.1,3.4,1.2,3.9,3.5
		c2.8,11.7,5.8,23.3,8.5,34.9c0.8,3.4,2.1,5.3,5.8,6.2c11.1,2.7,22.1,5.8,33,9c2.6,0.8,4.3,0.2,6.1-1.7c8.5-8.9,17.2-17.6,25.7-26.6
		c2.1-2.3,3.7-2.3,6.2-0.8c9.5,5.8,19.1,11.4,28.9,16.9c2.6,1.4,2.9,2.9,2.1,5.5c-3.6,11.9-6.9,23.9-10.5,35.8
		c-0.7,2.4-0.4,3.9,1.4,5.7c8.5,8.3,16.8,16.8,25.2,25.2C795.7,570,796.6,571.5,798.6,571z"/>
	<circle class="wordpress4" cx="640" cy="697.4" r="184.1"/>
	<circle class="wordpress2" cx="640" cy="697.4" r="161"/>
</g>
<g id="Layer_3">
	<path class="wordpress3" d="M748.4,603.9c2.2-0.6,4.4-1.2,6.7-1.9c1.4-0.4,2.9-0.8,4.3-1.2c0.7-0.2,1,0,1.3,0.5c1.6,2.9,3.3,5.8,4.9,8.6
		c0.4,0.6,0.3,1-0.2,1.5c-2.6,2.4-5.1,4.9-7.7,7.4c-0.6,0.6-0.7,1-0.5,1.8c0.9,3.2,1.7,6.5,2.6,9.7c0.2,0.8,0.6,1.1,1.4,1.3
		c3.4,0.8,6.8,1.7,10.2,2.5c0.8,0.2,1,0.6,1,1.3c0.2,3.2,0.2,6.4,0,9.7c0,0.8-0.3,1.1-1,1.2c-3.4,0.8-6.7,1.7-10.1,2.4
		c-0.9,0.2-1.4,0.6-1.6,1.5c-0.8,3.2-1.7,6.3-2.6,9.4c-0.2,0.8-0.1,1.3,0.5,1.9c2.6,2.5,5.1,5,7.7,7.4c0.6,0.5,0.6,0.9,0.2,1.6
		c-1.6,2.7-3.3,5.5-4.8,8.2c-0.5,0.8-0.9,0.9-1.8,0.7c-3.3-1-6.7-1.9-10-2.9c-0.8-0.2-1.3-0.1-1.9,0.4c-2.3,2.4-4.7,4.7-7,7
		c-0.6,0.6-0.7,1.1-0.5,2c1,3.4,1.9,6.8,2.9,10.1c0.2,0.7,0.1,1.1-0.6,1.5c-2.8,1.5-5.5,3.1-8.3,4.8c-0.8,0.5-1.2,0.5-1.9-0.2
		c-2.4-2.6-4.9-5.1-7.3-7.6c-0.5-0.5-0.8-0.7-1.6-0.5c-3.3,0.9-6.5,1.8-9.8,2.6c-0.8,0.2-1.1,0.6-1.3,1.4c-0.8,3.4-1.7,6.8-2.6,10.2
		c-0.2,0.7-0.4,1-1.2,1.1c-3.3,0.2-6.6,0.2-9.9,0c-0.7,0-1-0.3-1.1-1c-0.8-3.5-1.7-7-2.5-10.5c-0.2-0.7-0.5-1-1.2-1.2
		c-3.2-0.9-6.5-1.7-9.7-2.6c-0.8-0.2-1.4,0-1.9,0.6c-2.4,2.5-4.9,5-7.3,7.6c-0.5,0.5-0.8,0.7-1.4,0.3c-2.8-1.7-5.7-3.4-8.6-5
		c-0.6-0.4-0.7-0.7-0.5-1.4c1-3.5,2-7,3.1-10.5c0.2-0.7,0.1-1.1-0.4-1.5c-2.4-2.4-4.9-4.8-7.3-7.3c-0.5-0.5-1-0.6-1.7-0.4
		c-3.4,1-6.9,1.9-10.4,2.9c-0.7,0.2-1,0.1-1.3-0.6c-1.6-2.9-3.2-5.7-4.9-8.5c-0.4-0.7-0.3-1,0.2-1.6c2.6-2.4,5.1-4.9,7.7-7.4
		c0.5-0.5,0.7-1,0.5-1.7c-0.9-3.3-1.8-6.5-2.6-9.8c-0.2-0.8-0.6-1.1-1.3-1.2c-3.4-0.8-6.8-1.7-10.2-2.6c-0.8-0.2-1-0.5-1.1-1.3
		c-0.2-3.3-0.2-6.5,0-9.8c0-0.7,0.3-1,1-1.1c3.4-0.8,6.8-1.7,10.2-2.5c0.9-0.2,1.3-0.6,1.5-1.5c0.8-3.2,1.7-6.4,2.6-9.6
		c0.2-0.7,0.1-1.2-0.5-1.8c-2.6-2.5-5.1-5-7.7-7.4c-0.6-0.6-0.6-1-0.2-1.7c1.6-2.7,3.3-5.5,4.8-8.2c0.4-0.7,0.8-0.9,1.6-0.6
		c3.4,1,6.7,2,10.1,3c0.8,0.2,1.3,0.1,2-0.5c2.3-2.4,4.7-4.7,7-7c0.6-0.6,0.7-1.1,0.5-1.9c-1-3.4-1.9-6.8-2.9-10.2
		c-0.2-0.7-0.1-1,0.5-1.4c2.9-1.6,5.8-3.3,8.7-5c0.7-0.4,0.9,0,1.3,0.4c2.4,2.5,4.9,5,7.3,7.6c0.6,0.6,1.1,0.8,1.9,0.6
		c3.1-0.9,6.3-1.7,9.5-2.5c0.9-0.2,1.3-0.7,1.6-1.6c0.8-3.3,1.7-6.6,2.5-10c0.2-0.8,0.5-1,1.3-1.1c3.3-0.2,6.5-0.1,9.8,0
		c0.7,0,1,0.3,1.1,1c0.8,3.3,1.7,6.6,2.4,10c0.2,1,0.6,1.5,1.7,1.8c3.2,0.8,6.3,1.7,9.4,2.6c0.8,0.2,1.2,0,1.7-0.5
		c2.4-2.5,4.9-5,7.3-7.6c0.6-0.7,1-0.7,1.8-0.2c2.7,1.6,5.5,3.3,8.2,4.8c0.7,0.4,0.8,0.8,0.6,1.6c-1,3.4-2,6.8-3,10.2
		c-0.2,0.7-0.1,1.1,0.4,1.6c2.4,2.4,4.8,4.8,7.2,7.2C747.6,603.6,747.9,604.1,748.4,603.9z"/>
	<circle class="wordpress5" cx="703.2" cy="640" r="52.6"/>
	<circle class="wordpress6" cx="703.2" cy="640" r="46"/>
	<path class="wordpress3" d="M626.3,660.3c1.3-0.4,2.7-0.8,4-1.1c0.9-0.2,1.7-0.5,2.6-0.7c0.4-0.1,0.6,0,0.8,0.3c1,1.7,2,3.5,3,5.2
		c0.2,0.4,0.2,0.6-0.1,0.9c-1.6,1.5-3.1,3-4.7,4.5c-0.4,0.3-0.5,0.6-0.3,1.1c0.5,1.9,1.1,3.9,1.5,5.9c0.1,0.5,0.4,0.7,0.8,0.8
		c2.1,0.5,4.1,1.1,6.2,1.5c0.5,0.1,0.6,0.3,0.6,0.8c0.1,2,0.1,3.9,0,5.9c0,0.5-0.2,0.6-0.6,0.7c-2,0.5-4.1,1-6.1,1.5
		c-0.5,0.1-0.8,0.4-1,0.9c-0.5,1.9-1,3.8-1.6,5.7c-0.1,0.5-0.1,0.8,0.3,1.1c1.6,1.5,3.1,3,4.6,4.5c0.3,0.3,0.3,0.6,0.1,0.9
		c-1,1.7-2,3.3-2.9,5c-0.3,0.5-0.6,0.6-1.1,0.4c-2-0.6-4-1.2-6-1.8c-0.5-0.1-0.8-0.1-1.1,0.3c-1.4,1.4-2.8,2.8-4.3,4.2
		c-0.4,0.4-0.4,0.7-0.3,1.2c0.6,2,1.1,4.1,1.7,6.1c0.1,0.4,0.1,0.7-0.3,0.9c-1.7,0.9-3.4,1.9-5,2.9c-0.5,0.3-0.7,0.3-1.1-0.1
		c-1.4-1.6-2.9-3.1-4.4-4.6c-0.3-0.3-0.5-0.4-1-0.3c-2,0.6-4,1.1-5.9,1.6c-0.5,0.1-0.7,0.4-0.8,0.8c-0.5,2.1-1,4.1-1.6,6.2
		c-0.1,0.4-0.2,0.6-0.7,0.6c-2,0.1-4,0.1-6,0c-0.4,0-0.6-0.2-0.7-0.6c-0.5-2.1-1.1-4.2-1.5-6.3c-0.1-0.4-0.3-0.6-0.7-0.7
		c-2-0.5-3.9-1-5.9-1.6c-0.5-0.1-0.8,0-1.2,0.3c-1.5,1.5-3,3-4.4,4.6c-0.3,0.3-0.5,0.4-0.9,0.2c-1.7-1-3.4-2.1-5.2-3
		c-0.4-0.2-0.4-0.4-0.3-0.8c0.6-2.1,1.2-4.2,1.8-6.3c0.1-0.4,0-0.6-0.2-0.9c-1.5-1.5-2.9-2.9-4.4-4.4c-0.3-0.3-0.6-0.3-1-0.2
		c-2.1,0.6-4.2,1.2-6.3,1.8c-0.4,0.1-0.6,0-0.8-0.3c-1-1.7-1.9-3.4-3-5.1c-0.2-0.4-0.2-0.6,0.1-0.9c1.6-1.5,3.1-3,4.7-4.5
		c0.3-0.3,0.4-0.6,0.3-1c-0.6-2-1.1-4-1.6-5.9c-0.1-0.5-0.4-0.6-0.8-0.7c-2.1-0.5-4.1-1.1-6.2-1.6c-0.5-0.1-0.6-0.3-0.7-0.8
		c-0.1-2-0.1-4,0-5.9c0-0.4,0.2-0.6,0.6-0.7c2.1-0.5,4.1-1,6.2-1.5c0.5-0.1,0.8-0.4,0.9-0.9c0.5-1.9,1-3.9,1.6-5.8
		c0.1-0.4,0-0.7-0.3-1.1c-1.6-1.5-3.1-3-4.6-4.5c-0.4-0.4-0.3-0.6-0.1-1c1-1.6,2-3.3,2.9-5c0.2-0.4,0.5-0.5,0.9-0.4
		c2,0.6,4.1,1.2,6.1,1.8c0.5,0.2,0.8,0.1,1.2-0.3c1.4-1.4,2.8-2.8,4.3-4.2c0.4-0.3,0.4-0.7,0.3-1.1c-0.6-2.1-1.2-4.1-1.8-6.2
		c-0.1-0.4-0.1-0.6,0.3-0.8c1.8-1,3.5-2,5.3-3c0.4-0.2,0.6,0,0.8,0.2c1.5,1.5,3,3.1,4.4,4.6c0.3,0.4,0.7,0.5,1.2,0.3
		c1.9-0.5,3.8-1,5.7-1.5c0.6-0.1,0.8-0.4,0.9-1c0.5-2,1-4,1.5-6c0.1-0.5,0.3-0.6,0.8-0.7c2-0.1,4-0.1,5.9,0c0.5,0,0.6,0.2,0.7,0.6
		c0.5,2,1,4,1.5,6c0.1,0.6,0.4,0.9,1,1.1c1.9,0.5,3.8,1,5.7,1.6c0.5,0.1,0.7,0,1.1-0.3c1.5-1.5,3-3,4.4-4.6c0.4-0.4,0.6-0.4,1.1-0.1
		c1.6,1,3.3,2,5,2.9c0.4,0.2,0.5,0.5,0.4,1c-0.6,2.1-1.2,4.1-1.8,6.2c-0.1,0.4-0.1,0.7,0.2,1c1.5,1.4,2.9,2.9,4.3,4.4
		C625.8,660.1,626,660.4,626.3,660.3z"/>
	<circle class="wordpress5" cx="598.9" cy="682.1" r="31.8"/>
	<circle class="wordpress7" cx="598.9" cy="682.1" r="27.8"/>
	<path class="wordpress3" d="M681.8,715.9c1.3-0.4,2.7-0.8,4-1.1c0.9-0.2,1.7-0.5,2.6-0.7c0.4-0.1,0.6,0,0.8,0.3c1,1.7,2,3.5,3,5.2
		c0.2,0.4,0.2,0.6-0.1,0.9c-1.6,1.5-3.1,3-4.7,4.5c-0.4,0.3-0.5,0.6-0.3,1.1c0.5,1.9,1.1,3.9,1.5,5.9c0.1,0.5,0.4,0.7,0.8,0.8
		c2.1,0.5,4.1,1.1,6.2,1.5c0.5,0.1,0.6,0.3,0.6,0.8c0.1,2,0.1,3.9,0,5.9c0,0.5-0.2,0.6-0.6,0.7c-2,0.5-4.1,1-6.1,1.5
		c-0.5,0.1-0.8,0.4-1,0.9c-0.5,1.9-1,3.8-1.6,5.7c-0.1,0.5-0.1,0.8,0.3,1.1c1.6,1.5,3.1,3,4.6,4.5c0.3,0.3,0.3,0.6,0.1,0.9
		c-1,1.7-2,3.3-2.9,5c-0.3,0.5-0.6,0.6-1.1,0.4c-2-0.6-4-1.2-6-1.8c-0.5-0.1-0.8-0.1-1.1,0.3c-1.4,1.4-2.8,2.8-4.3,4.2
		c-0.4,0.4-0.4,0.7-0.3,1.2c0.6,2,1.1,4.1,1.7,6.1c0.1,0.4,0.1,0.7-0.3,0.9c-1.7,0.9-3.4,1.9-5,2.9c-0.5,0.3-0.7,0.3-1.1-0.1
		c-1.4-1.6-2.9-3.1-4.4-4.6c-0.3-0.3-0.5-0.4-1-0.3c-2,0.6-4,1.1-5.9,1.6c-0.5,0.1-0.7,0.4-0.8,0.8c-0.5,2.1-1,4.1-1.6,6.2
		c-0.1,0.4-0.2,0.6-0.7,0.6c-2,0.1-4,0.1-6,0c-0.4,0-0.6-0.2-0.7-0.6c-0.5-2.1-1.1-4.2-1.5-6.3c-0.1-0.4-0.3-0.6-0.7-0.7
		c-2-0.5-3.9-1-5.9-1.6c-0.5-0.1-0.8,0-1.2,0.3c-1.5,1.5-3,3-4.4,4.6c-0.3,0.3-0.5,0.4-0.9,0.2c-1.7-1-3.4-2.1-5.2-3
		c-0.4-0.2-0.4-0.4-0.3-0.8c0.6-2.1,1.2-4.2,1.8-6.3c0.1-0.4,0-0.6-0.2-0.9c-1.5-1.5-2.9-2.9-4.4-4.4c-0.3-0.3-0.6-0.3-1-0.2
		c-2.1,0.6-4.2,1.2-6.3,1.8c-0.4,0.1-0.6,0-0.8-0.3c-1-1.7-1.9-3.4-3-5.1c-0.2-0.4-0.2-0.6,0.1-0.9c1.6-1.5,3.1-3,4.7-4.5
		c0.3-0.3,0.4-0.6,0.3-1c-0.6-2-1.1-4-1.6-5.9c-0.1-0.5-0.4-0.6-0.8-0.7c-2.1-0.5-4.1-1.1-6.2-1.6c-0.5-0.1-0.6-0.3-0.7-0.8
		c-0.1-2-0.1-4,0-5.9c0-0.4,0.2-0.6,0.6-0.7c2.1-0.5,4.1-1,6.2-1.5c0.5-0.1,0.8-0.4,0.9-0.9c0.5-1.9,1-3.9,1.6-5.8
		c0.1-0.4,0-0.7-0.3-1.1c-1.6-1.5-3.1-3-4.6-4.5c-0.4-0.4-0.3-0.6-0.1-1c1-1.6,2-3.3,2.9-5c0.2-0.4,0.5-0.5,0.9-0.4
		c2,0.6,4.1,1.2,6.1,1.8c0.5,0.2,0.8,0.1,1.2-0.3c1.4-1.4,2.8-2.8,4.3-4.2c0.4-0.3,0.4-0.7,0.3-1.1c-0.6-2.1-1.2-4.1-1.8-6.2
		c-0.1-0.4-0.1-0.6,0.3-0.8c1.8-1,3.5-2,5.3-3c0.4-0.2,0.6,0,0.8,0.2c1.5,1.5,3,3.1,4.4,4.6c0.3,0.4,0.7,0.5,1.2,0.3
		c1.9-0.5,3.8-1,5.7-1.5c0.6-0.1,0.8-0.4,0.9-1c0.5-2,1-4,1.5-6c0.1-0.5,0.3-0.6,0.8-0.7c2-0.1,4-0.1,5.9,0c0.5,0,0.6,0.2,0.7,0.6
		c0.5,2,1,4,1.5,6c0.1,0.6,0.4,0.9,1,1.1c1.9,0.5,3.8,1,5.7,1.6c0.5,0.1,0.7,0,1.1-0.3c1.5-1.5,3-3,4.4-4.6c0.4-0.4,0.6-0.4,1.1-0.1
		c1.6,1,3.3,2,5,2.9c0.4,0.2,0.5,0.5,0.4,1c-0.6,2.1-1.2,4.1-1.8,6.2c-0.1,0.4-0.1,0.7,0.2,1c1.5,1.4,2.9,2.9,4.3,4.4
		C681.3,715.7,681.5,716,681.8,715.9z"/>
	<circle class="wordpress5" cx="654.4" cy="737.7" r="31.8"/>
	<circle class="wordpress8" cx="654.4" cy="737.7" r="27.8"/>
	<path class="wordpress3" d="M602.7,740.9c1.7-0.5,3.4-1,5.1-1.4c1.1-0.3,2.2-0.6,3.3-0.9c0.5-0.2,0.7,0,1,0.4c1.2,2.2,2.5,4.4,3.8,6.6
		c0.3,0.5,0.2,0.7-0.2,1.1c-2,1.9-3.9,3.8-5.9,5.6c-0.5,0.4-0.6,0.8-0.4,1.4c0.7,2.5,1.3,4.9,2,7.4c0.2,0.6,0.5,0.9,1.1,1
		c2.6,0.6,5.2,1.3,7.8,1.9c0.6,0.1,0.8,0.4,0.8,1c0.2,2.5,0.1,4.9,0,7.4c0,0.6-0.2,0.8-0.8,0.9c-2.6,0.6-5.2,1.3-7.7,1.9
		c-0.7,0.2-1.1,0.4-1.2,1.2c-0.6,2.4-1.3,4.8-2,7.2c-0.2,0.6-0.1,1,0.4,1.4c2,1.9,3.9,3.8,5.9,5.7c0.4,0.4,0.4,0.7,0.1,1.2
		c-1.3,2.1-2.5,4.2-3.7,6.3c-0.4,0.6-0.7,0.7-1.4,0.5c-2.5-0.8-5.1-1.5-7.6-2.2c-0.6-0.2-1-0.1-1.4,0.3c-1.8,1.8-3.6,3.6-5.4,5.4
		c-0.5,0.5-0.6,0.9-0.4,1.5c0.8,2.6,1.4,5.2,2.2,7.8c0.2,0.6,0.1,0.8-0.4,1.1c-2.1,1.2-4.2,2.4-6.3,3.6c-0.6,0.3-0.9,0.4-1.4-0.2
		c-1.8-2-3.7-3.9-5.6-5.8c-0.4-0.4-0.6-0.5-1.2-0.4c-2.5,0.7-5,1.3-7.5,2c-0.6,0.1-0.9,0.5-1,1.1c-0.6,2.6-1.3,5.2-2,7.8
		c-0.1,0.5-0.3,0.8-0.9,0.8c-2.5,0.2-5.1,0.1-7.6,0c-0.6,0-0.7-0.3-0.9-0.8c-0.6-2.7-1.3-5.3-2-8c-0.1-0.6-0.4-0.8-0.9-0.9
		c-2.5-0.7-4.9-1.3-7.4-2c-0.6-0.2-1,0-1.5,0.4c-1.9,1.9-3.8,3.9-5.6,5.8c-0.4,0.4-0.6,0.5-1.1,0.2c-2.2-1.3-4.3-2.6-6.5-3.8
		c-0.5-0.3-0.6-0.5-0.4-1c0.8-2.7,1.5-5.3,2.3-8c0.2-0.5,0.1-0.8-0.3-1.2c-1.9-1.8-3.7-3.7-5.6-5.6c-0.4-0.4-0.8-0.4-1.3-0.3
		c-2.6,0.8-5.3,1.5-7.9,2.3c-0.5,0.2-0.8,0.1-1-0.4c-1.2-2.2-2.5-4.3-3.7-6.5c-0.3-0.5-0.3-0.8,0.2-1.2c2-1.9,3.9-3.8,5.9-5.6
		c0.4-0.4,0.6-0.7,0.4-1.3c-0.7-2.5-1.4-5-2-7.5c-0.1-0.6-0.4-0.8-1-0.9c-2.6-0.6-5.2-1.3-7.8-2c-0.6-0.1-0.8-0.4-0.8-1
		c-0.2-2.5-0.1-5,0-7.5c0-0.5,0.2-0.7,0.7-0.9c2.6-0.6,5.2-1.3,7.8-1.9c0.7-0.2,1-0.4,1.2-1.1c0.6-2.5,1.3-4.9,2-7.3
		c0.2-0.6,0.1-0.9-0.4-1.3c-2-1.9-3.9-3.8-5.9-5.7c-0.5-0.5-0.4-0.8-0.1-1.3c1.3-2.1,2.5-4.2,3.7-6.3c0.3-0.6,0.6-0.7,1.2-0.5
		c2.6,0.8,5.2,1.5,7.7,2.3c0.6,0.2,1,0.1,1.5-0.4c1.8-1.8,3.6-3.6,5.4-5.4c0.5-0.4,0.5-0.8,0.3-1.4c-0.8-2.6-1.5-5.2-2.2-7.8
		c-0.2-0.5-0.1-0.8,0.4-1.1c2.2-1.2,4.5-2.5,6.7-3.8c0.5-0.3,0.7,0,1,0.3c1.9,1.9,3.7,3.9,5.6,5.8c0.4,0.5,0.8,0.6,1.5,0.4
		c2.4-0.7,4.8-1.3,7.2-1.9c0.7-0.2,1-0.5,1.2-1.2c0.6-2.6,1.3-5.1,1.9-7.6c0.1-0.6,0.4-0.8,1-0.8c2.5-0.2,5-0.1,7.5,0
		c0.6,0,0.7,0.3,0.9,0.8c0.6,2.5,1.3,5.1,1.9,7.6c0.2,0.8,0.5,1.2,1.3,1.4c2.4,0.6,4.8,1.3,7.2,2c0.6,0.2,0.9,0,1.3-0.4
		c1.9-1.9,3.8-3.8,5.6-5.8c0.5-0.5,0.8-0.5,1.4-0.2c2.1,1.3,4.2,2.5,6.3,3.7c0.6,0.3,0.6,0.6,0.5,1.2c-0.8,2.6-1.5,5.2-2.3,7.8
		c-0.2,0.5-0.1,0.9,0.3,1.3c1.8,1.8,3.7,3.7,5.5,5.5C602.1,740.7,602.3,741,602.7,740.9z"/>
	<circle class="wordpress5" cx="568" cy="768.6" r="40.3"/>
	<circle class="wordpress9" cx="568" cy="768.6" r="35.2"/>
</g>
<g id="Layer_1">
	<g id="Layer_2">
		<path class="wordpress10" d="M1010.9,855.9c0.7-0.6,0.4-3.2-6.1-13.9L983,782l-15.3-38.5c-1.3-0.9-3.3-2.3-5.8-3.8
			c-3.5-2.1-16.7-10.1-38.5-16c-14.6-4-25.9-5.1-37-6.3c-12.6-1.3-22.2-1.4-28.8-1.5c-26-0.3-45.2,2.2-49.5,2.8
			c-5.4,0.7-12.6,1.8-31.8,6c-26.4,5.7-42.4,9.2-64,15.5c-30,8.8-52.2,17.5-71,25c-11.9,4.7-23.9,9.5-39.5,16.8
			c-8.2,3.8-11.6,5.7-22.8,10.8c-15,6.9-26.4,11.6-29.8,13c-14.2,5.9-23.5,9.7-36.5,14c-13.9,4.6-24.6,7.2-34,9.5
			c-12.5,3.1-23.8,5.8-39.3,8c-2.7,0.4-14.2,2-30,2.8c-17.3,0.9-33,1.7-52.8-1.5c-7.7-1.2-18.7-3.5-31.8-8l-11-4.3l-13.4-7.9
			l-12-8.3l-18.3-15.8l-3.3-10l0.9-8.3l-39.9,96.3c-0.1,0.8-0.2,2,0,3.5c0.8,6.6,6.3,10.9,8.5,12.8c14.4,11.7,11,13.3,26.2,23.8
			c3.6,2.5,17.4,11.6,40.5,20c4.4,1.6,21.3,7.5,47.8,11.8c8.8,1.4,40,6,82.8,3c24.8-1.7,43-5.3,59.3-8.5c38-7.5,66.1-17,86.5-24
			c30.3-10.4,53.8-20.4,82.8-32.8c24.9-10.6,26.9-12.2,47.3-20.5c20.3-8.3,41.7-17.1,70-25.8c48.2-14.8,82.5-19.1,92.8-20.3
			c19.9-2.3,33.1-2.4,45-1.8c19.1,1.1,32.5,1.8,47.5,8.3C993.3,833.8,1008.4,857.9,1010.9,855.9z"/>
		<path class="wordpress3" d="M561.2,849.4c0,4.1,0,6.9,0,9.8c0.1,14.1,0.3,28.2,0.4,42.3c0,1.3,0.8,3.2-1.2,3.8c-1.7,0.5-2.1-1.3-2.9-2.3
			c-11.3-15-22.6-29.9-33.9-44.9c-1.3-1.7-2.6-3.4-3.9-5c-3.9-4.8-8.6-7.5-15-5.4c-1.1,0.4-2.3,0.9-2.8-0.9c-0.6-1.8,0.6-2,1.8-2.4
			c10.3-3.6,20.7-7.1,31-10.7c1.2-0.4,2.2-0.9,2.8,0.9c0.5,1.5-0.3,1.9-1.4,2.3c-8.9,3.1-7.5,7.8-3.1,13.7
			c7.2,9.7,14.6,19.3,21.9,29c1-1.6,0.5-3.2,0.5-4.8c0-14.9-0.1-29.8-0.2-44.7c0-1.5-0.8-3.3,1.5-4c2.3-0.7,2.7,1.3,3.6,2.4
			c9.1,11.8,18,23.7,27,35.6c0.8,1,1.6,2,3.1,3.8c0-4.9,0-8.8-0.1-12.7c0-8.6,0.1-17.3-0.2-25.9c-0.3-7.7-2.2-9-9.8-7.6
			c-1.2,0.2-2.6,1.2-3.3-0.8c-0.8-2.4,1.3-2.2,2.5-2.7c8-2.8,16.1-5.6,24.2-8.3c1.1-0.4,2.4-1.6,3.3,0.5c0.8,2-0.7,2.3-1.9,2.7
			c-7.3,2.6-9,8.4-9,15.3c0.1,20.1,0.3,40.2,0.5,60.2c0,0.1,0.1,0.3,0,0.4c-0.4,1.4,1,3.5-1.2,4.1c-1.9,0.5-2.3-1.5-3.1-2.5
			c-7.3-9.6-14.6-19.3-21.9-29C567.7,857.8,564.9,854.1,561.2,849.4z"/>
		<path class="wordpress3" d="M648.3,793c6.1-1.3,13.1-4.1,20.6-4.7c8.4-0.6,16,1.1,21.1,8.5c6.2,8.9,4.1,20-4.8,26.9
			c-5.5,4.3-12.1,6-18.7,7.6c-2.9,0.7-4.1,1.6-2.9,4.8c1.7,4.9,2.4,10.1,4.6,14.9c2.7,5.8,5.1,7,11.4,5.9c0.4-0.1,0.8-0.1,1.2-0.2
			c1.2-0.3,2.1-0.1,2.4,1.3c0.4,1.4-0.4,1.9-1.6,2.2c-11.2,2.9-22.4,5.9-33.6,8.8c-1.2,0.3-2,0.2-2.4-1.2c-0.4-1.4,0.4-1.8,1.5-2.3
			c8.7-4,9.5-4.8,7.6-14.2c-3-14.9-6.7-29.6-11.8-43.9c-2-5.6-4.9-7.1-10.8-6.3c-0.7,0.1-1.3,0.2-2,0.4c-1.2,0.3-2,0.1-2.3-1.3
			c-0.4-1.5,0.5-1.8,1.6-2.1C635.3,796.4,641.3,794.8,648.3,793z"/>
		<path class="wordpress10" d="M655.5,813.8c-1.6-3.7-3-7.4-4.7-11c-1-2.1-0.5-3,1.6-3.8c2.4-0.8,4.6-2,7-2.9c7.1-2.7,13.6,0.1,17.1,7.3
			c4,8.3,2.4,14.9-4.5,19c-10.2,6.1-10.2,6.1-14.8-4.7C656.7,816.4,656.1,815.1,655.5,813.8z"/>
	</g>
</g>
</svg>
